<?xml version="1.0" standalone="no"?>
<!DOCTYPE svg PUBLIC "-//W3C//DTD SVG 1.1//EN" "http://www.w3.org/Graphics/SVG/1.1/DTD/svg11.dtd" >
<svg xmlns="http://www.w3.org/2000/svg">
<metadata></metadata>
<defs>
<font id="fascinate_inlineregular" horiz-adv-x="1024" >
<font-face units-per-em="2048" ascent="1638" descent="-410" />
<missing-glyph horiz-adv-x="614" />
<glyph unicode="&#xfb01;" horiz-adv-x="1942" d="M31 438v80q0 21 21 21h83v604q0 108 22.5 188t61 137.5t90.5 94.5t112 58.5t124.5 29.5t128.5 8q55 0 115.5 -7t117 -18.5t105.5 -27t83 -31.5q8 -4 17 -12t9 -28v-70q0 -13 -5 -15.5t-9 -2.5q-13 0 -28 6t-45 6q-33 0 -62.5 -13.5t-51.5 -47.5t-34.5 -92t-12.5 -146 v-621h160q21 0 21 -21v-80q0 -22 -21 -22h-160v-276q0 -36 -5 -62.5t-21 -43.5t-45.5 -25.5t-78.5 -8.5h-434q-48 0 -78 9t-47 26t-23 43t-6 61v277h-83q-21 0 -21 22zM710 84q24 0 39 1.5t24 8t12 19t3 35.5v1052q0 88 15 143.5t38 89t52 50t56 26.5q-36 1 -78 -14.5 t-78 -51.5t-59.5 -95.5t-23.5 -147.5v-1116zM1113 139v746q0 34 6 60.5t23 43.5t47 26t78 9h438q46 0 74.5 -8.5t44.5 -25.5t21 -43t5 -62v-748q0 -34 -5 -59.5t-21 -43t-44.5 -26t-74.5 -8.5h-438q-48 0 -78 9t-47 26t-23 43t-6 61zM1150 1452q0 69 26.5 130t71.5 106 t106 71.5t130 26.5q68 0 128.5 -26.5t105.5 -71.5t71.5 -106t26.5 -130q0 -68 -26.5 -128.5t-71.5 -105.5t-105.5 -71.5t-128.5 -26.5q-69 0 -130 26.5t-106 71.5t-71.5 105.5t-26.5 128.5zM1548 1212q40 10 73.5 33t58 54.5t38.5 70.5t14 82t-14 82t-38.5 70.5t-58 54 t-73.5 33.5q47 -46 74.5 -108t27.5 -132t-27.5 -132t-74.5 -108zM1688 84q24 0 39 1.5t24 8t12 19t3 35.5v728q0 22 -3 35t-12 19.5t-24 8t-39 1.5v-856z" />
<glyph unicode="&#xfb02;" horiz-adv-x="1942" d="M31 438v80q0 21 21 21h83v604q0 108 24.5 188t67 137.5t99 94.5t121 58.5t133 29.5t134.5 8q53 0 111 -7t112.5 -18.5t103 -26.5t83.5 -31q14 31 46.5 46.5t96.5 15.5h438q46 0 74 -8.5t44 -25.5t21.5 -43t5.5 -61v-1363q0 -34 -6 -59.5t-22 -43t-44.5 -26t-74.5 -8.5 h-436q-48 0 -78 9t-47 26t-23 43t-6 61v1315q-17 5 -39 5q-45 0 -82 -13.5t-63.5 -47.5t-41 -92t-14.5 -146v-621h160q21 0 21 -21v-80q0 -22 -21 -22h-160v-276q0 -36 -5 -62.5t-21 -43.5t-45.5 -25.5t-78.5 -8.5h-434q-48 0 -78 9t-47 26t-23 43t-6 61v277h-83 q-21 0 -21 22zM710 84q24 0 39 1.5t24 8t12 19t3 35.5v1052q0 88 15 143.5t38 89t52 50t56 26.5q-36 1 -78 -14.5t-78 -51.5t-59.5 -95.5t-23.5 -147.5v-1116zM1687 84q24 0 39 1.5t24 8t12 19t3 35.5v1342q0 22 -3 35t-12 19.5t-24 8t-39 1.5v-1470z" />
<glyph unicode="&#xfb03;" horiz-adv-x="2928" d="M31 438v80q0 21 21 21h83v504q0 108 22.5 188t61 137.5t90.5 94.5t112 58.5t124.5 29.5t128.5 8q55 0 115.5 -7t117 -18.5t105.5 -27t83 -31.5q8 -4 17 -12t9 -28v-70q0 -13 -5 -15.5t-9 -2.5q-13 0 -28 6t-45 6q-33 0 -62.5 -13.5t-51.5 -47.5t-34.5 -92t-12.5 -146 v-521h248v604q0 108 22.5 188t61 137.5t90.5 94.5t112 58.5t124.5 29.5t128.5 8q55 0 115.5 -7t117 -18.5t105.5 -27t83 -31.5q8 -4 17 -12t9 -28v-70q0 -13 -5 -15.5t-9 -2.5q-13 0 -28 6t-45 6q-33 0 -62.5 -13.5t-51.5 -47.5t-34.5 -92t-12.5 -146v-621h160q21 0 21 -21 v-80q0 -22 -21 -22h-160v-276q0 -36 -5 -62.5t-21 -43.5t-45.5 -25.5t-78.5 -8.5h-434q-48 0 -78 9t-47 26t-23 43t-6 61v277h-248v-276q0 -36 -5 -62.5t-21 -43.5t-45.5 -25.5t-78.5 -8.5h-434q-48 0 -78 9t-47 26t-23 43t-6 61v277h-83q-21 0 -21 22zM710 84q24 0 39 1.5 t24 8t12 19t3 35.5v952q0 88 15 143.5t38 89t52 50t56 26.5q-36 1 -78 -14.5t-78 -51.5t-59.5 -95.5t-23.5 -147.5v-1016zM1696 84q24 0 39 1.5t24 8t12 19t3 35.5v1052q0 88 15 143.5t38 89t52 50t56 26.5q-36 1 -78 -14.5t-78 -51.5t-59.5 -95.5t-23.5 -147.5v-1116z M2099 139v746q0 34 6 60.5t23 43.5t47 26t78 9h438q46 0 74.5 -8.5t44.5 -25.5t21 -43t5 -62v-748q0 -34 -5 -59.5t-21 -43t-44.5 -26t-74.5 -8.5h-438q-48 0 -78 9t-47 26t-23 43t-6 61zM2136 1452q0 69 26.5 130t71.5 106t106 71.5t130 26.5q68 0 128.5 -26.5t105.5 -71.5 t71.5 -106t26.5 -130q0 -68 -26.5 -128.5t-71.5 -105.5t-105.5 -71.5t-128.5 -26.5q-69 0 -130 26.5t-106 71.5t-71.5 105.5t-26.5 128.5zM2533 1212q40 10 73.5 33t58 54.5t38.5 70.5t14 82t-14 82t-38.5 70.5t-58 54t-73.5 33.5q47 -46 74.5 -108t27.5 -132t-27.5 -132 t-74.5 -108zM2673 84q24 0 39 1.5t24 8t12 19t3 35.5v728q0 22 -3 35t-12 19.5t-24 8t-39 1.5v-856z" />
<glyph unicode="&#xfb04;" horiz-adv-x="2928" d="M31 438v80q0 21 21 21h83v504q0 108 22.5 188t61 137.5t90.5 94.5t112 58.5t124.5 29.5t128.5 8q55 0 115.5 -7t117 -18.5t105.5 -27t83 -31.5q8 -4 17 -12t9 -28v-70q0 -13 -5 -15.5t-9 -2.5q-13 0 -28 6t-45 6q-33 0 -62.5 -13.5t-51.5 -47.5t-34.5 -92t-12.5 -146 v-521h248v604q0 108 24.5 188t67 137.5t99 94.5t121 58.5t133 29.5t134.5 8q53 0 111 -7t112.5 -18.5t103 -26.5t83.5 -31q14 31 46.5 46.5t96.5 15.5h438q46 0 74 -8.5t44 -25.5t21.5 -43t5.5 -61v-1363q0 -34 -6 -59.5t-22 -43t-44.5 -26t-74.5 -8.5h-436q-48 0 -78 9 t-47 26t-23 43t-6 61v1315q-17 5 -39 5q-45 0 -82 -13.5t-63.5 -47.5t-41 -92t-14.5 -146v-621h160q21 0 21 -21v-80q0 -22 -21 -22h-160v-276q0 -36 -5 -62.5t-21 -43.5t-45.5 -25.5t-78.5 -8.5h-434q-48 0 -78 9t-47 26t-23 43t-6 61v277h-248v-276q0 -36 -5 -62.5 t-21 -43.5t-45.5 -25.5t-78.5 -8.5h-434q-48 0 -78 9t-47 26t-23 43t-6 61v277h-83q-21 0 -21 22zM710 84q24 0 39 1.5t24 8t12 19t3 35.5v952q0 88 15 143.5t38 89t52 50t56 26.5q-36 1 -78 -14.5t-78 -51.5t-59.5 -95.5t-23.5 -147.5v-1016zM1696 84q24 0 39 1.5t24 8 t12 19t3 35.5v1052q0 88 15 143.5t38 89t52 50t56 26.5q-36 1 -78 -14.5t-78 -51.5t-59.5 -95.5t-23.5 -147.5v-1116zM2673 84q24 0 39 1.5t24 8t12 19t3 35.5v1342q0 22 -3 35t-12 19.5t-24 8t-39 1.5v-1470z" />
<glyph horiz-adv-x="2048" />
<glyph horiz-adv-x="2048" />
<glyph unicode="&#xd;" horiz-adv-x="2048" />
<glyph unicode=" "  horiz-adv-x="614" />
<glyph unicode="&#x09;" horiz-adv-x="614" />
<glyph unicode="&#xa0;" horiz-adv-x="614" />
<glyph unicode="!" horiz-adv-x="911" d="M123 1135q0 69 26 129.5t71.5 106t106.5 71.5t130 26q68 0 128.5 -26t105.5 -71.5t71 -106t26 -129.5q0 -45 -16 -87t-40.5 -81.5t-54 -78t-56 -76t-46.5 -76t-26 -77.5q-3 -21 -1.5 -44.5t-3 -43t-19.5 -32.5t-50 -13h-39q-35 0 -50 13t-19 32.5t-3 43t-2 44.5 q-6 39 -26 77.5t-46.5 76t-56 76t-54 78t-40.5 81.5t-16 87zM226 211q0 48 18.5 90t50 73.5t73.5 49.5t90 18t90 -18t73.5 -49.5t49.5 -73.5t18 -90t-18 -90t-49.5 -73.5t-73.5 -49.5t-90 -18t-90 18t-73.5 49.5t-50 73.5t-18.5 90zM475 65q27 3 51 15.5t41 32t27 45 t10 53.5t-10 53.5t-27 45t-41 32t-51 15.5q24 -30 38 -67t14 -79q0 -41 -14 -78.5t-38 -67.5zM477 689q7 43 26.5 80.5t45 73t52.5 69.5t50 69.5t37.5 73t14.5 80.5q0 49 -15 91.5t-42 76t-64 57t-81 36.5q55 -46 87.5 -114.5t32.5 -146.5q0 -45 -10 -81.5t-25 -69 t-32.5 -63.5t-33.5 -65.5t-28 -75t-15 -91.5z" />
<glyph unicode="&#x22;" horiz-adv-x="709" d="M123 907v482q0 17 4 26.5t11 14t16 5.5t18 1h84q26 0 33.5 -15t7.5 -32v-482q0 -17 -7.5 -32t-33.5 -15h-84q-9 0 -18 1t-16 5.5t-11 14t-4 26.5zM412 907v482q0 17 4 26.5t11 14t16 5.5t18 1h84q26 0 33.5 -15t7.5 -32v-482q0 -17 -7.5 -32t-33.5 -15h-84q-9 0 -18 1 t-16 5.5t-11 14t-4 26.5z" />
<glyph unicode="#" horiz-adv-x="952" d="M81 506v141q0 21 23 21h116l38 225h-97q-21 0 -21 22v141q0 21 23 21h126l53 312q3 17 8.5 26.5t13 14t16 5.5t17.5 1h31q20 0 28.5 -8.5t8.5 -22.5v-4.5t-2 -11.5l-53 -312h227l53 312q3 17 8.5 26.5t13 14t16 5.5t17.5 1h31q20 0 28.5 -8.5t8.5 -22.5v-5t-2 -11 l-53 -312h91q21 0 21 -21v-141q0 -22 -21 -22h-122l-38 -225h101q21 0 21 -21v-141q0 -22 -21 -22h-132l-52 -312q-3 -17 -13 -32t-36 -15h-31q-17 0 -30 4.5t-13 26.5q0 7 1 10q0 3 1 6l52 312h-227l-52 -312q-3 -17 -13 -32t-36 -15h-31q-17 0 -30 4.5t-13 26.5q0 7 1 10 q0 3 1 6l52 312h-87q-21 0 -21 22zM341 668h227l38 225h-227z" />
<glyph unicode="$" horiz-adv-x="944" d="M61 139v84q0 7 3.5 9t7.5 2t11.5 -1t12.5 -1q55 0 92 43t37 128q0 56 -10.5 95t-27 70t-35 59t-35 61t-27 76.5t-10.5 105.5q0 77 24.5 139.5t67 111.5t99.5 85t122 60v223q0 17 4 26.5t10.5 14t15 5.5t17.5 1h71q26 0 35 -12.5t9 -34.5v-182q75 12 150 12q38 0 70 -2 t50 -4q9 -1 14 -4t5 -14v-83q0 -11 -6 -12.5t-10 -1.5q-64 -3 -93.5 -33.5t-29.5 -105.5q0 -27 11.5 -55.5t29 -60t38 -68.5t38 -79.5t29 -93t11.5 -110.5q0 -67 -19 -131t-57 -120.5t-95.5 -102t-135.5 -76.5v-268q0 -17 -7.5 -32.5t-33.5 -15.5h-72q-9 0 -18 1t-15.5 5.5 t-11 14.5t-4.5 27v225q-35 -5 -71.5 -7.5t-75.5 -2.5q-62 0 -108.5 4.5t-65.5 7.5q-5 1 -8 4t-3 14zM473 209q66 24 121.5 59.5t96 83.5t63.5 108t23 132q0 60 -11.5 109t-29 91t-38 78.5t-38 69.5t-29 65t-11.5 66q0 61 30 105.5t93 61.5q-50 -2 -88 -17.5t-63.5 -40 t-38.5 -57t-13 -68.5q0 -50 24.5 -101t54 -107.5t54 -119.5t24.5 -138q0 -115 -55.5 -213.5t-168.5 -166.5z" />
<glyph unicode="%" horiz-adv-x="1544" d="M61 1094q0 71 26.5 133.5t73 109t108 73t132.5 26.5q72 0 134 -26.5t108.5 -73t73 -109t26.5 -133.5t-26.5 -133t-73 -108t-108.5 -72.5t-134 -26.5q-71 0 -132.5 26.5t-108 72.5t-73 108t-26.5 133zM262 55q0 13 12 31l865 1341q11 16 19 21.5t16 5.5q9 0 16.5 -3 t15.5 -9l45 -33q12 -9 17.5 -16t5.5 -17q0 -6 -2.5 -12t-7.5 -14l-867 -1344q-5 -8 -14.5 -16t-22.5 -8q-6 0 -11 2t-11 6l-47 30q-11 7 -20 15t-9 20zM275 1094q0 -46 12.5 -83t36 -63t56 -40t71.5 -14q-21 4 -39.5 18.5t-33 39.5t-23 60.5t-8.5 81.5q0 47 8.5 83t23 61 t33 39.5t39.5 18.5q-39 0 -71.5 -14t-56 -40t-36 -63.5t-12.5 -84.5zM424 1094q0 -46 8.5 -78.5t23 -52.5t33 -29.5t39.5 -9.5t40 9.5t33.5 29.5t23 52.5t8.5 78.5q0 47 -8.5 79.5t-23 53t-33.5 30t-40 9.5t-39.5 -9.5t-33 -30t-23 -53t-8.5 -79.5zM801 340q0 71 23.5 133.5 t65.5 109t100.5 73t129.5 26.5q72 0 137.5 -26.5t115.5 -73t80 -109t30 -133.5t-26.5 -132.5t-73 -108t-109 -73t-133.5 -26.5t-133 26.5t-108 73t-72.5 108t-26.5 132.5zM1014 339q0 -46 12.5 -83t36 -63t56 -40t71.5 -14q-21 4 -39.5 18.5t-33 39.5t-23 60.5t-8.5 81.5 q0 47 8.5 83t23 61t33 39.5t39.5 18.5q-39 0 -71.5 -14t-56 -40t-36 -63.5t-12.5 -84.5zM1163 340q0 -46 8.5 -78.5t23 -52.5t33.5 -29.5t40 -9.5t39.5 9.5t33 29.5t23 52.5t8.5 78.5q0 47 -8.5 79.5t-23 53t-33 30t-39.5 9.5t-40 -9.5t-33.5 -30t-23 -53t-8.5 -79.5z" />
<glyph unicode="&#x26;" horiz-adv-x="1480" d="M60 989q0 92 42 174.5t123.5 145t201 99t274.5 36.5q85 0 164.5 -11t155.5 -36t148 -66t142 -101l4.5 -4.5t2.5 -7.5q0 -3 -3 -9l-62 -101q-5 -6 -9 -6q-5 0 -8 3q-23 21 -64.5 52t-97 60t-122 50t-139.5 21q-30 0 -39 -10.5t-9 -28.5v-560q0 -16 10 -29t33 -13h589 q10 0 16.5 -6t6.5 -17v-93q0 -23 -23 -23h-93q-11 -149 -55 -249t-119 -161t-179.5 -86.5t-235.5 -25.5q-120 0 -222.5 19.5t-176.5 59.5t-116 101t-42 143q0 60 21.5 107.5t59 82t88 56t108.5 29.5q-77 15 -145 46.5t-119 81t-81 118.5t-30 159zM602 142q9 -2 20.5 -3.5 t22.5 -2.5t20.5 -2t14.5 -1v1155q-3 0 -11.5 -1t-19.5 -2.5t-23 -4t-24 -7.5v-1131zM762 180q0 -18 7.5 -28t18 -14t22.5 -4.5t20 -0.5q76 0 132 24.5t94 72t59.5 117.5t28.5 161h-338q-29 0 -36.5 -13t-7.5 -32v-283z" />
<glyph unicode="'" horiz-adv-x="420" d="M123 907v482q0 17 4 26.5t11 14t16 5.5t18 1h84q26 0 33.5 -15t7.5 -32v-482q0 -17 -7.5 -32t-33.5 -15h-84q-9 0 -18 1t-16 5.5t-11 14t-4 26.5z" />
<glyph unicode="(" horiz-adv-x="862" d="M102 614q0 144 23.5 266t64 223.5t93.5 184t111.5 147t120 112t117.5 79.5q8 5 18 8.5t20 3.5q11 0 19.5 -7.5t8.5 -28.5v-1977q0 -20 -8.5 -27.5t-19.5 -7.5q-10 0 -20 3.5t-18 8.5q-56 32 -117.5 79.5t-120 112t-111.5 147t-93.5 184t-64 223.5t-23.5 266zM535 -237 q9 -7 20 -15.5t22 -16.5t20.5 -14.5t15.5 -10.5v1821q-17 -11 -27 -18t-17.5 -12.5t-15 -11.5t-18.5 -14v-1708z" />
<glyph unicode=")" horiz-adv-x="862" d="M164 -375v1977q0 21 8.5 28.5t19.5 7.5q10 0 20 -3.5t18 -8.5q56 -32 117.5 -79.5t120 -112t111.5 -147t93.5 -184t64 -223.5t23.5 -266t-23.5 -266t-64 -223.5t-93.5 -184t-111.5 -147t-120 -112t-117.5 -79.5q-8 -5 -18 -8.5t-20 -3.5q-11 0 -19.5 7.5t-8.5 27.5z M315 -241q69 57 133.5 136.5t115 184.5t81 237.5t30.5 296.5t-30.5 295t-80.5 234t-115 181t-134 135q49 -72 98.5 -160.5t89.5 -194t64.5 -228.5t24.5 -262q0 -140 -24.5 -264t-64.5 -231.5t-89.5 -197.5t-98.5 -162z" />
<glyph unicode="*" horiz-adv-x="765" d="M40 1185q0 8 4 15l43 92q10 21 27 21q9 0 17 -4l181 -100l-12 194q-3 33 34 33h102q34 0 31 -33l-13 -194l181 100q8 4 17 4q16 0 27 -21l43 -92q2 -4 2.5 -8t0.5 -7q0 -17 -20 -26l-199 -77l134 -166q8 -9 8 -20q0 -15 -17 -27l-84 -59q-12 -7 -19 -7q-15 2 -25 17 l-120 198l-120 -198q-10 -15 -25 -17q-9 0 -19 7l-84 59q-18 13 -17 27q0 10 7 20l134 166l-198 77q-21 9 -21 26z" />
<glyph unicode="+" d="M130 438v171q0 21 21 21h254v254q0 21 21 21h171q22 0 22 -21v-254h254q21 0 21 -21v-171q0 -22 -21 -22h-254v-254q0 -21 -22 -21h-171q-21 0 -21 21v254h-254q-21 0 -21 22z" />
<glyph unicode="," horiz-adv-x="668" d="M102 211q0 48 18.5 90t50 73.5t73.5 49.5t90 18t90 -18t73.5 -49.5t49.5 -73.5t18 -90q0 -31 -9 -63.5t-20 -58.5l-130 -308q-6 -13 -10 -22.5t-9.5 -15.5t-14 -8.5t-22.5 -2.5h-121q-29 0 -29 19q0 11 7 25l93 207q-42 6 -78 26t-62.5 50.5t-42 69t-15.5 82.5zM351 65 q27 3 51 15.5t41 32t27 45t10 53.5t-10 53.5t-27 45t-41 32t-51 15.5q24 -30 38 -67t14 -79q0 -41 -14 -78.5t-38 -67.5z" />
<glyph unicode="-" horiz-adv-x="800" d="M100 358v240q0 21 21 21h558q21 0 21 -21v-240q0 -22 -21 -22h-558q-21 0 -21 22z" />
<glyph unicode="." horiz-adv-x="668" d="M102 211q0 48 18.5 90t50 73.5t73.5 49.5t90 18t90 -18t73.5 -49.5t49.5 -73.5t18 -90t-18 -90t-49.5 -73.5t-73.5 -49.5t-90 -18t-90 18t-73.5 49.5t-50 73.5t-18.5 90zM351 65q27 3 51 15.5t41 32t27 45t10 53.5t-10 53.5t-27 45t-41 32t-51 15.5q24 -30 38 -67t14 -79 q0 -41 -14 -78.5t-38 -67.5z" />
<glyph unicode="/" horiz-adv-x="644" d="M50 12q0 5 1 10.5t3 12.5l385 1410q7 25 16 31.5t22 6.5q11 0 22 -4l62 -17q17 -5 25 -12t8 -21q0 -9 -3 -19l-386 -1413q-3 -11 -11.5 -23.5t-24.5 -12.5q-5 0 -15 2l-64 14q-15 4 -27.5 11t-12.5 24z" />
<glyph unicode="0" horiz-adv-x="1220" d="M61 510q0 114 43 214t117.5 174.5t174.5 117.5t214 43t214 -43t174.5 -117.5t117.5 -174.5t43 -214t-43 -214t-117.5 -174.5t-174.5 -117.5t-214 -43t-214 43t-174.5 117.5t-117.5 174.5t-43 214zM515 510q0 -75 19.5 -134.5t53.5 -101.5t79.5 -64.5t97.5 -22.5 q-33 5 -63.5 28t-53.5 63.5t-37 98.5t-14 133t14 132.5t37 98t53.5 63.5t63.5 28q-52 0 -97.5 -22.5t-79.5 -64t-53.5 -101t-19.5 -134.5zM682 510q0 -75 14 -127.5t37 -85.5t53.5 -48.5t63.5 -15.5t63.5 15.5t53.5 48.5t37 85.5t14 127.5t-14 127.5t-37 85.5t-53.5 48 t-63.5 15t-63.5 -15t-53.5 -48t-37 -85.5t-14 -127.5z" />
<glyph unicode="1" horiz-adv-x="1010" d="M0 907v4q0 17 6.5 27t35.5 15l684 99q16 2 38 4.5t29 2.5q44 0 67 -18t33 -43.5t11 -54.5t1 -50v-755q0 -23 -1.5 -47t-14.5 -44.5t-44 -33.5t-89 -13h-414q-43 0 -70.5 9t-43 26t-21.5 43t-6 61v707l-134 -46q-3 -1 -8.5 -2.5t-11.5 -1.5q-14 0 -24.5 6.5t-12.5 21.5 l-8 68q-1 5 -1 9q-1 3 -1 6zM742 84q24 0 39 1.5t24 8t12 19t3 35.5v781q0 23 -6.5 35t-28.5 12q-8 0 -18.5 -2t-24.5 -4v-886z" />
<glyph unicode="2" horiz-adv-x="1044" d="M15 912q0 5 2.5 8t4.5 5q39 31 91.5 56t114 42t129 26.5t137.5 9.5q91 0 161.5 -15t122.5 -41.5t88 -62.5t58 -76.5t31.5 -84.5t9.5 -87q0 -68 -25.5 -139t-80 -142t-140.5 -141t-207 -136q76 4 155 7t146 5.5t114.5 4t60.5 1.5q31 0 43.5 -9.5t12.5 -34.5v-68 q0 -6 -1.5 -13t-6.5 -13t-15 -10t-27 -4h-908q-19 0 -28.5 5t-9.5 21q0 11 7.5 23.5t18.5 26.5q45 59 83 128.5t66 141.5t44 142t16 130q0 69 -9 115t-25 74.5t-39 40.5t-50 12q-12 0 -25.5 -5t-25.5 -10.5t-21.5 -10.5t-14.5 -5q-9 0 -12 7l-43 67q-3 4 -3 9zM427 174 q121 66 207 129.5t140.5 127.5t80 128.5t25.5 132.5q0 45 -10.5 86t-35 76t-64.5 62.5t-98 46.5q35 -27 59 -59t39 -67.5t21.5 -72t6.5 -72.5q0 -119 -93 -248.5t-278 -269.5z" />
<glyph unicode="3" horiz-adv-x="981" d="M24 -314q0 2 2 8l26 78q3 9 6.5 11t8.5 2q3 0 16 -5t32 -10.5t43 -10.5t51 -5q45 0 83 20t65 58t42 91.5t15 121.5q0 124 -27.5 187t-87.5 63q-23 0 -38.5 -10t-27.5 -10q-8 0 -13 6l-34 35q-6 6 -6 13t7 16l288 321h-334q-24 0 -37.5 5.5t-20 14.5t-8 20t-1.5 21v248 q0 18 15.5 33.5t49.5 15.5h711q36 0 53 -18t17 -42q0 -36 -29 -67l-395 -420q95 -1 179.5 -28t148 -80t100.5 -132t37 -184q0 -101 -44 -184t-120.5 -142.5t-180 -92.5t-223.5 -33q-41 0 -85.5 4t-90 12.5t-91.5 21t-88 29.5q-5 2 -9.5 6.5t-4.5 11.5zM605 -294 q61 21 111.5 53.5t85.5 75.5t54.5 97.5t19.5 120.5q0 72 -17.5 127t-49.5 95.5t-76.5 67.5t-98.5 44q74 -53 117 -136t43 -198q0 -110 -49.5 -198.5t-139.5 -148.5z" />
<glyph unicode="4" horiz-adv-x="1149" d="M31 87q0 22 8 52l184 746q9 34 19.5 60.5t29.5 43.5t49 26t78 9h283q39 0 64.5 -8t39.5 -21.5t19.5 -30.5t5.5 -36q0 -18 -3 -36t-7 -34l-165 -715h161v286q0 17 7.5 30.5t33.5 13.5h108q26 0 35.5 -10.5t9.5 -33.5v-286h137q21 0 21 -21v-100q0 -22 -21 -22h-137v-322 q0 -23 -10 -35t-39 -12h-104q-26 0 -33.5 15t-7.5 32v322h-629q-75 0 -106 21.5t-31 65.5zM469 143h79l172 745q5 21 -2.5 36.5t-29.5 15.5h-35z" />
<glyph unicode="5" horiz-adv-x="1012" d="M6 -306l27 89q3 10 6.5 15.5t13.5 5.5q7 0 18.5 -5.5t28 -12t38 -12t48.5 -5.5q39 0 76 21t66 59.5t47 93.5t18 123q0 61 -9 110t-25 83t-39.5 52t-51.5 18q-14 0 -28 -4t-34 -22q-6 -5 -12 -9.5t-17 -4.5h-76q-11 0 -15 6t-2 14l104 673q1 7 3 14.5t7.5 13.5t16 10 t29.5 4h573q66 0 66 -51v-246q0 -31 -19 -46t-47 -15h-545l-35 -195q19 7 43.5 15t56 15t70 12t85.5 5q103 0 192.5 -30t155.5 -87t103.5 -139.5t37.5 -187.5q0 -117 -44 -206t-122.5 -148t-186.5 -89t-235 -30q-90 0 -189 15t-187 52q-4 2 -10 7t-1 19zM613 -303 q65 20 117.5 52t89 78t56.5 107.5t20 139.5q0 72 -18 129.5t-51.5 100.5t-80.5 73.5t-105 48.5q81 -57 126.5 -145.5t45.5 -206.5q0 -130 -53 -224t-147 -153zM737 740h42q14 0 21.5 8t7.5 21v153q0 14 -8 21t-21 7h-42v-210z" />
<glyph unicode="6" horiz-adv-x="1200" d="M61 500q0 102 26 198t72.5 185.5t111.5 171t142.5 153t166 132t182.5 108.5q5 2 10.5 5t12.5 3q14 0 26 -19l58 -94q5 -9 5 -17q0 -11 -8 -17t-16 -10q-36 -20 -83 -49.5t-98 -69.5t-104.5 -90.5t-103.5 -110.5q29 9 58 13.5t69 4.5q122 0 223.5 -40.5t174 -111 t113 -164.5t40.5 -202q0 -114 -40.5 -209t-112 -163.5t-170.5 -107t-216 -38.5q-112 0 -210.5 40t-171.5 111t-115 170t-42 218zM495 489q0 -78 21 -136t55.5 -97t79.5 -58t93 -19q-33 4 -63 25t-53.5 59.5t-37 95t-13.5 130.5q0 75 13.5 132.5t37 97t53.5 61.5t63 26 q-48 0 -93 -20t-79.5 -60t-55.5 -99.5t-21 -137.5zM662 489q0 -74 13.5 -125.5t37 -83.5t53.5 -46.5t63 -14.5t63.5 14.5t54 46.5t37 83.5t13.5 125.5q0 75 -13.5 127.5t-37 85.5t-54 48.5t-63.5 15.5t-63 -15.5t-53.5 -48.5t-37 -85.5t-13.5 -127.5z" />
<glyph unicode="7" horiz-adv-x="1030" d="M0 888.5v20.5v66q0 9 2.5 18t8.5 15.5t17 11t28 4.5h857q45 0 64 -20.5t19 -54.5q0 -12 -3 -28.5t-8 -33.5l-274 -1056q-15 -58 -47 -83.5t-77 -25.5h-398q-41 -1 -65 23.5t-24 64.5q0 9 1.5 18t3.5 19l262 1016l-309 -15q-24 0 -36 6t-17 15t-5 19.5zM537 -194h39 q19 0 32 12t18 29l271 1041q2 7 3 13.5t1 13.5q0 11 -6 18t-23 7h-40z" />
<glyph unicode="8" horiz-adv-x="1182" d="M61 352q0 71 19 126.5t52.5 99.5t80 77.5t100.5 59.5q-35 29 -69.5 66.5t-63 81.5t-46 93t-17.5 101q0 95 33.5 170.5t95 128t149 80.5t195.5 28q91 0 177.5 -20.5t153.5 -66t107.5 -117.5t40.5 -175q0 -85 -43 -159t-127 -131q53 -42 94 -84.5t69.5 -89t43 -98.5 t14.5 -113q0 -89 -34.5 -170t-105.5 -142.5t-178.5 -98t-254.5 -36.5q-89 0 -176 21.5t-156 68t-111.5 120.5t-42.5 179zM203 360q0 -60 20.5 -106t53 -77.5t74 -47.5t83.5 -16q48 0 82.5 17t56 43.5t31.5 59t10 64.5q0 49 -13 90.5t-39.5 79.5t-66 75.5t-92.5 78.5 q-97 -31 -148.5 -101t-51.5 -160zM434 1160q0 -63 22.5 -115t59 -97.5t83.5 -86.5t95.5 -81.5t95.5 -81.5t83.5 -88t59 -100.5t22.5 -118.5q0 -114 -46 -192t-146 -136q139 48 205.5 135t66.5 212q0 65 -22.5 120t-59 103t-83.5 90.5t-95.5 83.5t-95.5 81t-83.5 83t-59 90 t-22.5 102q0 51 13 88.5t33.5 62.5t46.5 39t53 20q-56 -2 -98 -19t-70.5 -45.5t-43 -66.5t-14.5 -82zM598 1176q0 -42 18.5 -83.5t49 -79.5t69.5 -72.5t79 -63.5q25 16 46 39t36 50t23.5 57t8.5 62q0 52 -16 95.5t-42.5 75t-61.5 49.5t-73 18q-29 0 -53.5 -8.5t-43.5 -26 t-29.5 -45.5t-10.5 -67z" />
<glyph unicode="9" horiz-adv-x="1200" d="M61 541q0 107 42 201.5t115 165t171.5 111t210.5 40.5t210.5 -36.5t171.5 -104t115 -163.5t42 -214q0 -153 -56.5 -293t-152.5 -261t-223 -220.5t-269 -171.5q-4 -2 -8.5 -4t-9.5 -2q-8 0 -12.5 3.5t-11.5 13.5l-68 99q-5 7 -5 13q0 8 5 11.5t10 5.5q36 18 82 44t97 62.5 t105.5 85.5t106.5 112q-29 -9 -57 -12.5t-60 -3.5q-122 0 -223.5 40t-174 110t-113 164.5t-40.5 203.5zM495 541q0 -78 21 -138.5t55.5 -101.5t79.5 -62t93 -21q-33 4 -63 27.5t-53.5 64t-37 98.5t-13.5 133q0 74 13.5 132t37 98.5t53.5 63.5t63 28q-48 0 -93 -21t-79.5 -62 t-55.5 -101t-21 -138zM662 541q0 -75 13.5 -127.5t37 -85.5t53.5 -48.5t63 -15.5t63.5 15.5t54 48.5t37 85.5t13.5 127.5q0 74 -13.5 126.5t-37 85.5t-54 48.5t-63.5 15.5t-63 -15.5t-53.5 -48.5t-37 -85.5t-13.5 -126.5z" />
<glyph unicode=":" horiz-adv-x="729" d="M133 211q0 48 18.5 90t50 73.5t73.5 49.5t90 18t90 -18t73.5 -49.5t49.5 -73.5t18 -90t-18 -90t-49.5 -73.5t-73.5 -49.5t-90 -18t-90 18t-73.5 49.5t-50 73.5t-18.5 90zM133 813q0 48 18.5 90t50 73.5t73.5 49.5t90 18t90 -18t73.5 -49.5t49.5 -73.5t18 -90t-18 -90 t-49.5 -73.5t-73.5 -49.5t-90 -18t-90 18t-73.5 49.5t-50 73.5t-18.5 90zM382 65q27 3 51 15.5t41 32t27 45t10 53.5t-10 53.5t-27 45t-41 32t-51 15.5q24 -30 38 -67t14 -79q0 -41 -14 -78.5t-38 -67.5zM382 667q27 3 51 15.5t41 32t27 45t10 53.5t-10 53.5t-27 45t-41 32 t-51 15.5q24 -30 38 -67t14 -79q0 -41 -14 -78.5t-38 -67.5z" />
<glyph unicode=";" horiz-adv-x="729" d="M132 211q0 48 18.5 90t50 73.5t73.5 49.5t90 18t90 -18t73.5 -49.5t49.5 -73.5t18 -90q0 -31 -9 -63.5t-20 -58.5l-130 -308q-6 -13 -10 -22.5t-9.5 -15.5t-14 -8.5t-22.5 -2.5h-121q-29 0 -29 19q0 11 7 25l93 207q-42 6 -78 26t-62.5 50.5t-42 69t-15.5 82.5zM133 813 q0 48 18.5 90t50 73.5t73.5 49.5t90 18t90 -18t73.5 -49.5t49.5 -73.5t18 -90t-18 -90t-49.5 -73.5t-73.5 -49.5t-90 -18t-90 18t-73.5 49.5t-50 73.5t-18.5 90zM381 65q27 3 51 15.5t41 32t27 45t10 53.5t-10 53.5t-27 45t-41 32t-51 15.5q24 -30 38 -67t14 -79 q0 -41 -14 -78.5t-38 -67.5zM382 667q27 3 51 15.5t41 32t27 45t10 53.5t-10 53.5t-27 45t-41 32t-51 15.5q24 -30 38 -67t14 -79q0 -41 -14 -78.5t-38 -67.5z" />
<glyph unicode="&#x3c;" d="M133 482v82q0 11 3.5 19.5t13.5 14.5l611 375q5 4 12 4q8 0 16 -12l86 -148q4 -7 4 -13q0 -10 -11 -16l-432 -265l432 -265q11 -6 11 -16q0 -6 -4 -13l-86 -148q-8 -12 -16 -12q-7 0 -12 4l-611 375q-10 6 -13.5 14.5t-3.5 19.5z" />
<glyph unicode="=" d="M150 238v171q0 21 21 21h682q21 0 21 -21v-171q0 -22 -21 -22h-682q-21 0 -21 22zM150 638v171q0 21 21 21h682q21 0 21 -21v-171q0 -22 -21 -22h-682q-21 0 -21 22z" />
<glyph unicode="&#x3e;" d="M145 242q0 10 11 16l432 265l-432 265q-11 6 -11 16q0 6 4 13l86 148q6 12 16 12q5 0 12 -4l611 -375q10 -6 13.5 -14.5t3.5 -19.5v-82q0 -11 -3.5 -19.5t-13.5 -14.5l-611 -375q-7 -4 -12 -4q-10 0 -16 12l-86 148q-4 7 -4 13z" />
<glyph unicode="?" horiz-adv-x="1077" d="M67 1359q0 6 4.5 10t7.5 6q72 48 180 76t245 28q136 0 230 -33t152 -86t83.5 -118.5t25.5 -129.5q0 -39 -6 -82.5t-24.5 -86t-54.5 -83t-95.5 -73.5t-147 -57t-210.5 -34v-123q0 -17 -7.5 -32t-33.5 -15h-90q-7 0 -14.5 1t-14 5.5t-10.5 14t-4 26.5v237q0 9 4 11t6 4 q52 25 86.5 61.5t54.5 77t28.5 80.5t8.5 72q0 96 -50 148.5t-142 52.5q-42 0 -79.5 -12.5t-58.5 -23.5q-5 -2 -8.5 -4t-7.5 -2q-8 0 -14 10l-40 62q-4 7 -4 12zM139 211q0 48 18.5 90t50 73.5t73.5 49.5t90 18t90 -18t73.5 -49.5t49.5 -73.5t18 -90t-18 -90t-49.5 -73.5 t-73.5 -49.5t-90 -18t-90 18t-73.5 49.5t-50 73.5t-18.5 90zM388 65q27 3 51 15.5t41 32t27 45t10 53.5t-10 53.5t-27 45t-41 32t-51 15.5q24 -30 38 -67t14 -79q0 -41 -14 -78.5t-38 -67.5zM671 801q79 27 126.5 62.5t72.5 76t32.5 84.5t7.5 88q0 46 -13.5 89.5t-42.5 80.5 t-74 66.5t-109 49.5q42 -27 71.5 -61t48.5 -71t28 -76.5t9 -77.5q0 -37 -5 -78t-21.5 -81.5t-47.5 -79.5t-83 -72z" />
<glyph unicode="@" horiz-adv-x="1736" d="M100 698q0 113 29.5 215t82.5 189t127.5 157t163.5 119.5t191 76t210 26.5q162 0 297 -48.5t231.5 -139.5t150 -221t53.5 -292q0 -108 -37.5 -198.5t-102 -156.5t-150.5 -103t-183 -37h-331q-69 0 -133.5 13.5t-114 45.5t-79 86.5t-29.5 136.5q0 76 33 129t83 86.5 t110 50t114 21.5v28q0 33 -10 52.5t-24.5 29t-30.5 12.5t-28 3q-32 0 -58 -9t-46 -19.5t-34 -19.5t-22 -9t-12 2t-7 10l-23 52q-2 4 -3.5 9t-1.5 7q0 7 5 11.5t9 7.5q24 20 59.5 40t80 36.5t96 26.5t106.5 10q84 0 156.5 -13t126 -51.5t84.5 -109t31 -186.5v-334 q51 14 91.5 45.5t69 76.5t43.5 100.5t15 117.5q0 127 -39 229.5t-114 174.5t-184 110.5t-248 38.5q-131 0 -250 -47t-209 -131.5t-143.5 -201t-53.5 -255.5q0 -132 50 -243t136 -191.5t202 -125.5t247 -45q60 0 115 7t107 24q5 1 11.5 4t14 3t14.5 -4t12 -15l36 -84 q8 -19 -1.5 -25t-16.5 -10q-69 -28 -139.5 -38t-152.5 -10q-108 0 -208 25.5t-187 73.5t-158.5 115.5t-122.5 151t-79 181.5t-28 206zM616 566q0 -72 49.5 -112.5t150.5 -40.5v314q-51 0 -88.5 -12t-62 -33.5t-37 -51t-12.5 -64.5zM1000 1063q50 -39 78.5 -108.5 t28.5 -180.5v-360h78v360q0 75 -13 126.5t-37.5 85t-58.5 51.5t-76 26z" />
<glyph unicode="A" horiz-adv-x="1249" d="M10 25q0 9 3.5 21.5t9.5 29.5l418 1265q15 47 34 70t54 25h149q18 0 31 -4.5t23.5 -15.5t19.5 -29t19 -44l459 -1226q5 -14 7 -25t2 -22q0 -36 -21.5 -53t-45.5 -17h-567q-26 0 -43.5 6.5t-29.5 15.5t-18.5 19t-8.5 18l-11 35h-281l-7 -30q-3 -15 -7 -26.5t-10 -20 t-16.5 -13t-27.5 -4.5h-103q-32 0 -32 25zM244 217h216l-111 391zM595 1352l473 -1268h48q18 0 24 8q3 3 3 9q0 7 -4 18l-450 1201q-8 21 -19.5 26.5t-39.5 5.5h-35z" />
<glyph unicode="B" horiz-adv-x="1315" d="M92 139v1157q0 35 6 61t23 43.5t47 26.5t78 9h446q109 0 210 -26t179 -84t125 -150.5t47 -225.5q0 -186 -59.5 -302t-165.5 -164q74 -24 111 -75.5t37 -123.5q0 -93 -42.5 -149t-110.5 -86.5t-152.5 -40t-168.5 -9.5h-456q-48 0 -78 9t-47 26t-23 43t-6 61zM675 132 q25 0 47 0.5t31 1.5v1171q-15 2 -34 3t-44 1v-1177zM838 139q104 4 150 42t46 91q0 25 -10.5 50t-34 44.5t-61 32.5t-90.5 16v-276zM838 546q72 10 124 44.5t85 86.5t49 118t16 139q0 72 -16 132.5t-49 106.5t-85 76t-124 41v-744z" />
<glyph unicode="C" horiz-adv-x="1248" d="M61 722q0 151 28.5 265.5t77.5 199t114.5 141.5t139.5 91.5t152.5 49t153.5 14.5q82 0 156 -13t135.5 -33t109.5 -45t79 -49q3 -3 7 -6.5t4 -8.5q0 -4 -3 -10l-43 -68q-6 -9 -14 -9q-6 0 -16.5 6.5t-26.5 15t-36 15t-45 6.5q-22 0 -46.5 -7.5t-48.5 -29t-46.5 -60 t-39 -101t-26.5 -152t-10 -212.5t10 -212.5t26.5 -152t39 -101t46.5 -60t48.5 -29t46.5 -7.5q25 0 45 6.5t36 15t26.5 15t16.5 6.5q8 0 14 -9l43 -68q3 -6 3 -10q0 -5 -4 -8.5t-7 -6.5q-31 -24 -79 -49t-109.5 -45t-135.5 -33t-156 -13q-75 0 -153.5 14.5t-152.5 49 t-139.5 91.5t-114.5 141.5t-77.5 199t-28.5 265.5zM648 722q0 -124 11.5 -215t32 -156.5t48 -108.5t59 -70.5t65 -42t66.5 -22.5q-11 7 -30 19.5t-41.5 38t-45 68t-41 108.5t-30 159.5t-11.5 221.5t11.5 221.5t30 159.5t41 108.5t45 68t41.5 38t30 19.5q-33 -9 -66.5 -23 t-65 -41.5t-59 -70.5t-48 -108.5t-32 -156.5t-11.5 -215z" />
<glyph unicode="D" horiz-adv-x="1393" d="M92 139v1157q0 35 6 61t23 43.5t47 26.5t78 9h481q75 0 149 -10.5t141 -37.5t124.5 -74.5t99.5 -122.5t66 -180t24 -247q0 -167 -25.5 -288.5t-69 -206.5t-103 -137.5t-128 -82t-142 -39.5t-146.5 -10h-471q-48 0 -78 9t-47 26t-23 43t-6 61zM675 138h78v1160h-78v-1160z M838 139q93 1 160 48.5t109.5 129.5t62.5 191.5t20 234.5q0 124 -20 226t-63 174t-109.5 112t-159.5 41v-1157z" />
<glyph unicode="E" horiz-adv-x="1309" d="M92 139v1123q0 57 13 91.5t37 53t57.5 24t74.5 5.5h904q34 0 43.5 -15.5t9.5 -34.5v-71q0 -20 -10.5 -26.5t-27.5 -6.5q-10 0 -30.5 2t-47.5 5.5t-58 7.5t-62 9q-72 11 -157 25v-254h372q21 0 21 -21v-100q0 -22 -21 -22h-372v-811q97 14 178 25q34 5 68.5 9.5t63.5 8.5 t50 6t29 2q17 0 29 -6.5t12 -26.5v-92q0 -18 -9 -33.5t-43 -15.5h-972q-47 0 -76.5 9t-46.5 26t-23 43t-6 61zM675 101l78 10v1234l-78 11v-1255z" />
<glyph unicode="F" horiz-adv-x="1272" d="M92 139v1123q0 57 13 91.5t37 53t57.5 24t74.5 5.5h929q48 0 48 -50v-92q0 -20 -12 -26t-29 -6q-10 0 -31 3t-49 7.5t-60.5 11t-65.5 12.5q-77 15 -168 35v-254h372q21 0 21 -21v-100q0 -22 -21 -22h-372v-784q0 -23 -5.5 -49t-22 -48.5t-46.5 -37.5t-78 -15h-440 q-47 0 -76.5 9t-46.5 26t-23 43t-6 61zM673 84q24 0 39 1.5t24 8t12 19t3 35.5v1198l-78 16v-1278z" />
<glyph unicode="G" horiz-adv-x="1356" d="M61 764q0 142 28.5 250.5t77.5 188.5t114.5 134t139.5 86.5t152.5 46t153.5 13.5q82 0 156 -13t135.5 -33t109.5 -45t79 -49q3 -3 7 -6.5t4 -8.5q0 -4 -3 -10l-43 -68q-6 -9 -14 -9q-6 0 -16.5 6.5t-26.5 15t-36 15t-45 6.5q-22 0 -46.5 -7t-48.5 -27t-46.5 -55.5 t-39 -93.5t-26.5 -140.5t-10 -196.5q0 -113 10 -197t26.5 -144t39 -98.5t46.5 -60.5t48.5 -30.5t46.5 -8.5q30 0 56 13v383q0 16 7 31.5t33 15.5h105q9 0 18 -1t16 -5.5t11 -14t4 -26.5v-574q0 -17 -4 -26.5t-11 -14t-16 -5.5t-18 -1h-105q-13 0 -20.5 4t-12 11t-6 15.5 t-1.5 16.5v29q-32 -23 -71 -44t-85.5 -37t-100.5 -25t-116 -9q-73 0 -150 13t-149.5 46.5t-137.5 91.5t-113.5 147t-77 213.5t-28.5 291.5zM648 764q0 -115 11.5 -201.5t32 -150t48 -106t59 -70t65 -42.5t66.5 -23q-11 6 -30 19.5t-41.5 39.5t-45 68t-41 105.5t-30 152 t-11.5 208.5q0 119 11.5 206.5t30 149t41 100.5t45 63t41.5 35.5t30 18.5q-33 -8 -66.5 -21.5t-65 -39t-59 -65.5t-48 -101t-32 -146t-11.5 -200z" />
<glyph unicode="H" horiz-adv-x="1356" d="M92 139v1157q0 35 6 61t23 43.5t47 26.5t78 9h446q58 0 88.5 -17t43 -42.5t13.5 -54t1 -52.5v-602h170v721q0 17 9 32t35 15h104q9 0 17.5 -1t15 -5.5t10 -14t3.5 -26.5v-721h96q21 0 21 -21v-101q0 -22 -21 -22h-96v-477q0 -17 -3.5 -26.5t-10 -14t-15 -5.5t-17.5 -1 h-107q-26 0 -33.5 15t-7.5 32v477h-170v-362q0 -23 -4 -51t-20 -52.5t-49 -41.5t-91 -17h-428q-48 0 -78 9t-47 26t-23 43t-6 61zM675 84q24 0 39 1.5t24 8t12 19t3 35.5v1140q0 22 -3 35t-12 19.5t-24 8t-39 1.5v-1268z" />
<glyph unicode="I" horiz-adv-x="931" d="M92 139v1157q0 35 6 61t23 43.5t47 26.5t78 9h446q58 0 88.5 -17t43 -42.5t13.5 -54t1 -52.5v-1108q0 -23 -4 -51t-20 -52.5t-49 -41.5t-91 -17h-428q-48 0 -78 9t-47 26t-23 43t-6 61zM675 84q24 0 39 1.5t24 8t12 19t3 35.5v1140q0 22 -3 35t-12 19.5t-24 8t-39 1.5 v-1268z" />
<glyph unicode="J" horiz-adv-x="1106" d="M20 60v77q0 13 4 16.5t10 3.5q12 0 38.5 -9t70.5 -9q125 0 125 155v1003q0 23 3.5 47.5t18 45t43.5 33.5t81 13h446q48 0 78 -9t47 -26.5t23 -43.5t6 -61v-793q0 -120 -27 -207.5t-72.5 -147.5t-105.5 -97t-125 -57t-131.5 -26.5t-125.5 -6.5q-133 0 -229.5 17.5 t-159.5 49.5q-5 2 -11.5 8.5t-6.5 23.5zM792 142q38 32 64 69.5t42.5 83t23.5 102t7 126.5v765q0 22 -3 35t-12 19.5t-24 8t-39 1.5v-862q0 -47 -1.5 -90t-7 -85.5t-17.5 -85t-33 -87.5z" />
<glyph unicode="K" horiz-adv-x="1264" d="M92 139v1157q0 35 6 61t23 43.5t47 26.5t78 9h446q52 0 81 -13.5t43.5 -34.5t18 -46.5t3.5 -48.5v-118l250 243q14 14 25 21.5t22 7.5q10 0 17.5 -5t16.5 -14l56 -59q7 -8 11 -14.5t4 -14.5q0 -20 -24 -39l-306 -239q142 -13 207 -82t65 -198v-735q0 -17 -4.5 -26.5 t-11 -14t-15.5 -5.5t-18 -1h-84q-26 0 -33.5 15t-7.5 32v746q0 46 -8.5 76t-28.5 48.5t-52.5 27t-80.5 10.5v-793q0 -23 -4 -51t-20 -52.5t-49 -41.5t-91 -17h-428q-48 0 -78 9t-47 26t-23 43t-6 61zM675 84q24 0 39 1.5t24 8t12 19t3 35.5v1140q0 22 -3 35t-12 19.5t-24 8 t-39 1.5v-1268z" />
<glyph unicode="L" horiz-adv-x="1185" d="M92 139v1157q0 35 6 61t23 43.5t47 26.5t78 9h446q58 0 88.5 -17t43 -42.5t13.5 -54t1 -52.5v-1133q69 10 128 18q25 3 50.5 6.5t47 6.5t38.5 4.5t25 1.5q17 0 27.5 -6.5t10.5 -26.5v-92q0 -18 -15.5 -33.5t-49.5 -15.5h-856q-47 0 -76.5 9t-46.5 26t-23 43t-6 61z M675 114l78 12v1162q0 22 -3 35t-12 19.5t-24 8t-39 1.5v-1238z" />
<glyph unicode="M" horiz-adv-x="1790" d="M92 57v1272q0 19 5.5 38t19 34.5t35.5 25t54 9.5h322q39 0 67 -13.5t48 -44.5l269 -427l180 345q16 31 31 56.5t35.5 44t51 29t78.5 10.5h266q38 0 65.5 -10t45 -27t25.5 -40t8 -50v-1170q0 -31 -5 -56.5t-20.5 -44t-44 -28.5t-74.5 -10h-462q-41 0 -68 9t-43 26 t-22.5 43t-6.5 61v494l-235 -433q-15 -28 -36 -46.5t-58 -18.5q-34 0 -56.5 19t-37.5 45l-248 426q6 -135 11 -249l4 -98t4 -91t3.5 -74.5t2.5 -47.5t-0.5 -27t-7.5 -20.5t-17 -13t-30 -4.5h-110q-18 0 -33.5 11.5t-15.5 45.5zM462 1352l360 -572l41 77l-294 467 q-12 20 -26.5 24t-30.5 4h-50zM1535 84q24 0 39 1.5t24 8t12 19t3 35.5v1140q0 22 -3 35t-12 19.5t-24 8t-39 1.5v-1268z" />
<glyph unicode="N" horiz-adv-x="1380" d="M92 57v1305q0 74 82 74h338q38 0 63.5 -16t51.5 -42l487 -483q-10 119 -18 220q-4 43 -7.5 86t-6.5 80.5t-5.5 65.5t-3.5 42q-2 16 6.5 31.5t39.5 15.5h120q19 0 34 -12t15 -46v-1304q0 -74 -70 -74h-347q-33 0 -54.5 13t-38.5 30l-512 535q9 -130 18 -239q3 -47 7 -93 t7 -86t5.5 -70t3.5 -43q2 -17 -5.5 -32t-34.5 -15h-126q-18 0 -33.5 11.5t-15.5 45.5zM426 1352l688 -684v106l-556 551q-18 18 -29.5 22.5t-31.5 4.5h-71z" />
<glyph unicode="O" horiz-adv-x="1454" d="M61 723q0 152 27 268t74.5 200.5t111.5 140.5t138 89.5t154.5 47.5t160.5 14t161 -14t155 -47.5t138 -89.5t111 -140.5t74 -200.5t27 -268t-27 -268t-74 -200.5t-111 -141t-138 -90.5t-155 -48t-161 -14t-160.5 14t-154.5 48t-138 90.5t-111.5 141t-74.5 200t-27 268.5z M649 723q0 -134 26 -227.5t69.5 -152.5t99.5 -87t115 -31q-41 7 -81.5 39t-72.5 92t-52.5 151t-20.5 216t20.5 216t52.5 151t72.5 91.5t81.5 39.5q-59 -3 -115 -31t-99.5 -87t-69.5 -152.5t-26 -227.5zM817 723q0 -125 18.5 -209t49.5 -135t69.5 -72.5t79.5 -21.5t80 21.5 t69.5 72.5t49 135t18.5 209t-18.5 209t-49 135t-69.5 72.5t-80 21.5t-79.5 -21.5t-69.5 -72.5t-49.5 -135t-18.5 -209z" />
<glyph unicode="P" horiz-adv-x="1294" d="M92 139v1157q0 35 6 61t23 43.5t47 26.5t78 9h446q69 0 137 -8.5t130.5 -28.5t116 -52t93 -79.5t62 -111t22.5 -146.5q0 -123 -33.5 -207.5t-90.5 -139.5t-132.5 -84t-158.5 -42v-375q0 -23 -4 -51t-20 -52.5t-49 -41.5t-91 -17h-428q-48 0 -78 9t-47 26t-23 43t-6 61z M675 84q24 0 39 1.5t24 8t12 19t3 35.5v1155q-20 1 -41.5 1.5t-36.5 0.5v-1221zM838 670q72 11 124 40t85 72t49 97.5t16 115.5q0 60 -16 110.5t-49 88.5t-85 63t-124 34v-621z" />
<glyph unicode="Q" horiz-adv-x="1454" d="M61 723q0 152 27 268t74.5 200.5t111.5 140.5t138 89.5t154.5 47.5t160.5 14t161 -14t155 -47.5t138 -89.5t111 -140.5t74 -200.5t27 -268q0 -168 -32 -290.5t-88 -209.5l141 -201q11 -17 11 -29q0 -14 -9.5 -24.5t-21.5 -17.5l-63 -35q-7 -4 -14 -6.5t-15 -2.5 q-12 0 -23 7t-20 24l-90 165q-47 -40 -100 -67t-109.5 -43.5t-115.5 -24t-117 -7.5q-80 0 -160.5 14t-154.5 48t-138 90.5t-111.5 141t-74.5 200t-27 268.5zM649 723q0 -134 26 -227.5t69.5 -152.5t99.5 -87t115 -31q-41 7 -81.5 39t-72.5 92t-52.5 151t-20.5 216t20.5 216 t52.5 151t72.5 91.5t81.5 39.5q-59 -3 -115 -31t-99.5 -87t-69.5 -152.5t-26 -227.5zM817 723q0 -125 18.5 -209t49.5 -135t69.5 -72.5t79.5 -21.5q19 0 35 4l-49 91q-7 13 -5 24.5t16 19.5l47 25q24 15 44 -12l51 -73q34 49 56 136.5t22 222.5q0 125 -18.5 209t-49 135 t-69.5 72.5t-80 21.5t-79.5 -21.5t-69.5 -72.5t-49.5 -135t-18.5 -209z" />
<glyph unicode="R" horiz-adv-x="1322" d="M92 139v1157q0 35 6 61t23 43.5t47 26.5t78 9h446q72 0 141.5 -12t132 -38.5t115 -70.5t91 -108.5t60 -150.5t21.5 -198q0 -96 -12 -174t-33 -141t-50.5 -111.5t-65.5 -85.5l200 -264q10 -14 10 -27q0 -15 -10.5 -26t-22.5 -18l-60 -35q-7 -4 -14.5 -6.5t-15.5 -2.5 q-11 0 -22 7t-20 24l-140 274q-38 -21 -77.5 -35t-81.5 -23v-75q0 -32 -7 -57.5t-24.5 -43.5t-46 -28t-71.5 -10h-443q-48 0 -78 9t-47 26t-23 43t-6 61zM675 84q24 0 39 1.5t24 8t12 19t3 35.5v1155q-20 1 -41.5 1.5t-36.5 0.5v-1221zM838 345q72 16 124 58.5t85 106.5 t49 147.5t16 182.5q0 90 -16 166t-49 134t-85 96t-124 52v-943z" />
<glyph unicode="S" horiz-adv-x="1293" d="M6 36q0 1 2 11l17 76q2 7 5.5 8.5t6.5 1.5q44 0 81.5 13t65.5 43t46.5 78t25.5 118l70 707q11 109 59 182t119 116.5t158 61.5t176 18q73 0 143 -6t129 -14t102 -16t63 -12q12 -3 12 -11q0 -2 -2 -12l-15 -72q-2 -7 -5.5 -8.5t-6.5 -1.5q-44 0 -76 -15t-53 -42t-32 -64 t-15 -80l-60 -727q-8 -88 -45 -166t-103 -136t-162 -92t-220 -34q-83 0 -160 8t-140 19t-108.5 21.5t-65.5 15.5q-12 3 -12 11zM635 56q76 18 131.5 53.5t92 81.5t56 97.5t23.5 100.5l60 727q3 40 12.5 76t26 65t42 49.5t60.5 28.5q-71 -3 -113.5 -24t-65.5 -52.5 t-31.5 -69.5t-11.5 -73l-61 -727q-4 -46 -20.5 -93.5t-45 -91t-67.5 -82t-88 -66.5z" />
<glyph unicode="T" horiz-adv-x="1413" d="M20 1274v112q0 19 16 34.5t50 15.5h1241q34 0 50 -15.5t16 -34.5v-112q0 -20 -11.5 -26.5t-28.5 -6.5q-9 0 -25 2t-37 5.5t-44.5 7.5t-47.5 9q-55 11 -120 25v-1153q0 -34 -6 -59.5t-22.5 -43t-45.5 -26t-74 -8.5h-446q-47 0 -76.5 9t-46 26t-22.5 43t-6 61v1151 q-65 -14 -120 -25q-24 -5 -47.5 -9t-44.5 -7.5t-37.5 -5.5t-24.5 -2q-17 0 -28.5 6.5t-11.5 26.5zM916 84q24 0 39 1.5t24 8t12 19t3 35.5v1163l-78 17v-1244z" />
<glyph unicode="U" horiz-adv-x="1294" d="M92 517v779q0 35 6 61t23 43.5t47 26.5t78 9h446q58 0 88.5 -17t43 -42.5t13.5 -54t1 -52.5v-1121q90 18 130 83t40 193v964q0 17 7.5 32t33.5 15h104q9 0 18 -1t16 -5.5t11 -14t4 -26.5v-872q0 -114 -22 -199.5t-61 -147.5t-92 -102t-115.5 -64t-132 -33.5t-140.5 -9.5 q-68 0 -135.5 8.5t-128 30.5t-112.5 61t-90 101t-59.5 149t-21.5 206zM675 138h78v1150q0 22 -3 35t-12 19.5t-24 8t-39 1.5v-1214z" />
<glyph unicode="V" horiz-adv-x="1229" d="M0 1366q0 35 22 52.5t46 17.5h567q25 0 42.5 -5.5t29.5 -16t20 -25t13 -31.5l151 -531l138 527q4 18 8 33t10.5 26t17 17t28.5 6h101q15 0 24 -6t9 -20q0 -19 -10 -50l-418 -1266q-15 -46 -35.5 -70t-63.5 -24h-139q-23 0 -38 9t-25.5 22.5t-17 29.5t-11.5 31l-459 1227 q-10 26 -10 47zM575 1352l236 -830l39 147l-186 652q-5 17 -16 24t-28 7h-45z" />
<glyph unicode="W" horiz-adv-x="1884" d="M0 1368q0 35 20 51.5t49 16.5h423q25 0 43 -6.5t30 -15.5t18 -19.5t9 -18.5l213 -647l66 253l-103 337q-5 14 -7.5 27t-2.5 24q0 35 19 50.5t48 15.5h424q25 0 42.5 -4t28.5 -11.5t18 -19t12 -25.5l174 -647l162 625q4 18 8 33t10 26t16 17t27 6h99q36 0 36 -26 q0 -19 -10 -50l-397 -1266q-14 -47 -37 -70.5t-59 -23.5h-142q-22 0 -37.5 9t-26 22.5t-17.5 29.5t-11 31l-181 589l-165 -587q-13 -47 -34.5 -70.5t-56.5 -23.5h-167q-23 0 -38 9t-25.5 22.5t-17 30t-11.5 30.5l-439 1227q-10 26 -10 49zM440 1352l294 -897l35 138 l-237 726q-8 23 -21 28t-26 5h-45zM1203 1352l245 -919l38 149l-196 733q-6 23 -15 30t-26 7h-46z" />
<glyph unicode="X" horiz-adv-x="1368" d="M21 30q0 18 16 46l312 558l-310 685q-12 27 -12 48q0 35 22.5 52t46.5 17h568q25 0 42.5 -6.5t29 -15.5t18 -19.5t10.5 -18.5l124 -274l130 252q9 16 17 31t18.5 26.5t24.5 18t34 6.5h115q16 0 25.5 -7.5t9.5 -22.5q0 -17 -17 -46l-262 -469l352 -774q12 -27 12 -48 q0 -17 -6.5 -30t-16.5 -21.5t-22 -13t-24 -4.5h-567q-26 0 -43 6.5t-28.5 15.5t-18.5 19t-11 18l-167 368l-179 -345q-9 -17 -17 -31.5t-18.5 -26t-24.5 -18t-34 -6.5h-115q-15 0 -24.5 7.5t-9.5 22.5zM602 1352l576 -1268h36q17 0 29 8q6 4 6 13q0 8 -5 19l-546 1195 q-10 23 -22 28t-25 5h-49z" />
<glyph unicode="Y" horiz-adv-x="1229" d="M0 1366q0 35 22 52.5t46 17.5h546q25 0 43 -6.5t30 -15.5t18.5 -19.5t9.5 -18.5l176 -483l160 461q6 17 11.5 32t13 26t18.5 17.5t29 6.5h92q14 0 24 -6t10 -20q0 -19 -12 -50l-227 -578v-642q0 -35 -7 -61t-23.5 -43.5t-44 -26.5t-69.5 -9h-472q-39 0 -64 9t-39.5 26 t-20.5 43t-6 61v621l-254 559q-6 14 -8 25t-2 22zM554 1352l293 -800v-468q24 0 39 1.5t24 8t12 19t3 35.5v412l-279 761q-6 17 -16.5 24t-27.5 7h-48z" />
<glyph unicode="Z" horiz-adv-x="1323" d="M55 61q0 29 10 58.5t27 73.5l420 1089q-90 -18 -165 -31q-32 -6 -64 -11t-59 -9.5t-47 -7t-28 -2.5q-17 0 -30 6t-13 26v133q0 19 12 34.5t46 15.5h1023q38 0 58.5 -12t20.5 -46q0 -20 -8 -45.5t-17 -48.5l-434 -1130q106 17 192 30q37 6 73 11.5t66.5 10t52 7t28.5 2.5 q17 0 30 -6.5t13 -26.5v-133q0 -18 -12 -33.5t-46 -15.5h-1067q-49 0 -65.5 18.5t-16.5 42.5zM617 124l89 13l448 1163q7 19 7 29q0 11 -6.5 17t-23.5 6h-42z" />
<glyph unicode="[" horiz-adv-x="911" d="M143 -324v1874q0 17 4.5 26.5t11.5 14t16 5.5t18 1h656q21 0 21 -21v-100q0 -22 -21 -22h-163v-1682h163q21 0 21 -21v-100q0 -22 -21 -22h-656q-9 0 -18 1t-16 5.5t-11.5 14t-4.5 26.5zM523 -228h78v1682h-78v-1682z" />
<glyph unicode="\" horiz-adv-x="644" d="M50 1429q0 14 8 21t25 12l62 17q11 4 22 4q13 0 22 -6.5t16 -31.5l385 -1410q2 -7 3 -12.5t1 -10.5q0 -17 -12.5 -24t-27.5 -11l-64 -14q-10 -2 -15 -2q-16 0 -24.5 12.5t-11.5 23.5l-386 1413q-3 10 -3 19z" />
<glyph unicode="]" horiz-adv-x="911" d="M43 -249q0 21 21 21h163v1682h-163q-21 0 -21 22v100q0 21 21 21h656q9 0 18 -1t16 -5.5t11.5 -14t4.5 -26.5v-1874q0 -17 -4.5 -26.5t-11.5 -14t-16 -5.5t-18 -1h-656q-21 0 -21 22v100zM607 -228h78v1682h-78v-1682z" />
<glyph unicode="^" d="M78 1005q0 7 4 12l325 402q14 17 34 17h142q20 0 34 -17l325 -402q4 -5 4 -12q0 -5 -3.5 -8t-8.5 -8l-128 -106q-3 -3 -7 -3.5t-6 -0.5q-5 0 -8.5 3t-7.5 8l-265 334l-265 -337q-6 -8 -16 -8q-3 0 -6.5 0.5t-6.5 3.5l-128 106q-5 5 -8.5 8t-3.5 8z" />
<glyph unicode="_" horiz-adv-x="824" d="M0 -310q0 21 21 21h782q21 0 21 -21v-180q0 -22 -21 -22h-782q-21 0 -21 22v180z" />
<glyph unicode="`" horiz-adv-x="820" d="M115 1416q0 7 7 15l92 130q7 9 15 9q6 0 14 -6l354 -268q9 -8 9 -15t-6 -14l-67 -98q-6 -10 -17 -10q-3 0 -6 2t-7 4l-379 236q-9 6 -9 15z" />
<glyph unicode="a" horiz-adv-x="1290" d="M63 334q0 87 33 149t88.5 103t127.5 63t149 28v69q0 39 -10 62t-25.5 34.5t-34 15t-35.5 3.5q-20 0 -42.5 -6t-43.5 -14.5t-40 -18.5t-32 -18q-6 -4 -11 -7t-10 -3q-9 0 -17 13l-34 54q-5 7 -5 15t6.5 14t12.5 10q33 23 84 47t114.5 43t137.5 31t153 12q75 0 146.5 -5 t135 -21.5t116 -47t91 -80.5t59.5 -123t21 -175v-446q0 -33 -6 -58.5t-23 -42.5t-47 -25.5t-78 -8.5h-534q-54 0 -108.5 7t-104 22.5t-92.5 40.5t-74.5 62t-49.5 87t-18 115zM205 333q0 -42 13 -79.5t43 -65.5t79 -44t121 -16v422q-72 0 -121 -18t-79 -48t-43 -69.5 t-13 -81.5zM942 912q12 -13 28.5 -37t30.5 -61t24 -88.5t10 -118.5v-523q24 0 39 1.5t24 8t12 19t3 35.5v455q0 81 -17 136.5t-42.5 91t-55.5 54t-56 27.5z" />
<glyph unicode="b" horiz-adv-x="1319" d="M92 505v996q0 34 6 60.5t23 43.5t47 26t78 9h438q43 0 71 -9t44.5 -26.5t23 -44t6.5 -62.5v-474q88 -16 167.5 -51.5t139.5 -97t95 -151.5t35 -216q0 -105 -24.5 -184.5t-68 -138.5t-102 -98t-127 -63t-143.5 -34t-150 -10q-131 0 -235 35t-176 101.5t-110 164.5t-38 224 zM666 102q5 0 15 0.5t21.5 1t22.5 1.5t19 3v1382q0 22 -3 35t-12 19.5t-24 8t-39 1.5v-1452zM829 122q78 10 134 42.5t91.5 83.5t52.5 117t17 143q0 76 -17 143t-53 118t-91.5 84t-133.5 43v-774z" />
<glyph unicode="c" horiz-adv-x="1206" d="M53 506q0 102 25 182.5t68.5 141t102.5 103t127.5 69.5t143.5 39t150 12q82 0 158 -12.5t140.5 -33t116 -45t83.5 -48.5q4 -3 8 -7t4 -11t-5 -14l-35 -54q-5 -8 -8.5 -11t-12.5 -3q-6 0 -16 6t-25 13.5t-35 14t-45 6.5q-33 0 -71 -16.5t-71 -56.5t-54.5 -107t-21.5 -168 t21.5 -168t54.5 -106.5t71 -55.5t71 -16q25 0 46 6.5t37 15t27 15t17 6.5q9 0 12.5 -3t8.5 -11l35 -54q5 -8 5 -14q0 -7 -4 -11t-8 -7q-33 -23 -81 -48.5t-111.5 -46.5t-141.5 -35t-170 -14q-75 0 -150 12t-143.5 39t-127.5 69.5t-102.5 103t-68.5 141t-25 182.5zM613 506 q0 -105 26.5 -178t69.5 -119t96.5 -67t107.5 -22q-32 7 -70 30t-71 68.5t-55 116t-22 171.5t22 172t55 116.5t71 69t70 30.5q-54 -1 -107.5 -22.5t-96.5 -67.5t-69.5 -119.5t-26.5 -178.5z" />
<glyph unicode="d" horiz-adv-x="1319" d="M53 518q0 123 35 211.5t95 148.5t139.5 95t167.5 51v474q0 35 5 61.5t21 44t44 26t75 8.5h438q48 0 78 -9t47 -26t23 -43.5t6 -60.5v-1360q0 -35 -6 -61t-23 -43t-47 -26t-78 -9h-437q-73 2 -144.5 13.5t-136 36t-120 64t-96 96t-63.5 133t-23 175.5zM195 517 q0 -74 17 -138.5t52.5 -114t91.5 -81.5t134 -41v754q-78 -9 -134 -41.5t-91.5 -82.5t-52.5 -115t-17 -140zM1064 84q24 0 39 1.5t24 8t12 19t3 35.5v1342q0 22 -3 35t-12 19.5t-24 8t-39 1.5v-1470z" />
<glyph unicode="e" horiz-adv-x="1311" d="M53 512q0 102 25 182.5t68.5 141.5t102.5 103.5t127.5 69t143.5 38.5t150 12q125 0 232.5 -28t186.5 -92t124 -168t45 -255v-56q0 -18 -9 -28t-30 -10h-414q8 -74 28.5 -123.5t47 -79t57.5 -41.5t60 -12q27 0 49 7.5t39.5 16.5t29 16.5t17.5 7.5q9 0 12.5 -3t8.5 -11 l35 -54q5 -8 5 -14q0 -7 -4 -11t-8 -7q-33 -23 -81 -49.5t-111.5 -48.5t-143.5 -36.5t-176 -14.5q-75 0 -150 12t-143.5 38t-127.5 68t-102.5 103t-68.5 141.5t-25 184.5zM632 506q0 -108 28 -183.5t71.5 -123t96.5 -68.5t104 -21q-32 7 -70 28.5t-71 66.5t-55 118t-22 183 q0 101 19.5 171t50.5 115t70 67.5t78 28.5q-60 -2 -114.5 -23.5t-96 -67.5t-65.5 -118t-24 -173zM801 545h315q0 80 -12.5 132.5t-33.5 84t-49.5 44.5t-59.5 13q-23 0 -50 -9t-50.5 -38t-40 -83t-19.5 -144z" />
<glyph unicode="f" horiz-adv-x="1121" d="M31 438v80q0 21 21 21h83v604q0 108 22.5 188t61 137.5t90.5 94.5t112 58.5t124.5 29.5t128.5 8q55 0 115.5 -7t117 -18.5t105.5 -27t83 -31.5q8 -4 17 -12t9 -28v-70q0 -13 -5 -15.5t-9 -2.5q-13 0 -28 6t-45 6q-33 0 -62.5 -13.5t-51.5 -47.5t-34.5 -92t-12.5 -146 v-621h200q21 0 21 -21v-80q0 -22 -21 -22h-200v-276q0 -36 -5 -62.5t-21 -43.5t-45.5 -25.5t-78.5 -8.5h-434q-48 0 -78 9t-47 26t-23 43t-6 61v277h-83q-21 0 -21 22zM710 84q24 0 39 1.5t24 8t12 19t3 35.5v1052q0 88 15 143.5t38 89t52 50t56 26.5h-4q-35 0 -74 -15 q-42 -15 -78 -51t-59.5 -95.5t-23.5 -147.5v-1116z" />
<glyph unicode="g" horiz-adv-x="1372" d="M53 580q0 89 25 159.5t68.5 124t102.5 90.5t127.5 60.5t143.5 34t150 10.5q67 0 137 -7t136.5 -25.5t126 -49.5t105.5 -79l109 111q11 11 21.5 16t19.5 5q16 0 29 -13l49 -52q12 -14 12 -29q0 -22 -25 -40l-145 -102q20 -43 30.5 -94t10.5 -112q0 -102 -26 -178 t-71.5 -130t-105.5 -89t-128.5 -55t-141.5 -28t-143 -8q-76 0 -151 10.5t-144 33.5q-1 -5 -1 -9.5v-9.5q0 -30 10 -55.5t31.5 -44.5t56.5 -30t85 -11q55 0 102 6.5t92 14t90.5 14t96.5 6.5q49 0 96 -17.5t83.5 -51t58.5 -82.5t22 -112q0 -56 -10.5 -98t-21.5 -80 q-2 -5 -7.5 -12t-20.5 -7h-74q-14 0 -18 6.5t-6 10.5q-19 47 -147 47q-55 0 -109 -6.5t-110 -14t-116.5 -14t-127.5 -6.5q-93 0 -157.5 31t-104.5 78.5t-58 104.5t-18 108q0 55 12.5 100.5t32.5 82.5t46 66.5t52 53.5q-82 56 -132 146t-50 221zM644 580q0 -79 21.5 -135 t56.5 -91t80.5 -51.5t93.5 -16.5q-29 4 -59.5 22t-55.5 53.5t-41 89.5t-16 129t19.5 128.5t46.5 88t56.5 51.5t49.5 21q-39 0 -83 -15.5t-81.5 -50t-62.5 -89.5t-25 -134zM809 580q0 -79 14.5 -126.5t38.5 -72.5t55 -33t64 -8q31 0 61 10.5t52.5 38t36.5 75t14 122.5 t-17 124l-67 -47q-8 -5 -16 -5q-13 0 -21 10l-20 22q-5 5 -5 15q0 12 9 21l64 66q-20 15 -43.5 21t-47.5 6t-53.5 -7.5t-56 -32.5t-44.5 -72.5t-18 -126.5zM965 -57q32 -33 50 -78t18 -103q0 -25 -3 -42t-5 -27q21 -3 42 -17t29 -27q6 13 11.5 43t5.5 70q0 74 -39.5 123 t-108.5 58z" />
<glyph unicode="h" horiz-adv-x="1245" d="M92 139v1360q0 34 6 60.5t23 43.5t47 26t78 9h438q45 0 73.5 -8t44.5 -25.5t21.5 -43.5t5.5 -62v-494q22 17 53 28t68 11q96 0 149.5 -66t53.5 -194v-737q0 -17 -4.5 -26.5t-11 -14t-15.5 -5.5t-18 -1h-64q-26 0 -33.5 15t-7.5 32v747q0 57 -20.5 87t-65.5 30 q-23 0 -46.5 -12.5t-37.5 -26.5v-732q0 -35 -4 -61t-19 -43.5t-43 -26.5t-76 -9h-463q-39 0 -64.5 9t-40.5 26t-21 43t-6 61zM666 84q24 0 39 1.5t24 8t12 19t3 35.5v1342q0 22 -3 35t-12 19.5t-24 8t-39 1.5v-1470z" />
<glyph unicode="i" horiz-adv-x="921" d="M92 139v746q0 34 6 60.5t23 43.5t47 26t78 9h438q46 0 74.5 -8.5t44.5 -25.5t21 -43t5 -62v-748q0 -34 -5 -59.5t-21 -43t-44.5 -26t-74.5 -8.5h-438q-48 0 -78 9t-47 26t-23 43t-6 61zM129 1452q0 69 26.5 130t71.5 106t106 71.5t130 26.5q68 0 128.5 -26.5t105.5 -71.5 t71.5 -106t26.5 -130q0 -68 -26.5 -128.5t-71.5 -105.5t-105.5 -71.5t-128.5 -26.5q-69 0 -130 26.5t-106 71.5t-71.5 105.5t-26.5 128.5zM526 1212q40 10 73.5 33t58 54.5t38.5 70.5t14 82t-14 82t-38.5 70.5t-58 54t-73.5 33.5q47 -46 74.5 -108t27.5 -132t-27.5 -132 t-74.5 -108zM666 84q24 0 39 1.5t24 8t12 19t3 35.5v728q0 22 -3 35t-12 19.5t-24 8t-39 1.5v-856z" />
<glyph unicode="j" horiz-adv-x="921" d="M-135 -262q0 13 4 16.5t10 3.5t12.5 -2t16 -4t23.5 -4t36 -2q125 0 125 155v984q0 23 3.5 47.5t18 45t43.5 33.5t81 13h437q48 0 78 -9t47 -26.5t23 -43.5t6 -61v-775q0 -120 -26.5 -207.5t-71 -147.5t-103 -97t-122.5 -57.5t-130 -27t-125 -6.5q-132 0 -221 17.5 t-147 48.5q-5 2 -11.5 8.5t-6.5 23.5v74zM129 1452q0 69 26.5 130t71.5 106t106 71.5t130 26.5q68 0 128.5 -26.5t105.5 -71.5t71.5 -106t26.5 -130q0 -68 -26.5 -128.5t-71.5 -105.5t-105.5 -71.5t-128.5 -26.5q-69 0 -130 26.5t-106 71.5t-71.5 105.5t-26.5 128.5z M526 1212q40 10 73.5 33t58 54.5t38.5 70.5t14 82t-14 82t-38.5 70.5t-58 54t-73.5 33.5q47 -46 74.5 -108t27.5 -132t-27.5 -132t-74.5 -108zM607 -260q38 32 64 70t42.5 84.5t23.5 103t7 126.5v752q0 22 -3 35t-12 19.5t-24 8t-39 1.5v-849q0 -47 -1.5 -90.5t-7 -86.5 t-17.5 -86t-33 -88z" />
<glyph unicode="k" horiz-adv-x="1217" d="M92 139v1360q0 34 6 60.5t23 43.5t47 26t78 9h438q46 0 74 -9t44 -26t21.5 -43.5t5.5 -60.5v-722l240 238q11 11 21 15.5t18 4.5q18 0 31 -15l50 -52q11 -13 11 -25q0 -11 -7.5 -22t-24.5 -24l-313 -231q83 -3 140 -21.5t92 -53.5t50.5 -87t15.5 -121v-336 q0 -17 -4.5 -26.5t-11 -14t-15.5 -5.5t-18 -1h-64q-26 0 -33.5 15t-7.5 32v346q0 46 -8.5 76.5t-28.5 49t-52.5 27t-80.5 10.5v-419q0 -34 -6.5 -59.5t-24.5 -43t-50 -26t-82 -8.5h-420q-48 0 -78 9t-47 26t-23 43t-6 61zM666 84q24 0 39 1.5t24 8t12 19t3 35.5v1342 q0 22 -3 35t-12 19.5t-24 8t-39 1.5v-1470z" />
<glyph unicode="l" horiz-adv-x="921" d="M92 139v1360q0 34 6 60.5t23 43.5t47 26t78 9h438q46 0 74 -8.5t44 -25.5t21.5 -43t5.5 -61v-1363q0 -34 -6 -59.5t-22 -43t-44.5 -26t-74.5 -8.5h-436q-48 0 -78 9t-47 26t-23 43t-6 61zM666 84q24 0 39 1.5t24 8t12 19t3 35.5v1342q0 22 -3 35t-12 19.5t-24 8t-39 1.5 v-1470z" />
<glyph unicode="m" horiz-adv-x="1569" d="M92 139v746q0 34 6 60.5t23 43.5t47 26t78 9h409q45 0 76 -9t45 -31q13 10 32 20.5t41.5 19.5t48 14.5t52.5 5.5q92 0 144 -61q13 11 33 22t44 19.5t50.5 14t52.5 5.5q96 0 149.5 -66t53.5 -194v-737q0 -17 -4.5 -26.5t-11.5 -14t-16 -5.5t-18 -1h-63q-26 0 -33.5 15 t-7.5 32v747q0 57 -20.5 87t-65.5 30q-12 0 -25 -4.5t-25.5 -11t-23 -14t-17.5 -14.5q3 -19 5 -39.5t2 -43.5v-737q0 -17 -4.5 -26.5t-11 -14t-15.5 -5.5t-18 -1h-64q-26 0 -33.5 15t-7.5 32v747q0 57 -20.5 87t-65.5 30q-23 0 -46.5 -12.5t-37.5 -26.5v-732q0 -35 -6 -61 t-23 -43.5t-47 -26.5t-78 -9h-429q-48 0 -78 9t-47 26t-23 43t-6 61zM666 84q24 0 39 1.5t24 8t12 19t3 35.5v728q0 35 -18.5 49.5t-59.5 14.5v-856z" />
<glyph unicode="n" horiz-adv-x="1245" d="M92 139v746q0 34 6 60.5t23 43.5t47 26t78 9h409q45 0 77.5 -9t46.5 -31q13 9 31.5 19.5t40.5 19.5t47 15t52 6q96 0 149.5 -66t53.5 -194v-737q0 -17 -4.5 -26.5t-11 -14t-15.5 -5.5t-18 -1h-64q-26 0 -33.5 15t-7.5 32v747q0 57 -20.5 87t-65.5 30q-23 0 -46.5 -12.5 t-37.5 -26.5v-732q0 -35 -6 -61t-23 -43.5t-47 -26.5t-78 -9h-429q-48 0 -78 9t-47 26t-23 43t-6 61zM666 84q24 0 39 1.5t24 8t12 19t3 35.5v728q0 35 -18.5 49.5t-59.5 14.5v-856z" />
<glyph unicode="o" horiz-adv-x="1339" d="M53 512q0 102 25 182.5t68.5 141.5t102.5 103.5t127.5 69t143.5 38.5t150 12q69 0 141.5 -8.5t141 -31t129 -61t106 -98.5t72 -143.5t26.5 -196.5q0 -116 -26 -202.5t-71.5 -148t-105.5 -101.5t-128.5 -62.5t-141.5 -31.5t-143 -9q-75 0 -150 12t-143.5 38t-127.5 68 t-102.5 103t-68.5 141.5t-25 184.5zM642 512q0 -104 24 -171t61.5 -106t84 -54.5t90.5 -15.5q-33 6 -65 23t-57 55.5t-40.5 103t-15.5 165.5q0 67 8.5 118t23 88t33.5 62t38.5 41.5t39 25t35.5 12.5q-35 0 -80 -15.5t-85 -54.5t-67.5 -106.5t-27.5 -170.5zM809 512 q0 -101 14 -162t37 -93t53.5 -42t63.5 -10q31 0 61.5 13.5t54 48.5t38 96.5t14.5 156.5q0 90 -14.5 148t-38.5 91.5t-54 46.5t-61 13q-24 0 -53.5 -10t-55 -42.5t-42.5 -93t-17 -161.5z" />
<glyph unicode="p" horiz-adv-x="1319" d="M92 -272v800q0 124 38.5 221t112 163t180 100.5t243.5 34.5q74 0 147 -11t140 -36t124 -65t99 -99t66 -137.5t24 -180.5q0 -126 -36 -217.5t-96 -153.5t-139 -97.5t-166 -49.5v-272q0 -36 -6 -62t-21.5 -43.5t-44 -26t-73.5 -8.5h-438q-48 0 -78 9t-47 26.5t-23 43.5 t-6 61zM666 -328q24 0 39 1.5t24 8t12 19t3 35.5l1 1179q-8 1 -19 2t-22.5 2t-21.5 1h-15zM829 128q78 10 133.5 43t91.5 85t53 119t17 144t-17 143t-53 117t-91.5 83.5t-133.5 41.5v-776z" />
<glyph unicode="q" horiz-adv-x="1319" d="M53 507q0 98 23.5 175t64.5 134.5t97.5 97t122.5 64t138 35.5t146 11h428q48 0 78 -9t47 -26t23 -43.5t6 -60.5v-1157q0 -35 -6 -61t-23 -43.5t-47 -26.5t-78 -9h-438q-42 0 -70 8t-44.5 25.5t-23.5 43.5t-7 62v273q-88 16 -167.5 51t-139.5 95.5t-95 149t-35 211.5z M195 507q0 -75 17 -140t52.5 -115t91.5 -82.5t134 -41.5v753q-78 -9 -134 -40.5t-91.5 -81t-52.5 -113.5t-17 -139zM1064 -328q24 0 39 1.5t24 8t12 19t3 35.5v1140q0 22 -3 35t-12 19.5t-24 8t-39 1.5v-1268z" />
<glyph unicode="r" horiz-adv-x="1111" d="M92 139v746q0 34 6 60.5t23 43.5t47 26t78 9h438q46 0 74 -9t44 -27t21.5 -45t5.5 -63v-74l222 216q22 21 41 21q11 0 19.5 -4.5t14.5 -10.5l45 -47q15 -15 15 -33q0 -11 -6.5 -22.5t-20.5 -22.5l-330 -256v-506q0 -35 -5 -61.5t-22 -44t-49 -26.5t-87 -9h-420 q-48 0 -78 9t-47 26t-23 43t-6 61zM666 84q24 0 39 1.5t24 8t12 19t3 35.5v728q0 22 -3 35t-12 19.5t-24 8t-39 1.5v-856z" />
<glyph unicode="s" horiz-adv-x="1248" d="M-5 63q0 4 1 9t3 12l12 56q2 8 7 13t18 5q33 0 66.5 3.5t62 18.5t50 46t29.5 87l70 482q11 76 56 127t111.5 81.5t150.5 43t173 12.5q64 0 128 -7.5t121.5 -19.5t105 -26.5t77.5 -28.5q5 -2 10.5 -6t5.5 -15q0 -3 -1 -8l-2 -10l-12 -59q-2 -12 -5.5 -14.5t-6.5 -2.5 q-5 0 -19 3t-30 3q-57 0 -90 -30.5t-42 -106.5l-56 -467q-8 -62 -41.5 -116t-96.5 -95t-155.5 -64.5t-216.5 -23.5q-78 0 -152 9.5t-136.5 23t-109 27t-69.5 21.5q-8 2 -12.5 5.5t-4.5 11.5zM615 58q138 16 209.5 77.5t82.5 153.5l53 442q9 76 44.5 126t97.5 61 q-56 0 -95.5 -15t-66.5 -40.5t-41.5 -59.5t-18.5 -72l-53 -442q-5 -39 -20.5 -75t-41.5 -66.5t-63.5 -54t-86.5 -35.5z" />
<glyph unicode="t" horiz-adv-x="1124" d="M0 718v80q0 21 21 21h104v227q0 15 4.5 30t24.5 23l552 204q38 14 63 21t44 7q7 0 15.5 -2.5t16 -8.5t12.5 -16.5t5 -25.5v-459h180q21 0 21 -21v-80q0 -22 -21 -22h-180v-403q0 -71 23.5 -100t72.5 -29q11 0 23 2.5t22.5 5t19.5 5t15 2.5q11 0 11 -13v-77q0 -20 -8 -27 t-14 -9q-38 -16 -89.5 -32t-111 -28.5t-125.5 -20t-132 -7.5q-95 0 -176.5 9.5t-141 43.5t-93 101t-33.5 182v395h-104q-21 0 -21 22zM699 267q0 -45 15 -73t37 -44t47 -21.5t45 -5.5q-15 12 -27.5 24.5t-21 29t-13 37t-4.5 49.5v925q0 20 -4.5 32.5t-21.5 12.5 q-6 0 -15.5 -2t-20.5 -7l-16 -7v-950z" />
<glyph unicode="u" horiz-adv-x="1245" d="M92 322v563q0 34 6 60.5t23 43.5t47 26t78 9h438q58 0 88 -17t43 -42t13.5 -54t0.5 -53v-614q0 -57 18.5 -84t63.5 -27q23 0 48.5 10t39.5 19v815q0 17 7.5 32t33.5 15h64q9 0 18 -1t15.5 -5.5t11 -14t4.5 -26.5v-930q0 -17 -4.5 -26.5t-11 -14t-15.5 -5.5t-18 -1h-64 q-26 0 -33.5 15t-7.5 48q-22 -8 -61.5 -22t-99.5 -27.5t-141.5 -23.5t-186.5 -10q-108 0 -186.5 18t-130 58.5t-76.5 105.5t-25 160zM666 237q0 -41 16 -66t37 -38.5t42 -18.5t31 -5q-25 26 -36.5 53t-11.5 71v643q0 22 -3 35t-12 19.5t-24 8t-39 1.5v-703z" />
<glyph unicode="v" horiz-adv-x="1140" d="M1 975q0 26 19 37.5t39 11.5h488q25 0 42 -2t28 -7.5t18 -13.5t12 -20l156 -391l139 375q9 26 19.5 42.5t42.5 16.5h106q29 0 29 -17q0 -11 -11 -36l-383 -903q-14 -34 -31.5 -51t-49.5 -17h-158q-21 0 -35 6.5t-23.5 16.5t-15.5 21.5t-10 21.5l-412 874q-9 19 -9 35z M495 940l227 -569l39 104l-174 434q-13 31 -44 31h-48z" />
<glyph unicode="w" horiz-adv-x="1764" d="M10 977q0 26 17 36.5t36 10.5h396q25 0 42.5 -3t30 -10t20.5 -18.5t15 -29.5l164 -428l59 179l-85 228q-8 22 -8 36q0 26 16.5 36t36.5 10h395q50 0 73 -12.5t35 -48.5l144 -428l143 432q4 12 8 22.5t11 18t19 12t32 4.5h108q20 0 28 -7t8 -18t-7 -28l-365 -877 q-19 -46 -41 -70t-59 -24h-160q-22 0 -38.5 9t-28.5 23t-20 30t-13 30l-145 388l-160 -386q-19 -46 -41 -70t-60 -24h-159q-23 0 -39 9t-28 23t-20 30t-14 30l-338 850q-8 19 -8 35zM406 940l243 -636l38 112l-189 493q-13 31 -44 31h-48zM1102 940l216 -644l37 111 l-169 502q-13 31 -44 31h-40z" />
<glyph unicode="x" horiz-adv-x="1302" d="M14 30q0 9 3.5 20.5t12.5 25.5l258 422l-256 444q-12 19 -12 36q0 46 60 46h577q50 0 69.5 -11t30.5 -30l129 -220l104 179q9 16 17.5 31t19 26t24.5 18t34 7h114q16 0 25.5 -7.5t9.5 -22.5q0 -20 -16 -46l-225 -367l284 -486q8 -13 13.5 -25.5t5.5 -23.5q0 -17 -6 -26.5 t-16 -14t-21.5 -5t-23.5 -0.5h-587q-25 0 -42.5 6.5t-29 15.5t-18 19t-10.5 18l-149 258l-136 -235q-9 -16 -17.5 -31t-19 -26t-24 -18t-33.5 -7h-115q-15 0 -24.5 7.5t-9.5 22.5zM606 940l500 -856h45q17 0 23 8q2 3 2 7q0 9 -10 25l-459 783q-13 21 -22.5 27t-31.5 6h-47z " />
<glyph unicode="y" horiz-adv-x="1148" d="M0 978q0 25 19.5 35.5t39.5 10.5h507q36 0 55.5 -14.5t25.5 -28.5l155 -382l140 366q5 13 9 23.5t10 18.5t16 12.5t26 4.5h117q28 0 28 -16q0 -13 -10 -37l-565 -1333q-6 -13 -10 -22.5t-9.5 -15.5t-13.5 -9t-22 -3h-129q-30 0 -30 18q0 12 12 36l134 288l-495 1010 q-10 22 -10 38zM495 940l223 -557l39 101l-170 425q-13 31 -44 31h-48z" />
<glyph unicode="z" horiz-adv-x="1151" d="M20 41q0 20 7.5 39t24.5 51l388 753q-78 -4 -145 -7q-29 -2 -58 -3t-55.5 -2t-47.5 -1.5t-33 -0.5t-23.5 5.5t-11.5 25.5v90q0 17 7 25t30 8h966q38 0 53 -9t15 -32q0 -28 -18 -61l-399 -781q93 3 170 6q33 1 65.5 3t60.5 2.5t48 1t28 0.5q17 0 32 -6.5t15 -26.5v-72 q0 -18 -11.5 -33.5t-45.5 -15.5h-1005q-29 0 -43 12.5t-14 28.5zM536 134l86 3l384 751q4 8 6.5 15.5t2.5 13.5q0 23 -32 23h-35z" />
<glyph unicode="{" horiz-adv-x="954" d="M40 562v102q0 22 21 22q58 0 91 7t49.5 25t20 50t3.5 82v356q0 91 23.5 163.5t71.5 123t119.5 77.5t167.5 27h286q21 0 21 -21v-100q0 -22 -21 -22h-41q-59 0 -91 -33t-32 -96v-445q0 -59 -12 -102t-32 -74t-46.5 -52.5t-54.5 -39.5q28 -17 54.5 -38.5t46.5 -52.5 t32 -73.5t12 -100.5v-446q0 -63 32 -96t91 -33h41q21 0 21 -22v-100q0 -21 -21 -21h-286q-96 0 -167.5 27t-119.5 77.5t-71.5 123t-23.5 163.5v357q0 50 -3.5 82t-20 50t-49.5 25t-91 7q-21 0 -21 21zM501 578q17 -17 29.5 -38t20.5 -48.5t11.5 -63t3.5 -81.5v-445 q0 -32 12 -62t37 -54t63 -38.5t89 -14.5q-29 3 -52 18t-39 38t-24 52t-8 61v445q0 59 -11.5 96.5t-31.5 62.5t-46 40.5t-54 31.5zM501 649q28 16 54 31.5t46 40.5t31.5 62.5t11.5 96.5v445q0 31 8 60.5t24 52.5t39 38t52 18q-51 0 -89 -14.5t-63 -38.5t-37 -54.5t-12 -61.5 v-445q0 -46 -3.5 -81.5t-11.5 -63t-20.5 -48.5t-29.5 -38z" />
<glyph unicode="|" horiz-adv-x="511" d="M173 -465v1954q0 17 4 26.5t10.5 14t15 5.5t17.5 1h76q26 0 34.5 -13t8.5 -34v-1954q0 -17 -7.5 -32t-33.5 -15h-76q-9 0 -18 1t-15.5 5.5t-11 14t-4.5 26.5z" />
<glyph unicode="}" horiz-adv-x="954" d="M40 -250q0 22 21 22h41q59 0 91 33t32 96v446q0 58 12 100.5t32 73.5t46 52.5t55 38.5q-29 18 -55 39.5t-46 52.5t-32 74t-12 102v445q0 63 -32 96t-91 33h-41q-21 0 -21 22v100q0 21 21 21h286q96 0 167.5 -27t119.5 -77.5t71.5 -123t23.5 -163.5v-356q0 -50 3.5 -82 t20 -50t49 -25t91.5 -7q21 0 21 -22v-102q0 -21 -21 -21q-59 0 -91.5 -7t-49 -25t-20 -50t-3.5 -82v-357q0 -91 -23.5 -163.5t-71.5 -123t-119.5 -77.5t-167.5 -27h-286q-21 0 -21 21v100zM430 -301q108 29 161 107t53 215v356q0 61 13 109.5t49 73.5q-46 -3 -73.5 -15 t-42.5 -34.5t-19.5 -55.5t-4.5 -78v-356q0 -109 -34 -190.5t-102 -131.5zM430 1528q68 -50 102 -131.5t34 -190.5v-356q0 -45 4.5 -78t19.5 -55.5t42.5 -34.5t73.5 -15q-36 25 -49 73.5t-13 109.5v356q0 137 -53 215t-161 107z" />
<glyph unicode="~" d="M94.5 443.5q0.5 11.5 2.5 19.5q18 63 45.5 108.5t62.5 75.5t74.5 44.5t81.5 14.5q45 0 87 -21.5t79 -47.5t67.5 -47.5t51.5 -21.5q19 0 34 9t26.5 24.5t20.5 35t16 40.5q2 6 7.5 14t23.5 0l134 -64q16 -8 19 -17t-1 -22q-20 -64 -47.5 -110.5t-61.5 -76.5t-73 -44.5 t-81 -14.5q-45 0 -87 21.5t-79 47.5t-67.5 47.5t-51.5 21.5q-19 0 -33.5 -9t-26 -23.5t-20.5 -33.5t-16 -40q-1 -3 -3 -8t-6.5 -8t-12 -3t-19.5 6l-125 60q-22 11 -21.5 22.5z" />
<glyph unicode="&#xa1;" horiz-adv-x="911" d="M123 303q0 45 16 87t40.5 81.5t54 78t56 76t46.5 76t26 77.5q3 21 2 44.5t3 43t19 32.5t50 13h39q35 0 50 -13t19.5 -32.5t3 -43t1.5 -44.5q6 -40 26 -78t46.5 -75.5t56 -76t54 -78t40.5 -81.5t16 -87q0 -69 -26 -129.5t-71 -106t-105.5 -71.5t-128.5 -26q-69 0 -130 26 t-106.5 71.5t-71.5 106t-26 129.5zM226 1227q0 48 18.5 90t50 73.5t73.5 49.5t90 18t90 -18t73.5 -49.5t49.5 -73.5t18 -90t-18 -90t-49.5 -73.5t-73.5 -49.5t-90 -18t-90 18t-73.5 49.5t-50 73.5t-18.5 90zM475 1081q27 3 51 15.5t41 32t27 45t10 53.5t-10 53.5t-27 45 t-41 32t-51 15.5q24 -30 38 -67.5t14 -78.5q0 -42 -14 -79t-38 -67zM477 749q3 -51 15 -91.5t28 -75t33.5 -65.5t32.5 -63.5t25 -69t10 -81.5q0 -78 -32.5 -146.5t-87.5 -114.5q44 13 81 36.5t64 57t42 75.5t15 92q0 43 -14.5 80.5t-37.5 73t-50 69.5t-52.5 69.5t-45 73 t-26.5 80.5z" />
<glyph unicode="&#xa2;" horiz-adv-x="1030" d="M72 512q0 120 34.5 208.5t91.5 148.5t130 95t151 49v210q0 17 4 26.5t10.5 14t15 5.5t17.5 1h75q26 0 33 -13t7 -34v-201q98 -8 178 -41.5t132 -71.5q5 -4 11 -9.5t6 -13.5t-5 -15l-33 -52q-5 -8 -8 -9.5t-6 -1.5q-5 0 -14 4.5t-22.5 10.5t-32.5 10.5t-44 4.5 q-32 0 -60.5 -15t-51 -52.5t-35.5 -100.5t-13 -158t13 -157.5t35.5 -99.5t51 -52t60.5 -15q25 0 46 5.5t36 12.5t25 12.5t14 5.5t7.5 -2t8.5 -10l33 -52q5 -8 5 -15q0 -8 -6 -13.5t-11 -9.5q-26 -20 -58.5 -39.5t-71.5 -36.5t-86.5 -29t-103.5 -16v-208q0 -17 -7.5 -32 t-33.5 -15h-72q-9 0 -18 1t-15.5 5.5t-11 14t-4.5 26.5v217q-78 14 -151 49t-130 95.5t-91.5 149t-34.5 208.5zM478 512q0 -95 21.5 -163.5t55.5 -112.5t76.5 -64.5t85.5 -20.5q-28 7 -56.5 29t-51.5 64t-37.5 107.5t-14.5 160.5t14.5 161t37.5 108.5t51.5 64t56.5 29.5 q-43 0 -85.5 -21t-76.5 -65.5t-55.5 -113t-21.5 -163.5z" />
<glyph unicode="&#xa3;" horiz-adv-x="1249" d="M20 41v57q0 22 11 28t28 6l86 -3v328h-83q-21 0 -21 22v80q0 21 21 21h83v239q0 122 25.5 214.5t68.5 161.5t100.5 115t122 74t132 40t131.5 12q57 0 114.5 -7t110 -19t96.5 -28t75 -33q5 -2 10.5 -7.5t5.5 -22.5v-78q0 -14 -8.5 -14.5t-14.5 1.5q-22 6 -44 9.5t-44 3.5 q-35 0 -67.5 -11.5t-57 -40t-39 -77.5t-14.5 -123v-409h214q21 0 21 -21v-80q0 -22 -21 -22h-214v-327l108 8t100 7t80.5 5t51.5 2t29 -6.5t12 -26.5v-70q0 -9 -1 -18t-5.5 -15.5t-13.5 -11t-26 -4.5h-1121q-24 0 -33 7.5t-9 33.5zM685 99q14 4 36 8.5t42 8.5v860 q0 88 15 143.5t38 89t52 50t56 26.5q-36 1 -78 -14.5t-78 -51.5t-59.5 -95.5t-23.5 -147.5v-877z" />
<glyph unicode="&#xa4;" horiz-adv-x="974" d="M70 283q0 15 19 34l124 124q-23 37 -36 80t-13 91t13 91t36 81l-124 125q-11 11 -15 19t-4 15q0 10 5.5 17.5t13.5 15.5l39 39q15 15 30 15q9 0 17 -5t16 -13l125 -125q38 23 81 36.5t91 13.5q47 0 90 -13t81 -37l124 124q11 11 19 15t15 4q10 0 17.5 -5.5t15.5 -13.5 l39 -39q15 -15 15 -30q0 -9 -5 -17t-13 -16l-124 -124q23 -38 36.5 -81.5t13.5 -91.5t-13.5 -91t-36.5 -80l124 -124q7 -8 12.5 -16t5.5 -18q0 -14 -14 -28l-39 -39q-8 -8 -16 -14t-18 -6q-16 0 -34 19l-124 123q-38 -23 -80.5 -36t-90.5 -13t-91.5 13t-81.5 36l-124 -124 q-8 -8 -16 -13t-18 -5q-14 0 -28 14l-39 39q-8 8 -14 15.5t-6 18.5zM311 612q0 -36 14 -68t38 -56t56 -38t69 -14q36 0 68 14t56 38t38 56t14 68q0 37 -14 69t-38 56t-56 38t-68 14q-37 0 -69 -14t-56 -38t-38 -56t-14 -69z" />
<glyph unicode="&#xa5;" horiz-adv-x="1249" d="M19 1367q0 35 22.5 52t46.5 17h506q25 0 43 -6.5t29.5 -15.5t18 -19.5t9.5 -18.5l176 -483l160 461q6 17 11.5 32t13 26t18.5 17.5t29 6.5h96q31 0 31 -27q0 -18 -12 -49l-226 -573h182q21 0 21 -21v-80q0 -22 -21 -22h-184v-82h184q21 0 21 -21v-80q0 -22 -21 -22h-184 v-321q0 -35 -6 -61t-24 -43t-50 -25.5t-84 -8.5h-387q-48 0 -77.5 9t-46.5 26t-23 43t-6 61v320h-184q-21 0 -21 22v80q0 21 21 21h184v82h-184q-21 0 -21 22v80q0 21 21 21h172l-242 532q-12 27 -12 48zM533 1352l293 -800v-468q24 0 39 1.5t24 8t12 19t3 35.5v412 l-279 761q-6 17 -16.5 24t-27.5 7h-48z" />
<glyph unicode="&#xa6;" horiz-adv-x="511" d="M173 218q0 17 4 26.5t10.5 14t15 5.5t17.5 1h76q26 0 34.5 -13t8.5 -34v-683q0 -17 -7.5 -32t-33.5 -15h-76q-9 0 -18 1t-15.5 5.5t-11 14t-4.5 26.5v683zM173 806v683q0 17 4 26.5t10.5 14t15 5.5t17.5 1h76q26 0 34.5 -13t8.5 -34v-683q0 -17 -7.5 -32t-33.5 -15h-76 q-9 0 -18 1t-15.5 5.5t-11 14t-4.5 26.5z" />
<glyph unicode="&#xa7;" horiz-adv-x="912" d="M85 698q0 76 32 138t94 107q-38 44 -62 97.5t-24 123.5q0 59 21 109t62 86t100.5 56.5t136.5 20.5q78 0 140.5 -17t107.5 -35q7 -3 16 -9.5t2 -25.5l-22 -62q-3 -9 -7 -16t-13 -7q-8 0 -30 10.5t-58 10.5q-58 0 -86 -27t-28 -69q0 -37 26.5 -66t66.5 -57.5t87 -59.5 t87 -73t66.5 -98.5t26.5 -134.5q0 -76 -33.5 -138.5t-96.5 -106.5q19 -20 37 -43t32 -51t22.5 -61.5t8.5 -75.5q0 -59 -24.5 -112t-69 -93t-107 -63.5t-139.5 -23.5q-107 0 -180.5 21t-115.5 42q-5 2 -11 8t0 23l25 69q5 13 7.5 17.5t10.5 4.5q5 0 17.5 -6t30.5 -12.5 t40 -12.5t46 -6q23 0 46 5t41 16.5t29.5 30.5t11.5 47q0 37 -27.5 67t-68.5 60.5t-89 64.5t-89 79.5t-68.5 105.5t-27.5 142zM183 753q0 -45 21 -82.5t54.5 -70t77 -61.5t89 -57t89 -56.5t77 -60t54.5 -67.5t21 -79q0 -130 -111 -212q81 26 126.5 80.5t45.5 136.5 q0 52 -21 94t-54.5 77.5t-77 66t-89 59t-89 56.5t-77 59t-54.5 66t-21 77q0 24 10 50.5t44 52.5q-36 -8 -58.5 -25t-35 -36.5t-17 -38t-4.5 -29.5zM313 790q0 -39 21.5 -69.5t57 -58.5t81.5 -55.5t94 -60.5q17 15 21 36t4 39q0 30 -18 55.5t-50.5 51.5t-77 55.5t-98.5 68.5 q-19 -11 -27 -28.5t-8 -33.5zM336 1175q0 -58 26.5 -99t66.5 -74.5t87 -63.5t87 -65.5t66.5 -81t26.5 -109.5q0 -38 -6 -83t-26 -87q50 42 71.5 87.5t21.5 100.5q0 67 -26.5 116.5t-66.5 88t-87 69t-87 61t-66.5 64t-26.5 77.5q0 57 28 90t86 53q-52 -1 -85.5 -16 t-53.5 -36.5t-28 -46t-8 -45.5z" />
<glyph unicode="&#xa8;" horiz-adv-x="820" d="M83 1330q0 27 10.5 51t28 41.5t41.5 28t51 10.5t51 -10.5t41.5 -28t28 -41.5t10.5 -51t-10.5 -51t-28 -41.5t-41.5 -28t-51 -10.5t-51 10.5t-41.5 28t-28 41.5t-10.5 51zM475 1330q0 27 10.5 51t28 41.5t41.5 28t51 10.5t51 -10.5t41.5 -28t28 -41.5t10.5 -51t-10.5 -51 t-28 -41.5t-41.5 -28t-51 -10.5t-51 10.5t-41.5 28t-28 41.5t-10.5 51z" />
<glyph unicode="&#xa9;" horiz-adv-x="1724" d="M102 725q0 105 27 202t76.5 181.5t119 154t154 119t181.5 76.5t202 27t202 -27t181.5 -76.5t154 -119t119 -154t76.5 -181.5t27 -202t-27 -202t-76.5 -181.5t-119 -154t-154 -119t-181.5 -76.5t-202 -27q-158 0 -296 59.5t-241.5 163t-163 241.5t-59.5 296zM246 725 q0 -128 48.5 -240t132 -195.5t195.5 -132t240 -48.5q85 0 164 22t147.5 62t124.5 96.5t96.5 125t62.5 147t22 163.5t-22 163.5t-62.5 147t-96.5 125t-124.5 96.5t-147.5 62t-164 22t-163.5 -22t-147 -62t-125 -96.5t-96.5 -125t-62 -147t-22 -163.5zM444 717 q0 118 38.5 198.5t100 129.5t139.5 70.5t157 21.5q57 0 109 -9t96.5 -23.5t80 -32.5t59.5 -35q6 -5 13 -12t-1 -20l-24 -41q-8 -12 -14 -11t-14 6q-16 9 -41 19.5t-51 10.5q-32 0 -63.5 -13t-56.5 -44.5t-41 -84t-16 -130.5q0 -77 16 -129t41 -83t56.5 -44t63.5 -13t59.5 14 t43.5 24q8 5 14 6t14 -11l24 -41q8 -13 1 -20t-13 -12q-24 -17 -58 -36t-78.5 -35t-99.5 -26.5t-120 -10.5q-79 0 -157 21.5t-139.5 70t-100 128.5t-38.5 197zM759 717q0 -77 23.5 -133.5t60 -93.5t81.5 -54.5t88 -17.5q-32 4 -63.5 22t-56.5 54t-41 91t-16 132q0 78 16 134 t41 92t56.5 54t63.5 22q-43 0 -88 -18t-81.5 -55t-60 -94t-23.5 -135z" />
<glyph unicode="&#xaa;" horiz-adv-x="984" d="M51 939q0 65 25 112t66.5 77.5t95 47t111.5 21.5v43q0 29 -7.5 46.5t-19 26.5t-25.5 11.5t-27 2.5q-15 0 -31.5 -4.5t-32.5 -11t-30 -14t-24 -13.5q-5 -3 -8.5 -5.5t-7.5 -2.5q-6 0 -13 10l-25 49q-4 5 -4 11t4.5 10.5t9.5 7.5q25 17 63.5 35t86 32.5t103 23.5t114.5 9 q85 0 162 -10t136 -45t94 -102.5t35 -181.5v-335q0 -25 -4.5 -44t-17.5 -31.5t-35.5 -19t-58.5 -6.5h-400q-61 0 -121 12t-107.5 40.5t-77 76.5t-29.5 121zM167 939q0 -29 8 -55.5t29 -46t56 -31t89 -11.5v296q-54 0 -89.5 -13t-56 -34t-28.5 -48.5t-8 -56.5zM690 1369 q9 -9 21.5 -27.5t23 -47t18 -67.5t7.5 -90v-378q18 0 31 1t21.5 6t12.5 14.5t4 26.5v327q0 61 -14.5 103t-35.5 69t-45.5 42t-43.5 21z" />
<glyph unicode="&#xab;" horiz-adv-x="1052" d="M60 520q0 9 6.5 17t12.5 16l356 426q5 5 16 17.5t24 12.5q24 0 24 -31v-218v-22.5t-2.5 -26t-8.5 -27t-18 -25.5l-133 -139l133 -139q12 -12 18 -25.5t8.5 -27t2.5 -26v-22.5v-218q0 -31 -24 -31q-13 0 -24 12.5t-16 17.5l-356 426q-6 8 -12.5 16t-6.5 17zM512 520 q0 9 6.5 17t12.5 16l356 426q5 5 16 17.5t24 12.5q24 0 24 -31v-218v-22.5t-2.5 -26t-8.5 -27t-18 -25.5l-133 -139l133 -139q12 -12 18 -25.5t8.5 -27t2.5 -26v-22.5v-218q0 -31 -24 -31q-13 0 -24 12.5t-16 17.5l-356 426q-6 8 -12.5 16t-6.5 17z" />
<glyph unicode="&#xac;" d="M130 588v171q0 21 21 21h702q21 0 21 -21v-457q0 -21 -22 -21h-171q-21 0 -21 21v264h-509q-21 0 -21 22z" />
<glyph unicode="&#xad;" horiz-adv-x="800" d="M100 358v240q0 21 21 21h558q21 0 21 -21v-240q0 -22 -21 -22h-558q-21 0 -21 22z" />
<glyph unicode="&#xae;" horiz-adv-x="1274" d="M102 950q0 111 42 208t115 170t170 115t208 42t208 -42t169.5 -115t114.5 -170t42 -208t-42 -208t-114.5 -169.5t-169.5 -114.5t-208 -42t-208 42t-170 114.5t-115 169.5t-42 208zM229 950q0 -84 32 -158.5t87.5 -129.5t130 -87t158.5 -32t158.5 32t129.5 87t87 129.5 t32 158.5q0 85 -32 159t-87 129.5t-129.5 87.5t-158.5 32t-158.5 -32t-130 -87.5t-87.5 -129.5t-32 -159zM440 743v439q0 26 11.5 39.5t46.5 13.5h155q42 0 83 -10.5t73.5 -34.5t52 -63.5t19.5 -98.5q0 -56 -18.5 -93.5t-48.5 -61.5l81 -136q7 -11 5 -18.5t-10 -11.5 l-44 -21q-7 -3 -15.5 -1t-13.5 13l-63 143q-34 -12 -72 -15v-85q0 -24 -10.5 -37.5t-41.5 -13.5h-132q-35 0 -46.5 13.5t-11.5 39.5zM597 732q19 0 29.5 3.5t10.5 20.5v405h-40v-429zM682 899q33 0 56.5 10.5t39 28.5t22.5 41.5t7 48.5q0 27 -7 51t-22.5 42.5t-39 29 t-56.5 10.5v-262z" />
<glyph unicode="&#xaf;" horiz-adv-x="820" d="M123 1249v160q0 21 21 21h532q21 0 21 -21v-160q0 -22 -21 -22h-532q-21 0 -21 22z" />
<glyph unicode="&#xb0;" horiz-adv-x="589" d="M50 1219q0 51 19.5 95.5t52.5 77.5t77.5 52.5t95.5 19.5t95.5 -19.5t77.5 -52.5t52 -77.5t19 -95.5t-19 -95.5t-52 -77.5t-77.5 -52t-95.5 -19t-95.5 19t-77.5 52t-52.5 77.5t-19.5 95.5zM168 1220q0 -27 10 -50t27 -40t40.5 -27t49.5 -10q27 0 50 10t40 27t26.5 40 t9.5 50t-9.5 50t-26.5 40t-40 27t-50 10q-26 0 -49.5 -10t-40.5 -27t-27 -40t-10 -50z" />
<glyph unicode="&#xb1;" d="M130 22v171q0 21 21 21h722q21 0 21 -21v-171q0 -22 -21 -22h-722q-21 0 -21 22zM130 538v171q0 21 21 21h254v204q0 21 21 21h171q22 0 22 -21v-204h254q21 0 21 -21v-171q0 -22 -21 -22h-254v-204q0 -21 -22 -21h-171q-21 0 -21 21v204h-254q-21 0 -21 22z" />
<glyph unicode="&#xb2;" horiz-adv-x="780" d="M15 1333q0 4 1.5 6.5t3.5 4.5q28 26 66 46.5t82.5 35t93.5 22.5t100 8q99 0 164.5 -28t104.5 -72t55.5 -99t16.5 -109q0 -57 -18.5 -115t-58 -116t-101.5 -115t-150 -112q55 3 112 5.5t105.5 5t83 3.5t43.5 1q23 0 32 -8.5t9 -28.5v-67q0 -10 -6 -22t-30 -12h-658 q-14 0 -20.5 4t-6.5 18q0 9 5.5 19.5t13.5 22.5q32 49 59.5 107.5t48 119t32 119.5t11.5 109q0 58 -6.5 95t-18 59t-28 30.5t-36.5 8.5q-10 0 -19 -3.5t-16.5 -8t-13.5 -8t-10 -3.5q-5 0 -9 6l-35 63q-2 6 -2 8zM352 757q72 49 123.5 97t84.5 96t48 97t15 101q0 41 -9 78 t-30 68t-55.5 55t-85.5 38q30 -23 49.5 -51t31.5 -59t17 -64t5 -65q0 -48 -8.5 -97.5t-30 -98.5t-59.5 -98t-96 -97z" />
<glyph unicode="&#xb3;" horiz-adv-x="698" d="M21 608l24 74q2 6 5 6.5t6 0.5q4 0 14.5 -3t24.5 -6t31 -6t34 -3q61 0 96 35t35 119q0 78 -17.5 113t-58.5 35q-11 0 -24.5 -3t-21.5 -7q-2 -1 -7 -2t-10 4l-32 46q-9 8 0 17l168 167h-190q-16 0 -24.5 3.5t-13 8.5t-5.5 11.5t-1 12.5v175q0 11 10 20.5t33 9.5h506 q21 0 32 -8t14 -20t-2 -25.5t-16 -24.5l-265 -268q64 -1 121 -17.5t99.5 -49t67 -81.5t24.5 -113q0 -62 -32.5 -112.5t-87.5 -87.5t-127.5 -57t-153.5 -20q-27 0 -58.5 2.5t-64 7.5t-65 12.5t-60.5 17.5q-5 2 -7.5 5.5t-0.5 10.5zM370 620q50 12 92 30.5t72 45t47 59.5 t17 74q0 44 -14 77.5t-39 58t-61 40.5t-79 25q54 -32 86 -84t32 -117q0 -29 -10 -58.5t-29.5 -57.5t-48 -52t-65.5 -41z" />
<glyph unicode="&#xb4;" horiz-adv-x="820" d="M214 1281q0 7 9 15l354 268q7 6 14 6t15 -9l92 -130q7 -8 7 -15q0 -9 -9 -15l-379 -236q-4 -2 -7 -4t-6 -2q-11 0 -17 10l-67 98q-6 7 -6 14z" />
<glyph unicode="&#xb5;" horiz-adv-x="1321" d="M130 -392v1306q0 43 22.5 73.5t76.5 30.5h311q29 0 49 -8t32 -21.5t17.5 -31.5t5.5 -38v-634q0 -60 30 -86t78 -26q23 0 43.5 5t35.5 18t24 34.5t9 53.5v687q0 8 1 16.5t6.5 15t16 11t28.5 4.5h226q9 0 18 -1t15.5 -5.5t11 -14t4.5 -26.5v-924q0 -17 -4.5 -26.5t-11 -14 t-15.5 -5.5t-18 -1h-181q-18 0 -29.5 4t-18.5 16.5t-9.5 35.5t-2.5 62l-9 3q-7 -37 -16 -67t-22 -51t-31 -32.5t-44 -11.5q-22 0 -41 7t-35 25.5t-28.5 49.5t-20.5 79l-10 -4v-486q0 -56 -22 -81.5t-82 -25.5h-313q-18 0 -35 5t-31 15t-22.5 26t-8.5 39zM481 -393 q24 0 39 1.5t24 8t12 19t3 35.5v1205q0 22 -3 35t-12 19.5t-24 8t-39 1.5v-1333zM1018 84q24 0 39 1.5t24 8t12 19t3 35.5v728q0 22 -3 35t-12 19.5t-24 8t-39 1.5v-856z" />
<glyph unicode="&#xb6;" horiz-adv-x="1174" d="M92 1010q0 81 23 144t62.5 110t93 80t114.5 53.5t126 29.5t128 9h63q26 0 33.5 -15t7.5 -32v-1608q0 -17 -7.5 -32t-33.5 -15h-63q-9 0 -18 1t-16 5.5t-11 14t-4 26.5v747q-96 7 -185.5 31.5t-159 78.5t-111.5 144t-42 228zM233 995q0 -69 20.5 -129.5t63.5 -105 t110.5 -70.5t162.5 -26v632q-95 0 -162.5 -21.5t-110.5 -61t-63.5 -95t-20.5 -123.5zM815 -219v1608q0 17 4.5 26.5t11 14t15.5 5.5t18 1h64q26 0 33.5 -15t7.5 -32v-1608q0 -17 -7.5 -32t-33.5 -15h-64q-9 0 -18 1t-15.5 5.5t-11 14t-4.5 26.5z" />
<glyph unicode="&#xb7;" horiz-adv-x="668" d="M102 557q0 48 18.5 90t50 73.5t73.5 49.5t90 18t90 -18t73.5 -49.5t49.5 -73.5t18 -90t-18 -90t-49.5 -73.5t-73.5 -49.5t-90 -18t-90 18t-73.5 49.5t-50 73.5t-18.5 90zM351 411q27 3 51 15.5t41 32t27 45t10 53.5t-10 53.5t-27 45t-41 32t-51 15.5q24 -30 38 -67 t14 -79q0 -41 -14 -78.5t-38 -67.5z" />
<glyph unicode="&#xb8;" horiz-adv-x="820" d="M139 -424q0 10 5 13.5t10 3.5q12 0 27 -5t37 -11t52 -11t74 -5q43 0 73 8.5t49 23.5t27 34t8 40q0 25 -10.5 45.5t-33.5 35t-59.5 22.5t-88.5 8q-5 0 -13.5 1.5t-8.5 17.5q0 4 4.5 27t11 54.5t13.5 66.5l13 65h136l-25 -117q71 -11 117.5 -33.5t74.5 -53.5t39 -67.5 t11 -75.5q0 -71 -29.5 -119.5t-78.5 -78.5t-111.5 -43t-128.5 -13q-21 0 -54 2.5t-64.5 10.5t-54 21.5t-22.5 36.5v96z" />
<glyph unicode="&#xb9;" horiz-adv-x="727" d="M0 1351v6q0 10 4 16t24 9l478 59q11 2 25.5 3.5t19.5 1.5q30 0 45 -8.5t22 -22t7.5 -31.5t0.5 -36v-698q0 -14 -1 -28.5t-9.5 -26.5t-29 -20t-59.5 -8h-298q-29 0 -47 5t-28.5 15.5t-14.5 26t-4 36.5v630l-90 -28q-2 0 -5.5 -1t-8.5 -1q-9 0 -15.5 4t-8.5 13l-6 78 q-1 3 -1 6zM474 645q24 0 38 1.5t21.5 8t10 19t2.5 35.5v607q0 23 -6.5 35t-28.5 12q-8 0 -15.5 -1t-21.5 -3v-714z" />
<glyph unicode="&#xba;" d="M50 1054q0 115 40.5 193.5t106 126.5t148.5 69t167 21q52 0 106 -6.5t105.5 -23t97 -45.5t79.5 -74t54 -108t20 -147q0 -87 -19.5 -152t-53.5 -111t-79.5 -76t-96.5 -47t-106 -23.5t-107 -6.5q-84 0 -167 20.5t-148.5 68t-106 126t-40.5 195.5zM474 1054q0 -78 18 -128 t47 -79.5t65 -41t73 -11.5q-25 5 -49 18t-42.5 41.5t-30 76.5t-11.5 124t14 124t34.5 76.5t43.5 41.5t41 18q-30 0 -65.5 -11.5t-66 -41t-51 -79.5t-20.5 -128zM617 1054q0 -72 9.5 -115.5t26 -67t38.5 -30.5t47 -7q24 0 45.5 10t38.5 35.5t27 69t10 111.5q0 64 -10.5 105.5 t-27.5 65.5t-38.5 33.5t-44.5 9.5q-18 0 -39 -7.5t-39.5 -30.5t-30.5 -66.5t-12 -115.5z" />
<glyph unicode="&#xbb;" horiz-adv-x="1052" d="M101 62v218v22.5t2.5 26t8.5 27t18 25.5l133 139l-133 139q-12 12 -18 25.5t-8.5 27t-2.5 26v22.5v218q0 31 24 31q13 0 24 -12.5t16 -17.5l356 -426q6 -8 12.5 -16t6.5 -17t-6.5 -17t-12.5 -16l-356 -426q-5 -5 -16 -17.5t-24 -12.5q-24 0 -24 31zM553 62v218v22.5 t2.5 26t8.5 27t18 25.5l133 139l-133 139q-12 12 -18 25.5t-8.5 27t-2.5 26v22.5v218q0 31 24 31q13 0 24 -12.5t16 -17.5l356 -426q6 -8 12.5 -16t6.5 -17t-6.5 -17t-12.5 -16l-356 -426q-5 -5 -16 -17.5t-24 -12.5q-24 0 -24 31z" />
<glyph unicode="&#xbc;" horiz-adv-x="1647" d="M0 1351v6q0 9 4 15.5t24 9.5l438 59q11 2 25.5 3.5t19.5 1.5q30 0 45 -8.5t22 -22t7.5 -31.5t0.5 -36v-598q0 -14 -1 -28.5t-9.5 -26.5t-29 -20t-59.5 -8h-258q-29 0 -47 5t-28.5 15.5t-14.5 26t-4 36.5v530l-90 -28q-2 0 -5.5 -1t-8.5 -1q-9 0 -15.5 4t-8.5 13l-6 78 q-1 3 -1 6zM262 55q0 13 12 31l865 1341q11 16 19 21.5t16 5.5q9 0 16 -3.5t16 -8.5l45 -33q23 -14 23 -33q0 -6 -2.5 -12t-7.5 -14l-867 -1344q-6 -8 -15 -16t-22 -8q-11 0 -22 8l-47 30q-11 7 -20 15t-9 20zM434 745q24 0 38 1.5t21.5 8t10 19t2.5 35.5v507q0 23 -6.5 35 t-28.5 12q-8 0 -15.5 -1t-21.5 -3v-614zM817 253q0 13 5 31l123 408q6 21 13 36.5t20 26t33 15.5t52 5h191q26 0 43 -4.5t26.5 -12.5t13 -18.5t3.5 -21.5t-2 -22t-4 -20l-95 -359h102v151q0 11 5 19t22 8h103q17 0 23.5 -6.5t6.5 -20.5v-151h92q14 0 14 -13v-90 q0 -13 -14 -13h-92v-173q0 -14 -6.5 -21t-26.5 -7h-100q-17 0 -22 9t-5 19v173h-432q-51 0 -71.5 13t-20.5 39zM1083 317h73l88 335q1 5 1.5 8.5t0.5 7.5q0 13 -7.5 21t-27.5 8h-28z" />
<glyph unicode="&#xbd;" horiz-adv-x="1711" d="M0 1351v6q0 10 4 16t24 9l438 59q11 2 25.5 3.5t19.5 1.5q30 0 45 -8.5t22 -22t7.5 -31.5t0.5 -36v-598q0 -14 -1 -28.5t-9.5 -26.5t-29 -20t-59.5 -8h-258q-29 0 -47 5t-28.5 15.5t-14.5 26t-4 36.5v530l-90 -28q-2 0 -5.5 -1t-8.5 -1q-9 0 -15.5 4t-8.5 13l-6 78 q-1 3 -1 6zM262 55q0 13 12 31l865 1341q11 16 19 21.5t16 5.5q9 0 16 -3.5t16 -8.5l45 -33q23 -14 23 -33q0 -6 -2.5 -12t-7.5 -14l-867 -1344q-6 -8 -15 -16t-22 -8q-11 0 -22 8l-47 30q-11 7 -20 15t-9 20zM434 745q24 0 38 1.5t21.5 8t10 19t2.5 35.5v507q0 23 -6.5 35 t-28.5 12q-8 0 -15.5 -1t-21.5 -3v-614zM926 690q0 4 1.5 6t3.5 4q28 23 66 42t82.5 32t93.5 20t100 7q99 0 164.5 -25t104.5 -65t55.5 -89.5t16.5 -98.5q0 -51 -18.5 -101.5t-58 -101t-101.5 -100.5t-150 -99q55 3 112 5t105.5 4t83 3t43.5 1q23 0 32 -7.5t9 -25.5v-70 q0 -9 -6 -20t-30 -11h-658q-14 0 -20.5 4t-6.5 16q0 8 5.5 17.5t13.5 20.5q32 45 59.5 97.5t48 107t32 107.5t11.5 98q0 52 -6.5 85.5t-18 53t-28 27.5t-36.5 8q-10 0 -19 -3.5t-16.5 -7t-13.5 -7t-10 -3.5t-9 5l-35 57q-1 2 -1.5 3.5t-0.5 3.5zM1321 234q59 38 100 72 t66 68t36 70t11 79q0 36 -8.5 68.5t-29 59.5t-53.5 47.5t-81 33.5q52 -42 74 -97.5t22 -111.5q0 -37 -6 -72.5t-21.5 -71.5t-42 -72t-67.5 -73z" />
<glyph unicode="&#xbe;" horiz-adv-x="1657" d="M31 715l24 74q2 5 4.5 5.5t5.5 0.5q4 0 14 -2.5t24 -5t30.5 -5t33.5 -2.5q30 0 54 5.5t40.5 19.5t25.5 38t9 61q0 68 -17.5 98.5t-57.5 30.5q-11 0 -24 -3t-21 -6q-2 -1 -7.5 -2t-8.5 4l-22 40q-2 5 -3 8t3 7l145 135h-176q-16 0 -24.5 3t-13 7.5t-5.5 10t-1 10.5v163 q0 10 10 18t33 8h496q20 0 31 -7t14 -17.5t-1.5 -22t-15.5 -21.5l-250 -233q63 -1 117 -15.5t94 -43t62.5 -71t22.5 -98.5q0 -54 -32 -98t-86 -76t-125.5 -49.5t-150.5 -17.5q-26 0 -57 2t-63 6.5t-63.5 11t-59.5 15.5q-5 2 -7.5 5t-0.5 9zM272 55q0 13 12 31l865 1341 q11 16 19 21.5t16 5.5q9 0 16 -3.5t16 -8.5l45 -33q23 -14 23 -33q0 -6 -2.5 -12t-7.5 -14l-867 -1344q-6 -8 -15 -16t-22 -8q-11 0 -22 8l-47 30q-11 7 -20 15t-9 20zM404 735q42 9 77.5 24.5t61 37.5t39.5 50.5t14 63.5q0 41 -12 70t-34.5 48.5t-54.5 30t-72 15.5 q45 -29 71 -73t26 -95q0 -24 -9 -48.5t-25 -47t-37 -42t-45 -34.5zM827 253q0 13 5 31l123 408q6 21 13 36.5t20 26t33 15.5t52 5h191q26 0 43 -4.5t26.5 -12.5t13 -18.5t3.5 -21.5t-2 -22t-4 -20l-95 -359h102v151q0 11 5 19t22 8h103q17 0 23.5 -6.5t6.5 -20.5v-151h92 q14 0 14 -13v-90q0 -13 -14 -13h-92v-173q0 -14 -6.5 -21t-26.5 -7h-100q-17 0 -22 9t-5 19v173h-432q-51 0 -71.5 13t-20.5 39zM1093 317h73l88 335q1 5 1.5 8.5t0.5 7.5q0 13 -7.5 21t-27.5 8h-28z" />
<glyph unicode="&#xbf;" horiz-adv-x="1077" d="M82 337q0 39 6 82.5t24.5 86t54.5 83t95.5 73.5t147 57t210.5 34v123q0 17 7.5 32t33.5 15h90q7 0 14.5 -1t14 -5.5t10.5 -14t4 -26.5v-237q0 -9 -4 -11t-6 -4q-52 -25 -86.5 -61.5t-54.5 -77t-28.5 -81t-8.5 -71.5q0 -96 50 -148.5t142 -52.5q42 0 79.5 12.5t58.5 23.5 q5 2 8.5 4t7.5 2q8 0 14 -10l40 -62q4 -7 4 -12q0 -6 -4.5 -10t-7.5 -6q-72 -48 -180 -76t-245 -28t-230.5 33t-151.5 86t-83.5 118t-25.5 130zM439 333q0 -91 44.5 -142.5t127.5 -57.5q-44 32 -67 84t-23 116q0 31 9 72.5t30 84.5t55 83.5t84 70.5q-76 -26 -126 -64.5 t-80 -81t-42 -86t-12 -79.5zM475 1238q0 48 18.5 90t50 73.5t73.5 49.5t90 18t90 -18t73.5 -49.5t49.5 -73.5t18 -90t-18 -90t-49.5 -73.5t-73.5 -49.5t-90 -18t-90 18t-73.5 49.5t-50 73.5t-18.5 90zM724 1092q27 3 51 15.5t41 32t27 45t10 53.5t-10 53.5t-27 45t-41 32 t-51 15.5q24 -30 38 -67t14 -79q0 -41 -14 -78.5t-38 -67.5z" />
<glyph unicode="&#xc0;" horiz-adv-x="1249" d="M10 25q0 9 3.5 21.5t9.5 29.5l418 1265q15 47 34 70t54 25h149q18 0 31 -4.5t23.5 -15.5t19.5 -29t19 -44l459 -1226q5 -14 7 -25t2 -22q0 -36 -21.5 -53t-45.5 -17h-567q-26 0 -43.5 6.5t-29.5 15.5t-18.5 19t-8.5 18l-11 35h-281l-7 -30q-3 -15 -7 -26.5t-10 -20 t-16.5 -13t-27.5 -4.5h-103q-32 0 -32 25zM244 217h216l-111 391zM308 1785q0 7 7 15l92 130q7 9 15 9q6 0 14 -6l354 -268q9 -8 9 -15t-6 -14l-67 -98q-6 -10 -17 -10q-3 0 -6 2t-7 4l-379 236q-9 6 -9 15zM595 1352l473 -1268h48q18 0 24.5 7.5t-1.5 27.5l-450 1201 q-8 21 -19.5 26.5t-39.5 5.5h-35z" />
<glyph unicode="&#xc1;" horiz-adv-x="1249" d="M10 25q0 9 3.5 21.5t9.5 29.5l418 1265q15 47 34 70t54 25h149q18 0 31 -4.5t23.5 -15.5t19.5 -29t19 -44l459 -1226q5 -14 7 -25t2 -22q0 -36 -21.5 -53t-45.5 -17h-567q-26 0 -43.5 6.5t-29.5 15.5t-18.5 19t-8.5 18l-11 35h-281l-7 -30q-3 -15 -7 -26.5t-10 -20 t-16.5 -13t-27.5 -4.5h-103q-32 0 -32 25zM244 217h216l-111 391zM407 1650q0 7 9 15l354 268q7 6 14 6t15 -9l92 -130q7 -8 7 -15q0 -9 -9 -15l-379 -236q-4 -2 -7 -4t-6 -2q-11 0 -17 10l-67 98q-6 7 -6 14zM595 1352l473 -1268h48q18 0 24.5 7.5t-1.5 27.5l-450 1201 q-8 21 -19.5 26.5t-39.5 5.5h-35z" />
<glyph unicode="&#xc2;" horiz-adv-x="1249" d="M10 25q0 9 3.5 21.5t9.5 29.5l418 1265q15 47 34 70t54 25h149q18 0 31 -4.5t23.5 -15.5t19.5 -29t19 -44l459 -1226q5 -14 7 -25t2 -22q0 -36 -21.5 -53t-45.5 -17h-567q-26 0 -43.5 6.5t-29.5 15.5t-18.5 19t-8.5 18l-11 35h-281l-7 -30q-3 -15 -7 -26.5t-10 -20 t-16.5 -13t-27.5 -4.5h-103q-32 0 -32 25zM244 217h216l-111 391zM276 1640q0 7 9 15l304 258l6 4t8 2t8 -2l6 -4l304 -258q9 -8 9 -15t-6 -14l-67 -88q-8 -10 -17 -10q-3 0 -6 2t-7 4l-224 158l-224 -158q-4 -2 -7 -4t-6 -2q-10 0 -17 10l-67 88q-6 7 -6 14zM595 1352 l473 -1268h48q18 0 24.5 7.5t-1.5 27.5l-450 1201q-8 21 -19.5 26.5t-39.5 5.5h-35z" />
<glyph unicode="&#xc3;" horiz-adv-x="1249" d="M10 25q0 9 3.5 21.5t9.5 29.5l418 1265q15 47 34 70t54 25h149q18 0 31 -4.5t23.5 -15.5t19.5 -29t19 -44l459 -1226q5 -14 7 -25t2 -22q0 -36 -21.5 -53t-45.5 -17h-567q-26 0 -43.5 6.5t-29.5 15.5t-18.5 19t-8.5 18l-11 35h-281l-7 -30q-3 -15 -7 -26.5t-10 -20 t-16.5 -13t-27.5 -4.5h-103q-32 0 -32 25zM244 217h216l-111 391zM269.5 1582q-0.5 6 1 11.5t1.5 8.5q6 50 23 95t43 78.5t60 53.5t75 20q36 0 71 -15t66.5 -32.5t57.5 -32.5t43 -15q23 0 37 7.5t22.5 19.5t12 27.5t5.5 32.5q1 6 5 8.5t20 2.5h107q14 0 15.5 -10t-0.5 -21 q-8 -51 -25 -97t-42.5 -80.5t-59 -55t-74.5 -20.5q-36 0 -71 15t-66.5 33t-57.5 33t-43 15q-23 0 -36.5 -7t-22 -19t-12 -27.5t-5.5 -31.5q-1 -6 -6.5 -8.5t-26.5 -2.5h-100q-10 0 -13.5 4t-4 10zM595 1352l473 -1268h48q18 0 24.5 7.5t-1.5 27.5l-450 1201 q-8 21 -19.5 26.5t-39.5 5.5h-35z" />
<glyph unicode="&#xc4;" horiz-adv-x="1249" d="M10 25q0 9 3.5 21.5t9.5 29.5l418 1265q15 47 34 70t54 25h149q18 0 31 -4.5t23.5 -15.5t19.5 -29t19 -44l459 -1226q5 -14 7 -25t2 -22q0 -36 -21.5 -53t-45.5 -17h-567q-26 0 -43.5 6.5t-29.5 15.5t-18.5 19t-8.5 18l-11 35h-281l-7 -30q-3 -15 -7 -26.5t-10 -20 t-16.5 -13t-27.5 -4.5h-103q-32 0 -32 25zM244 217h216l-111 391zM276 1699q0 27 10.5 51t28 41.5t41.5 28t51 10.5t51 -10.5t41.5 -28t28 -41.5t10.5 -51t-10.5 -51t-28 -41.5t-41.5 -28t-51 -10.5t-51 10.5t-41.5 28t-28 41.5t-10.5 51zM595 1352l473 -1268h48 q18 0 24.5 7.5t-1.5 27.5l-450 1201q-8 21 -19.5 26.5t-39.5 5.5h-35zM668 1699q0 27 10.5 51t28 41.5t41.5 28t51 10.5t51 -10.5t41.5 -28t28 -41.5t10.5 -51t-10.5 -51t-28 -41.5t-41.5 -28t-51 -10.5t-51 10.5t-41.5 28t-28 41.5t-10.5 51z" />
<glyph unicode="&#xc5;" horiz-adv-x="1249" d="M10 25q0 9 3.5 21.5t9.5 29.5l418 1265q8 26 17 44.5t21 30.5q-60 32 -96.5 91.5t-36.5 132.5q0 53 20 100t55 82t82 55.5t100 20.5t99.5 -20.5t81 -55.5t54.5 -82t20 -100q0 -72 -35.5 -130.5t-92.5 -91.5q11 -11 20.5 -29t20.5 -46l459 -1226q5 -14 7 -25t2 -22 q0 -36 -21.5 -53t-45.5 -17h-567q-26 0 -43.5 6.5t-29.5 15.5t-18.5 19t-8.5 18l-11 35h-281l-7 -30q-3 -15 -7 -26.5t-10 -20t-16.5 -13t-27.5 -4.5h-103q-32 0 -32 25zM244 217h216l-111 391zM493 1642q0 -23 8.5 -43t23.5 -35t35 -23.5t43 -8.5t42.5 8.5t34 23.5t23 35 t8.5 43t-8.5 43t-23 34.5t-34 23t-42.5 8.5t-43 -8.5t-35 -23t-23.5 -34.5t-8.5 -43zM595 1352l473 -1268h48q18 0 24.5 7.5t-1.5 27.5l-450 1201q-8 21 -19.5 26.5t-39.5 5.5h-35z" />
<glyph unicode="&#xc6;" horiz-adv-x="1702" d="M-71 19q0 11 14 44l557 1278q20 47 45.5 71t70.5 24h955q29 0 41 -15.5t12 -34.5v-71q0 -19 -11.5 -26t-22.5 -7q-17 0 -50 4t-73 9.5t-82 12t-76 12t-56 8.5l-22 3v-254h372q21 0 21 -21v-100q0 -22 -21 -22h-372v-811q0 -1 25 2.5t63.5 9.5t85.5 12.5t90.5 12.5t79 10 t51.5 4q15 0 25 -7.5t10 -25.5v-92q0 -18 -10.5 -33.5t-44.5 -15.5h-969q-47 0 -76.5 9t-46.5 26t-23 43t-6 61v47h-309l-43 -104q-7 -17 -13.5 -32t-15 -26t-21.5 -17.5t-33 -6.5h-75q-23 0 -34.5 3t-11.5 16zM221 309h264v629zM1068 101l78 10v1234l-78 11v-1255z" />
<glyph unicode="&#xc7;" horiz-adv-x="1282" d="M61 722q0 151 28.5 265.5t77.5 199t114.5 141.5t139.5 91.5t152.5 49t153.5 14.5q82 0 156 -13t135.5 -33t109.5 -45t79 -49q3 -3 7 -6.5t4 -8.5q0 -4 -3 -10l-43 -68q-6 -9 -14 -9q-6 0 -16.5 6.5t-26.5 15t-36 15t-45 6.5q-22 0 -46.5 -7.5t-48.5 -29t-46.5 -60 t-39 -101t-26.5 -152t-10 -212.5t10 -212.5t26.5 -152t39 -101t46.5 -60t48.5 -29t46.5 -7.5q25 0 45 6.5t36 15t26.5 15t16.5 6.5q8 0 14 -9l43 -68q3 -6 3 -10q0 -5 -4 -8.5t-7 -6.5q-29 -23 -73.5 -46.5t-101 -43t-124.5 -33t-144 -16.5l-14 -69q71 -11 117.5 -33.5 t74.5 -53.5t39 -67.5t11 -75.5q0 -71 -29.5 -119.5t-78.5 -78.5t-111.5 -43t-128.5 -13q-21 0 -54 2.5t-64.5 10.5t-54 21.5t-22.5 36.5v96q0 10 5 13.5t10 3.5q12 0 27 -5t37 -11t52 -11t74 -5q43 0 73 8.5t49 23.5t27 34t8 40q0 25 -10.5 45.5t-33.5 35t-59.5 22.5 t-88.5 8q-5 0 -13.5 1.5t-8.5 17.5q0 4 3 20.5t8 40.5t10.5 52.5t11.5 56.5q-69 8 -138 29.5t-132.5 60.5t-118 97.5t-94.5 139.5t-63 187t-23 241zM648 722q0 -124 11.5 -215t32 -156.5t48 -108.5t59 -70.5t65 -42t66.5 -22.5q-11 7 -30 19.5t-41.5 38t-45 68t-41 108.5 t-30 159.5t-11.5 221.5t11.5 221.5t30 159.5t41 108.5t45 68t41.5 38t30 19.5q-33 -9 -66.5 -23t-65 -41.5t-59 -70.5t-48 -108.5t-32 -156.5t-11.5 -215z" />
<glyph unicode="&#xc8;" horiz-adv-x="1309" d="M92 139v1123q0 57 13 91.5t37 53t57.5 24t74.5 5.5h904q34 0 43.5 -15.5t9.5 -34.5v-71q0 -20 -10.5 -26.5t-27.5 -6.5q-10 0 -30.5 2t-47.5 5.5t-58 7.5t-62 9q-72 11 -157 25v-254h372q21 0 21 -21v-100q0 -22 -21 -22h-372v-811q97 14 178 25q34 5 68.5 9.5t63.5 8.5 t50 6t29 2q17 0 29 -6.5t12 -26.5v-92q0 -18 -9 -33.5t-43 -15.5h-972q-47 0 -76.5 9t-46.5 26t-23 43t-6 61zM369 1785q0 7 7 15l92 130q7 9 15 9q6 0 14 -6l354 -268q9 -8 9 -15t-6 -14l-67 -98q-6 -10 -17 -10q-3 0 -6 2t-7 4l-379 236q-9 6 -9 15zM675 101l78 10v1234 l-78 11v-1255z" />
<glyph unicode="&#xc9;" horiz-adv-x="1309" d="M92 139v1123q0 57 13 91.5t37 53t57.5 24t74.5 5.5h904q34 0 43.5 -15.5t9.5 -34.5v-71q0 -20 -10.5 -26.5t-27.5 -6.5q-10 0 -30.5 2t-47.5 5.5t-58 7.5t-62 9q-72 11 -157 25v-254h372q21 0 21 -21v-100q0 -22 -21 -22h-372v-811q97 14 178 25q34 5 68.5 9.5t63.5 8.5 t50 6t29 2q17 0 29 -6.5t12 -26.5v-92q0 -18 -9 -33.5t-43 -15.5h-972q-47 0 -76.5 9t-46.5 26t-23 43t-6 61zM468 1650q0 7 9 15l354 268q7 6 14 6t15 -9l92 -130q7 -8 7 -15q0 -9 -9 -15l-379 -236q-4 -2 -7 -4t-6 -2q-11 0 -17 10l-67 98q-6 7 -6 14zM675 101l78 10v1234 l-78 11v-1255z" />
<glyph unicode="&#xca;" horiz-adv-x="1309" d="M92 139v1123q0 57 13 91.5t37 53t57.5 24t74.5 5.5h904q34 0 43.5 -15.5t9.5 -34.5v-71q0 -20 -10.5 -26.5t-27.5 -6.5q-10 0 -30.5 2t-47.5 5.5t-58 7.5t-62 9q-72 11 -157 25v-254h372q21 0 21 -21v-100q0 -22 -21 -22h-372v-811q97 14 178 25q34 5 68.5 9.5t63.5 8.5 t50 6t29 2q17 0 29 -6.5t12 -26.5v-92q0 -18 -9 -33.5t-43 -15.5h-972q-47 0 -76.5 9t-46.5 26t-23 43t-6 61zM337 1640q0 7 9 15l304 258l6 4t8 2t8 -2l6 -4l304 -258q9 -8 9 -15t-6 -14l-67 -88q-8 -10 -17 -10q-3 0 -6 2t-7 4l-224 158l-224 -158q-4 -2 -7 -4t-6 -2 q-10 0 -17 10l-67 88q-6 7 -6 14zM675 101l78 10v1234l-78 11v-1255z" />
<glyph unicode="&#xcb;" horiz-adv-x="1309" d="M92 139v1123q0 57 13 91.5t37 53t57.5 24t74.5 5.5h904q34 0 43.5 -15.5t9.5 -34.5v-71q0 -20 -10.5 -26.5t-27.5 -6.5q-10 0 -30.5 2t-47.5 5.5t-58 7.5t-62 9q-72 11 -157 25v-254h372q21 0 21 -21v-100q0 -22 -21 -22h-372v-811q97 14 178 25q34 5 68.5 9.5t63.5 8.5 t50 6t29 2q17 0 29 -6.5t12 -26.5v-92q0 -18 -9 -33.5t-43 -15.5h-972q-47 0 -76.5 9t-46.5 26t-23 43t-6 61zM337 1699q0 27 10.5 51t28 41.5t41.5 28t51 10.5t51 -10.5t41.5 -28t28 -41.5t10.5 -51t-10.5 -51t-28 -41.5t-41.5 -28t-51 -10.5t-51 10.5t-41.5 28t-28 41.5 t-10.5 51zM675 101l78 10v1234l-78 11v-1255zM729 1699q0 27 10.5 51t28 41.5t41.5 28t51 10.5t51 -10.5t41.5 -28t28 -41.5t10.5 -51t-10.5 -51t-28 -41.5t-41.5 -28t-51 -10.5t-51 10.5t-41.5 28t-28 41.5t-10.5 51z" />
<glyph unicode="&#xcc;" horiz-adv-x="931" d="M92 139v1157q0 35 6 61t23 43.5t47 26.5t78 9h446q58 0 88.5 -17t43 -42.5t13.5 -54t1 -52.5v-1108q0 -23 -4 -51t-20 -52.5t-49 -41.5t-91 -17h-428q-48 0 -78 9t-47 26t-23 43t-6 61zM174 1785q0 7 7 15l92 130q7 9 15 9q6 0 14 -6l354 -268q9 -8 9 -15t-6 -14l-67 -98 q-6 -10 -17 -10q-3 0 -6 2t-7 4l-379 236q-9 6 -9 15zM675 84q24 0 39 1.5t24 8t12 19t3 35.5v1140q0 22 -3 35t-12 19.5t-24 8t-39 1.5v-1268z" />
<glyph unicode="&#xcd;" horiz-adv-x="931" d="M92 139v1157q0 35 6 61t23 43.5t47 26.5t78 9h446q58 0 88.5 -17t43 -42.5t13.5 -54t1 -52.5v-1108q0 -23 -4 -51t-20 -52.5t-49 -41.5t-91 -17h-428q-48 0 -78 9t-47 26t-23 43t-6 61zM273 1650q0 7 9 15l354 268q7 6 14 6t15 -9l92 -130q7 -8 7 -15q0 -9 -9 -15 l-379 -236q-4 -2 -7 -4t-6 -2q-11 0 -17 10l-67 98q-6 7 -6 14zM675 84q24 0 39 1.5t24 8t12 19t3 35.5v1140q0 22 -3 35t-12 19.5t-24 8t-39 1.5v-1268z" />
<glyph unicode="&#xce;" horiz-adv-x="931" d="M92 139v1157q0 35 6 61t23 43.5t47 26.5t78 9h446q58 0 88.5 -17t43 -42.5t13.5 -54t1 -52.5v-1108q0 -23 -4 -51t-20 -52.5t-49 -41.5t-91 -17h-428q-48 0 -78 9t-47 26t-23 43t-6 61zM142 1640q0 7 9 15l304 258l6 4t8 2t8 -2l6 -4l304 -258q9 -8 9 -15t-6 -14l-67 -88 q-8 -10 -17 -10q-3 0 -6 2t-7 4l-224 158l-224 -158q-4 -2 -7 -4t-6 -2q-10 0 -17 10l-67 88q-6 7 -6 14zM675 84q24 0 39 1.5t24 8t12 19t3 35.5v1140q0 22 -3 35t-12 19.5t-24 8t-39 1.5v-1268z" />
<glyph unicode="&#xcf;" horiz-adv-x="931" d="M92 139v1157q0 35 6 61t23 43.5t47 26.5t78 9h446q58 0 88.5 -17t43 -42.5t13.5 -54t1 -52.5v-1108q0 -23 -4 -51t-20 -52.5t-49 -41.5t-91 -17h-428q-48 0 -78 9t-47 26t-23 43t-6 61zM142 1699q0 27 10.5 51t28 41.5t41.5 28t51 10.5t51 -10.5t41.5 -28t28 -41.5 t10.5 -51t-10.5 -51t-28 -41.5t-41.5 -28t-51 -10.5t-51 10.5t-41.5 28t-28 41.5t-10.5 51zM534 1699q0 27 10.5 51t28 41.5t41.5 28t51 10.5t51 -10.5t41.5 -28t28 -41.5t10.5 -51t-10.5 -51t-28 -41.5t-41.5 -28t-51 -10.5t-51 10.5t-41.5 28t-28 41.5t-10.5 51zM675 84 q24 0 39 1.5t24 8t12 19t3 35.5v1140q0 22 -3 35t-12 19.5t-24 8t-39 1.5v-1268z" />
<glyph unicode="&#xd0;" horiz-adv-x="1423" d="M0 546v101q0 21 21 21h101v628q0 35 6 61t23 43.5t47 26.5t78 9h481q75 0 149 -10.5t141 -37.5t124.5 -74.5t99.5 -122.5t66 -180t24 -247q0 -167 -25.5 -288.5t-69 -206.5t-103 -137.5t-128 -82t-142 -39.5t-146.5 -10h-471q-48 0 -78 9t-47 26t-23 43t-6 61v385h-101 q-21 0 -21 22zM675 138h78v1160h-78v-1160zM868 139q93 1 160 48.5t109.5 129.5t62.5 191.5t20 234.5q0 124 -20 226t-63 174t-109.5 112t-159.5 41v-628h159q21 0 21 -21v-101q0 -22 -21 -22h-159v-385z" />
<glyph unicode="&#xd1;" horiz-adv-x="1380" d="M92 57v1305q0 74 82 74h338q38 0 63.5 -16t51.5 -42l487 -483q-10 119 -18 220q-4 43 -7.5 86t-6.5 80.5t-5.5 65.5t-3.5 42q-2 16 6.5 31.5t39.5 15.5h120q19 0 34 -12t15 -46v-1304q0 -74 -70 -74h-347q-33 0 -54.5 13t-38.5 30l-512 535q9 -130 18 -239q3 -47 7 -93 t7 -86t5.5 -70t3.5 -43q2 -17 -5.5 -32t-34.5 -15h-126q-18 0 -33.5 11.5t-15.5 45.5zM359.5 1625q-0.5 6 1 11.5t1.5 8.5q6 50 23 95t43 78.5t60 53.5t75 20q36 0 71 -15t66.5 -32.5t57.5 -32.5t43 -15q23 0 37 7.5t22.5 19.5t12 27.5t5.5 32.5q1 6 5 8.5t20 2.5h107 q14 0 15.5 -10t-0.5 -21q-8 -51 -25 -97t-42.5 -80.5t-59 -55t-74.5 -20.5q-36 0 -71 15t-66.5 33t-57.5 33t-43 15q-23 0 -36.5 -7t-22 -19t-12 -27.5t-5.5 -31.5q-1 -6 -6.5 -8.5t-26.5 -2.5h-100q-10 0 -13.5 4t-4 10zM426 1352l688 -684v106l-556 551q-18 18 -29.5 22.5 t-31.5 4.5h-71z" />
<glyph unicode="&#xd2;" horiz-adv-x="1454" d="M61 723q0 152 27 268t74.5 200.5t111.5 140.5t138 89.5t154.5 47.5t160.5 14t161 -14t155 -47.5t138 -89.5t111 -140.5t74 -200.5t27 -268t-27 -268t-74 -200.5t-111 -141t-138 -90.5t-155 -48t-161 -14t-160.5 14t-154.5 48t-138 90.5t-111.5 141t-74.5 200t-27 268.5z M501 1828q0 7 7 15l92 130q7 9 15 9q6 0 14 -6l354 -268q9 -8 9 -15t-6 -14l-67 -98q-6 -10 -17 -10q-3 0 -6 2t-7 4l-379 236q-9 6 -9 15zM649 723q0 -134 26 -227.5t69.5 -152.5t99.5 -87t115 -31q-41 7 -81.5 39t-72.5 92t-52.5 151t-20.5 216t20.5 216t52.5 151 t72.5 91.5t81.5 39.5q-59 -3 -115 -31t-99.5 -87t-69.5 -152.5t-26 -227.5zM817 723q0 -125 18.5 -209t49.5 -135t69.5 -72.5t79.5 -21.5t80 21.5t69.5 72.5t49 135t18.5 209t-18.5 209t-49 135t-69.5 72.5t-80 21.5t-79.5 -21.5t-69.5 -72.5t-49.5 -135t-18.5 -209z" />
<glyph unicode="&#xd3;" horiz-adv-x="1454" d="M61 723q0 152 27 268t74.5 200.5t111.5 140.5t138 89.5t154.5 47.5t160.5 14t161 -14t155 -47.5t138 -89.5t111 -140.5t74 -200.5t27 -268t-27 -268t-74 -200.5t-111 -141t-138 -90.5t-155 -48t-161 -14t-160.5 14t-154.5 48t-138 90.5t-111.5 141t-74.5 200t-27 268.5z M504 1693q0 7 9 15l354 268q7 6 14 6t15 -9l92 -130q7 -8 7 -15q0 -9 -9 -15l-379 -236q-4 -2 -7 -4t-6 -2q-11 0 -17 10l-67 98q-6 7 -6 14zM649 723q0 -134 26 -227.5t69.5 -152.5t99.5 -87t115 -31q-41 7 -81.5 39t-72.5 92t-52.5 151t-20.5 216t20.5 216t52.5 151 t72.5 91.5t81.5 39.5q-59 -3 -115 -31t-99.5 -87t-69.5 -152.5t-26 -227.5zM817 723q0 -125 18.5 -209t49.5 -135t69.5 -72.5t79.5 -21.5t80 21.5t69.5 72.5t49 135t18.5 209t-18.5 209t-49 135t-69.5 72.5t-80 21.5t-79.5 -21.5t-69.5 -72.5t-49.5 -135t-18.5 -209z" />
<glyph unicode="&#xd4;" horiz-adv-x="1454" d="M61 723q0 152 27 268t74.5 200.5t111.5 140.5t138 89.5t154.5 47.5t160.5 14t161 -14t155 -47.5t138 -89.5t111 -140.5t74 -200.5t27 -268t-27 -268t-74 -200.5t-111 -141t-138 -90.5t-155 -48t-161 -14t-160.5 14t-154.5 48t-138 90.5t-111.5 141t-74.5 200t-27 268.5z M400 1683q0 7 9 15l304 258l6 4t8 2t8 -2l6 -4l304 -258q9 -8 9 -15t-6 -14l-67 -88q-8 -10 -17 -10q-3 0 -6 2t-7 4l-224 158l-224 -158q-4 -2 -7 -4t-6 -2q-10 0 -17 10l-67 88q-6 7 -6 14zM649 723q0 -134 26 -227.5t69.5 -152.5t99.5 -87t115 -31q-41 7 -81.5 39 t-72.5 92t-52.5 151t-20.5 216t20.5 216t52.5 151t72.5 91.5t81.5 39.5q-59 -3 -115 -31t-99.5 -87t-69.5 -152.5t-26 -227.5zM817 723q0 -125 18.5 -209t49.5 -135t69.5 -72.5t79.5 -21.5t80 21.5t69.5 72.5t49 135t18.5 209t-18.5 209t-49 135t-69.5 72.5t-80 21.5 t-79.5 -21.5t-69.5 -72.5t-49.5 -135t-18.5 -209z" />
<glyph unicode="&#xd5;" horiz-adv-x="1454" d="M61 723q0 152 27 268t74.5 200.5t111.5 140.5t138 89.5t154.5 47.5t160.5 14t161 -14t155 -47.5t138 -89.5t111 -140.5t74 -200.5t27 -268t-27 -268t-74 -200.5t-111 -141t-138 -90.5t-155 -48t-161 -14t-160.5 14t-154.5 48t-138 90.5t-111.5 141t-74.5 200t-27 268.5z M396.5 1625q-0.5 6 1 11.5t1.5 8.5q6 50 23 95t43 78.5t60 53.5t75 20q36 0 71 -15t66.5 -32.5t57.5 -32.5t43 -15q23 0 37 7.5t22.5 19.5t12 27.5t5.5 32.5q1 6 5 8.5t20 2.5h107q14 0 15.5 -10t-0.5 -21q-8 -51 -25 -97t-42.5 -80.5t-59 -55t-74.5 -20.5q-36 0 -71 15 t-66.5 33t-57.5 33t-43 15q-23 0 -36.5 -7t-22 -19t-12 -27.5t-5.5 -31.5q-1 -6 -6.5 -8.5t-26.5 -2.5h-100q-10 0 -13.5 4t-4 10zM649 723q0 -134 26 -227.5t69.5 -152.5t99.5 -87t115 -31q-41 7 -81.5 39t-72.5 92t-52.5 151t-20.5 216t20.5 216t52.5 151t72.5 91.5 t81.5 39.5q-59 -3 -115 -31t-99.5 -87t-69.5 -152.5t-26 -227.5zM817 723q0 -125 18.5 -209t49.5 -135t69.5 -72.5t79.5 -21.5t80 21.5t69.5 72.5t49 135t18.5 209t-18.5 209t-49 135t-69.5 72.5t-80 21.5t-79.5 -21.5t-69.5 -72.5t-49.5 -135t-18.5 -209z" />
<glyph unicode="&#xd6;" horiz-adv-x="1454" d="M61 723q0 152 27 268t74.5 200.5t111.5 140.5t138 89.5t154.5 47.5t160.5 14t161 -14t155 -47.5t138 -89.5t111 -140.5t74 -200.5t27 -268t-27 -268t-74 -200.5t-111 -141t-138 -90.5t-155 -48t-161 -14t-160.5 14t-154.5 48t-138 90.5t-111.5 141t-74.5 200t-27 268.5z M400 1742q0 27 10.5 51t28 41.5t41.5 28t51 10.5t51 -10.5t41.5 -28t28 -41.5t10.5 -51t-10.5 -51t-28 -41.5t-41.5 -28t-51 -10.5t-51 10.5t-41.5 28t-28 41.5t-10.5 51zM649 723q0 -134 26 -227.5t69.5 -152.5t99.5 -87t115 -31q-41 7 -81.5 39t-72.5 92t-52.5 151 t-20.5 216t20.5 216t52.5 151t72.5 91.5t81.5 39.5q-59 -3 -115 -31t-99.5 -87t-69.5 -152.5t-26 -227.5zM792 1742q0 27 10.5 51t28 41.5t41.5 28t51 10.5t51 -10.5t41.5 -28t28 -41.5t10.5 -51t-10.5 -51t-28 -41.5t-41.5 -28t-51 -10.5t-51 10.5t-41.5 28t-28 41.5 t-10.5 51zM817 723q0 -125 18.5 -209t49.5 -135t69.5 -72.5t79.5 -21.5t80 21.5t69.5 72.5t49 135t18.5 209t-18.5 209t-49 135t-69.5 72.5t-80 21.5t-79.5 -21.5t-69.5 -72.5t-49.5 -135t-18.5 -209z" />
<glyph unicode="&#xd7;" d="M145 300q0 7 8 15l208 208l-208 208q-8 8 -8 15t8 15l121 121q7 7 15 7t15 -7l208 -208l208 208q8 8 15 8t15 -8l121 -121q7 -7 7 -15t-7 -15l-208 -208l208 -208q7 -7 7 -15t-7 -15l-121 -121q-8 -8 -15 -8t-15 8l-208 208l-208 -208q-8 -8 -15 -8t-15 8l-121 121 q-8 8 -8 15z" />
<glyph unicode="&#xd8;" horiz-adv-x="1475" d="M61 723q0 152 27 268t74.5 200.5t111.5 140.5t138 89.5t154.5 47.5t160.5 14q73 0 146.5 -11.5t142.5 -39t130 -73t110 -112.5l143 241q7 13 20 13q8 0 16 -5l71 -46q12 -8 12 -19q0 -9 -6 -19l-181 -305q29 -76 45.5 -171t16.5 -213q0 -152 -27 -268t-74 -200.5 t-111 -141t-138 -90.5t-155 -48t-161 -14q-39 0 -76 3l-168 -284q-7 -13 -21 -13q-10 0 -16 5l-68 47q-5 4 -8.5 8.5t-3.5 12.5q0 7 6 18l136 230q-90 24 -171.5 76t-142.5 139.5t-97 215t-36 304.5zM649 723q0 -134 26 -227.5t69.5 -152.5t99.5 -87t115 -31q-41 7 -81.5 39 t-72.5 92t-52.5 151t-20.5 216t20.5 216t52.5 151t72.5 91.5t81.5 39.5q-59 -3 -115 -31t-99.5 -87t-69.5 -152.5t-26 -227.5zM817 723q0 -111 15 -190l333 561q-29 36 -62.5 51.5t-68.5 15.5q-41 0 -79.5 -21.5t-69.5 -72.5t-49.5 -135t-18.5 -209zM891 368 q30 -45 67.5 -64t75.5 -19q41 0 80 21.5t69.5 72.5t49 135t18.5 209q0 66 -5.5 119t-14.5 97z" />
<glyph unicode="&#xd9;" horiz-adv-x="1294" d="M92 517v779q0 35 6 61t23 43.5t47 26.5t78 9h446q58 0 88.5 -17t43 -42.5t13.5 -54t1 -52.5v-1121q90 18 130 83t40 193v964q0 17 7.5 32t33.5 15h104q9 0 18 -1t16 -5.5t11 -14t4 -26.5v-872q0 -114 -22 -199.5t-61 -147.5t-92 -102t-115.5 -64t-132 -33.5t-140.5 -9.5 q-68 0 -135.5 8.5t-128 30.5t-112.5 61t-90 101t-59.5 149t-21.5 206zM387 1785q0 7 7 15l92 130q7 9 15 9q6 0 14 -6l354 -268q9 -8 9 -15t-6 -14l-67 -98q-6 -10 -17 -10q-3 0 -6 2t-7 4l-379 236q-9 6 -9 15zM675 138h78v1150q0 22 -3 35t-12 19.5t-24 8t-39 1.5v-1214z " />
<glyph unicode="&#xda;" horiz-adv-x="1294" d="M92 517v779q0 35 6 61t23 43.5t47 26.5t78 9h446q58 0 88.5 -17t43 -42.5t13.5 -54t1 -52.5v-1121q90 18 130 83t40 193v964q0 17 7.5 32t33.5 15h104q9 0 18 -1t16 -5.5t11 -14t4 -26.5v-872q0 -114 -22 -199.5t-61 -147.5t-92 -102t-115.5 -64t-132 -33.5t-140.5 -9.5 q-68 0 -135.5 8.5t-128 30.5t-112.5 61t-90 101t-59.5 149t-21.5 206zM486 1650q0 7 9 15l354 268q7 6 14 6t15 -9l92 -130q7 -8 7 -15q0 -9 -9 -15l-379 -236q-4 -2 -7 -4t-6 -2q-11 0 -17 10l-67 98q-6 7 -6 14zM675 138h78v1150q0 22 -3 35t-12 19.5t-24 8t-39 1.5v-1214 z" />
<glyph unicode="&#xdb;" horiz-adv-x="1294" d="M92 517v779q0 35 6 61t23 43.5t47 26.5t78 9h446q58 0 88.5 -17t43 -42.5t13.5 -54t1 -52.5v-1121q90 18 130 83t40 193v964q0 17 7.5 32t33.5 15h104q9 0 18 -1t16 -5.5t11 -14t4 -26.5v-872q0 -114 -22 -199.5t-61 -147.5t-92 -102t-115.5 -64t-132 -33.5t-140.5 -9.5 q-68 0 -135.5 8.5t-128 30.5t-112.5 61t-90 101t-59.5 149t-21.5 206zM355 1640q0 7 9 15l304 258l6 4t8 2t8 -2l6 -4l304 -258q9 -8 9 -15t-6 -14l-67 -88q-8 -10 -17 -10q-3 0 -6 2t-7 4l-224 158l-224 -158q-4 -2 -7 -4t-6 -2q-10 0 -17 10l-67 88q-6 7 -6 14zM675 138 h78v1150q0 22 -3 35t-12 19.5t-24 8t-39 1.5v-1214z" />
<glyph unicode="&#xdc;" horiz-adv-x="1294" d="M92 517v779q0 35 6 61t23 43.5t47 26.5t78 9h446q58 0 88.5 -17t43 -42.5t13.5 -54t1 -52.5v-1121q90 18 130 83t40 193v964q0 17 7.5 32t33.5 15h104q9 0 18 -1t16 -5.5t11 -14t4 -26.5v-872q0 -114 -22 -199.5t-61 -147.5t-92 -102t-115.5 -64t-132 -33.5t-140.5 -9.5 q-68 0 -135.5 8.5t-128 30.5t-112.5 61t-90 101t-59.5 149t-21.5 206zM355 1699q0 27 10.5 51t28 41.5t41.5 28t51 10.5t51 -10.5t41.5 -28t28 -41.5t10.5 -51t-10.5 -51t-28 -41.5t-41.5 -28t-51 -10.5t-51 10.5t-41.5 28t-28 41.5t-10.5 51zM675 138h78v1150q0 22 -3 35 t-12 19.5t-24 8t-39 1.5v-1214zM747 1699q0 27 10.5 51t28 41.5t41.5 28t51 10.5t51 -10.5t41.5 -28t28 -41.5t10.5 -51t-10.5 -51t-28 -41.5t-41.5 -28t-51 -10.5t-51 10.5t-41.5 28t-28 41.5t-10.5 51z" />
<glyph unicode="&#xdd;" horiz-adv-x="1229" d="M0 1366q0 35 22 52.5t46 17.5h546q25 0 43 -6.5t30 -15.5t18.5 -19.5t9.5 -18.5l176 -483l160 461q6 17 11.5 32t13 26t18.5 17.5t29 6.5h92q14 0 24 -6t10 -20q0 -19 -12 -50l-227 -578v-642q0 -35 -7 -61t-23.5 -43.5t-44 -26.5t-69.5 -9h-472q-39 0 -64 9t-39.5 26 t-20.5 43t-6 61v621l-254 559q-6 14 -8 25t-2 22zM520 1650q0 7 9 15l354 268q7 6 14 6t15 -9l92 -130q7 -8 7 -15q0 -9 -9 -15l-379 -236q-4 -2 -7 -4t-6 -2q-11 0 -17 10l-67 98q-6 7 -6 14zM554 1352l293 -800v-468q24 0 39 1.5t24 8t12 19t3 35.5v412l-279 761 q-6 17 -16.5 24t-27.5 7h-48z" />
<glyph unicode="&#xde;" horiz-adv-x="1294" d="M92 139v1157q0 35 6 61t23 43.5t47 26.5t78 9h446q46 0 75 -8.5t44.5 -25.5t21 -43t5.5 -61v-141q85 -12 160.5 -38.5t132 -75t89.5 -122t33 -178.5q0 -123 -33.5 -207.5t-90.5 -139t-132.5 -84t-158.5 -41.5v-138q0 -34 -5 -59t-20 -41.5t-41.5 -24.5t-68.5 -8h-478 q-40 0 -65.5 9t-40.5 26t-21 43t-6 61zM675 84q24 0 39 1.5t24 8t12 19t3 35.5v1140q0 22 -3 35t-12 19.5t-24 8t-39 1.5v-1268zM838 403q72 11 124 40.5t85 72.5t49 97.5t16 115.5q0 60 -16 110t-49 88.5t-85 63.5t-124 34v-622z" />
<glyph unicode="&#xdf;" horiz-adv-x="1411" d="M104 139v1060q0 94 30.5 164.5t81.5 121.5t118.5 85t141.5 53.5t149.5 27.5t143.5 8q79 0 157.5 -9t149.5 -34t132.5 -68t106.5 -111t70.5 -164t25.5 -226q0 -132 -25 -224.5t-64 -156t-87.5 -104t-95.5 -68.5q27 -12 54.5 -30t49.5 -43.5t35.5 -59.5t13.5 -80 q0 -77 -29.5 -130t-81.5 -86t-121.5 -48.5t-149.5 -16.5q-5 0 -13.5 2t-7.5 18v97q0 12 7 14t12 2q53 1 97.5 7.5t77 22t50.5 42t18 67.5q0 51 -18 80t-50 43.5t-76 17.5t-96 3q-5 0 -13.5 1.5t-8.5 17.5v86q0 14 7 16t12 2q90 4 157.5 44.5t113 108t68.5 158.5t23 197 q0 93 -19 176t-55.5 144.5t-90 97.5t-122.5 36q-30 0 -56 -6.5t-44.5 -22.5t-29.5 -41.5t-11 -63.5v-1231q0 -32 -7 -57t-24 -42.5t-45 -27t-70 -9.5h-438q-48 0 -78 9t-47 26t-23 43t-6 61zM679 84q24 0 39 1.5t24 8t12 19t3 35.5v1212q0 49 12.5 84t33.5 59t48 38.5 t56 21.5q-48 1 -89.5 -10t-72.5 -35.5t-48.5 -63.5t-17.5 -94v-1276z" />
<glyph unicode="&#xe0;" horiz-adv-x="1290" d="M63 334q0 87 33 149t88.5 103t127.5 63t149 28v69q0 39 -10 62t-25.5 34.5t-34 15t-35.5 3.5q-20 0 -42.5 -6t-43.5 -14.5t-40 -18.5t-32 -18q-6 -4 -11 -7t-10 -3q-9 0 -17 13l-34 54q-5 7 -5 15t6.5 14t12.5 10q33 23 84 47t114.5 43t137.5 31t153 12q75 0 146.5 -5 t135 -21.5t116 -47t91 -80.5t59.5 -123t21 -175v-446q0 -33 -6 -58.5t-23 -42.5t-47 -25.5t-78 -8.5h-534q-54 0 -108.5 7t-104 22.5t-92.5 40.5t-74.5 62t-49.5 87t-18 115zM205 333q0 -42 13 -79.5t43 -65.5t79 -44t121 -16v422q-72 0 -121 -18t-79 -48t-43 -69.5 t-13 -81.5zM373 1416q0 7 7 15l92 130q7 9 15 9q6 0 14 -6l354 -268q9 -8 9 -15t-6 -14l-67 -98q-6 -10 -17 -10q-3 0 -6 2t-7 4l-379 236q-9 6 -9 15zM942 912q12 -13 28.5 -37t30.5 -61t24 -88.5t10 -118.5v-523q24 0 39 1.5t24 8t12 19t3 35.5v455q0 81 -17 136.5 t-42.5 91t-55.5 54t-56 27.5z" />
<glyph unicode="&#xe1;" horiz-adv-x="1290" d="M63 334q0 87 33 149t88.5 103t127.5 63t149 28v69q0 39 -10 62t-25.5 34.5t-34 15t-35.5 3.5q-20 0 -42.5 -6t-43.5 -14.5t-40 -18.5t-32 -18q-6 -4 -11 -7t-10 -3q-9 0 -17 13l-34 54q-5 7 -5 15t6.5 14t12.5 10q33 23 84 47t114.5 43t137.5 31t153 12q75 0 146.5 -5 t135 -21.5t116 -47t91 -80.5t59.5 -123t21 -175v-446q0 -33 -6 -58.5t-23 -42.5t-47 -25.5t-78 -8.5h-534q-54 0 -108.5 7t-104 22.5t-92.5 40.5t-74.5 62t-49.5 87t-18 115zM205 333q0 -42 13 -79.5t43 -65.5t79 -44t121 -16v422q-72 0 -121 -18t-79 -48t-43 -69.5 t-13 -81.5zM472 1281q0 7 9 15l354 268q7 6 14 6t15 -9l92 -130q7 -8 7 -15q0 -9 -9 -15l-379 -236q-4 -2 -7 -4t-6 -2q-11 0 -17 10l-67 98q-6 7 -6 14zM942 912q12 -13 28.5 -37t30.5 -61t24 -88.5t10 -118.5v-523q24 0 39 1.5t24 8t12 19t3 35.5v455q0 81 -17 136.5 t-42.5 91t-55.5 54t-56 27.5z" />
<glyph unicode="&#xe2;" horiz-adv-x="1290" d="M63 334q0 87 33 149t88.5 103t127.5 63t149 28v69q0 39 -10 62t-25.5 34.5t-34 15t-35.5 3.5q-20 0 -42.5 -6t-43.5 -14.5t-40 -18.5t-32 -18q-6 -4 -11 -7t-10 -3q-9 0 -17 13l-34 54q-5 7 -5 15t6.5 14t12.5 10q33 23 84 47t114.5 43t137.5 31t153 12q75 0 146.5 -5 t135 -21.5t116 -47t91 -80.5t59.5 -123t21 -175v-446q0 -33 -6 -58.5t-23 -42.5t-47 -25.5t-78 -8.5h-534q-54 0 -108.5 7t-104 22.5t-92.5 40.5t-74.5 62t-49.5 87t-18 115zM205 333q0 -42 13 -79.5t43 -65.5t79 -44t121 -16v422q-72 0 -121 -18t-79 -48t-43 -69.5 t-13 -81.5zM341 1271q0 7 9 15l304 258l6 4t8 2t8 -2l6 -4l304 -258q9 -8 9 -15t-6 -14l-67 -88q-8 -10 -17 -10q-3 0 -6 2t-7 4l-224 158l-224 -158q-4 -2 -7 -4t-6 -2q-10 0 -17 10l-67 88q-6 7 -6 14zM942 912q12 -13 28.5 -37t30.5 -61t24 -88.5t10 -118.5v-523 q24 0 39 1.5t24 8t12 19t3 35.5v455q0 81 -17 136.5t-42.5 91t-55.5 54t-56 27.5z" />
<glyph unicode="&#xe3;" horiz-adv-x="1290" d="M63 334q0 87 33 149t88.5 103t127.5 63t149 28v69q0 39 -10 62t-25.5 34.5t-34 15t-35.5 3.5q-20 0 -42.5 -6t-43.5 -14.5t-40 -18.5t-32 -18q-6 -4 -11 -7t-10 -3q-9 0 -17 13l-34 54q-5 7 -5 15t6.5 14t12.5 10q33 23 84 47t114.5 43t137.5 31t153 12q75 0 146.5 -5 t135 -21.5t116 -47t91 -80.5t59.5 -123t21 -175v-446q0 -33 -6 -58.5t-23 -42.5t-47 -25.5t-78 -8.5h-534q-54 0 -108.5 7t-104 22.5t-92.5 40.5t-74.5 62t-49.5 87t-18 115zM205 333q0 -42 13 -79.5t43 -65.5t79 -44t121 -16v422q-72 0 -121 -18t-79 -48t-43 -69.5 t-13 -81.5zM334.5 1213q-0.5 6 1 11.5t1.5 8.5q6 50 23 95t43 78.5t60 53.5t75 20q36 0 71 -15t66.5 -32.5t57.5 -32.5t43 -15q23 0 37 7.5t22.5 19.5t12 27.5t5.5 32.5q1 6 5 8.5t20 2.5h107q14 0 15.5 -10t-0.5 -21q-8 -51 -25 -97t-42.5 -80.5t-59 -55t-74.5 -20.5 q-36 0 -71 15t-66.5 33t-57.5 33t-43 15q-23 0 -36.5 -7t-22 -19t-12 -27.5t-5.5 -31.5q-1 -6 -6.5 -8.5t-26.5 -2.5h-100q-10 0 -13.5 4t-4 10zM942 912q12 -13 28.5 -37t30.5 -61t24 -88.5t10 -118.5v-523q24 0 39 1.5t24 8t12 19t3 35.5v455q0 81 -17 136.5t-42.5 91 t-55.5 54t-56 27.5z" />
<glyph unicode="&#xe4;" horiz-adv-x="1290" d="M63 334q0 87 33 149t88.5 103t127.5 63t149 28v69q0 39 -10 62t-25.5 34.5t-34 15t-35.5 3.5q-20 0 -42.5 -6t-43.5 -14.5t-40 -18.5t-32 -18q-6 -4 -11 -7t-10 -3q-9 0 -17 13l-34 54q-5 7 -5 15t6.5 14t12.5 10q33 23 84 47t114.5 43t137.5 31t153 12q75 0 146.5 -5 t135 -21.5t116 -47t91 -80.5t59.5 -123t21 -175v-446q0 -33 -6 -58.5t-23 -42.5t-47 -25.5t-78 -8.5h-534q-54 0 -108.5 7t-104 22.5t-92.5 40.5t-74.5 62t-49.5 87t-18 115zM205 333q0 -42 13 -79.5t43 -65.5t79 -44t121 -16v422q-72 0 -121 -18t-79 -48t-43 -69.5 t-13 -81.5zM341 1330q0 27 10.5 51t28 41.5t41.5 28t51 10.5t51 -10.5t41.5 -28t28 -41.5t10.5 -51t-10.5 -51t-28 -41.5t-41.5 -28t-51 -10.5t-51 10.5t-41.5 28t-28 41.5t-10.5 51zM733 1330q0 27 10.5 51t28 41.5t41.5 28t51 10.5t51 -10.5t41.5 -28t28 -41.5t10.5 -51 t-10.5 -51t-28 -41.5t-41.5 -28t-51 -10.5t-51 10.5t-41.5 28t-28 41.5t-10.5 51zM942 912q12 -13 28.5 -37t30.5 -61t24 -88.5t10 -118.5v-523q24 0 39 1.5t24 8t12 19t3 35.5v455q0 81 -17 136.5t-42.5 91t-55.5 54t-56 27.5z" />
<glyph unicode="&#xe5;" horiz-adv-x="1290" d="M63 334q0 87 33 149t88.5 103t127.5 63t149 28v69q0 39 -10 62t-25.5 34.5t-34 15t-35.5 3.5q-20 0 -42.5 -6t-43.5 -14.5t-40 -18.5t-32 -18q-6 -4 -11 -7t-10 -3q-9 0 -17 13l-34 54q-5 7 -5 15t6.5 14t12.5 10q33 23 84 47t114.5 43t137.5 31t153 12q75 0 146.5 -5 t135 -21.5t116 -47t91 -80.5t59.5 -123t21 -175v-446q0 -33 -6 -58.5t-23 -42.5t-47 -25.5t-78 -8.5h-534q-54 0 -108.5 7t-104 22.5t-92.5 40.5t-74.5 62t-49.5 87t-18 115zM205 333q0 -42 13 -79.5t43 -65.5t79 -44t121 -16v422q-72 0 -121 -18t-79 -48t-43 -69.5 t-13 -81.5zM411 1404q0 53 20 100t55 82t82 55.5t100 20.5t99.5 -20.5t81 -55.5t54.5 -82t20 -100t-20 -99.5t-54.5 -81t-81 -54.5t-99.5 -20t-100 20t-82 54.5t-55 81t-20 99.5zM558 1406q0 -23 8.5 -43t23.5 -35t35 -23.5t43 -8.5t42.5 8.5t34 23.5t23 35t8.5 43t-8.5 43 t-23 34.5t-34 23t-42.5 8.5t-43 -8.5t-35 -23t-23.5 -34.5t-8.5 -43zM942 912q12 -13 28.5 -37t30.5 -61t24 -88.5t10 -118.5v-523q24 0 39 1.5t24 8t12 19t3 35.5v455q0 81 -17 136.5t-42.5 91t-55.5 54t-56 27.5z" />
<glyph unicode="&#xe6;" horiz-adv-x="1692" d="M53 342q0 92 34 156t90 105t128 62t148 28v65q0 39 -7.5 62.5t-20.5 36t-30.5 16.5t-37.5 4q-21 0 -44.5 -6.5t-46 -15.5t-42 -19.5t-33.5 -18.5q-6 -4 -11 -7t-10 -3q-9 0 -17 13l-34 55q-5 7 -5 15t6.5 14t12.5 10q33 23 84 48.5t115 47t139 35.5t156 14q49 0 87 -5 t68.5 -15t55.5 -23.5t49 -30.5q50 31 120.5 52.5t155.5 21.5q54 0 110.5 -10.5t109.5 -35.5t99.5 -67t81.5 -104t55 -147t20 -196v-77h-453q9 -75 29 -124t46.5 -78.5t57 -41.5t59.5 -12q30 0 53.5 8t41 18t28.5 18t16 8q8 0 16 -12l36 -59q2 -4 4 -7.5t2 -6.5 q0 -7 -5 -11.5t-8 -6.5q-33 -27 -84 -54t-117 -48.5t-144.5 -34.5t-165.5 -13q-91 0 -173.5 18t-160.5 58q-66 -28 -134 -41.5t-134 -13.5q-87 0 -160 23t-125.5 68t-81.5 111.5t-29 153.5zM195 342q0 -45 13.5 -86t44 -72.5t79.5 -50t119 -18.5q38 0 73.5 5.5t61.5 16.5 q-62 63 -97.5 157t-35.5 222v51q-72 -5 -121 -25.5t-79.5 -51t-44 -68.5t-13.5 -80zM1013 505q0 -108 28 -183.5t71.5 -123t96.5 -68.5t104 -21q-32 7 -70 28.5t-71 66.5t-55 118t-22 183q0 101 19.5 171t50.5 115t70 67.5t78 28.5q-60 -2 -114.5 -23.5t-96 -67.5 t-65.5 -118t-24 -173zM1182 545h315q0 80 -12.5 132.5t-33.5 84t-49.5 44.5t-59.5 13q-23 0 -50 -9t-50.5 -38t-40 -83t-19.5 -144z" />
<glyph unicode="&#xe7;" horiz-adv-x="1206" d="M53 506q0 102 25 182.5t68.5 141t102.5 103t127.5 69.5t143.5 39t150 12q82 0 158 -12.5t140.5 -33t116 -45t83.5 -48.5q4 -3 8 -7t4 -11t-5 -14l-35 -54q-5 -8 -8.5 -11t-12.5 -3q-6 0 -16 6t-25 13.5t-35 14t-45 6.5q-33 0 -71 -16.5t-71 -56.5t-54.5 -107t-21.5 -168 t21.5 -168t54.5 -106.5t71 -55.5t71 -16q25 0 46 6.5t37 15t27 15t17 6.5q9 0 12.5 -3t8.5 -11l35 -54q5 -8 5 -14q0 -7 -4 -11t-8 -7q-31 -22 -75 -45.5t-101.5 -44t-128 -35t-153.5 -18.5l-14 -67q71 -11 117.5 -33.5t74.5 -53.5t39 -67.5t11 -75.5q0 -71 -29.5 -119.5 t-78.5 -78.5t-111.5 -43t-128.5 -13q-21 0 -54 2.5t-64.5 10.5t-54 21.5t-22.5 36.5v96q0 10 5 13.5t10 3.5q12 0 27 -5t37 -11t52 -11t74 -5q43 0 73 8.5t49 23.5t27 34t8 40q0 25 -10.5 45.5t-33.5 35t-59.5 22.5t-88.5 8q-5 0 -13.5 1.5t-8.5 17.5q0 4 3 20t8 39.5 t10.5 51.5t11.5 56q-102 9 -197.5 43t-169 99t-118 163.5t-44.5 236.5zM613 506q0 -105 26.5 -178t69.5 -119t96.5 -67t107.5 -22q-32 7 -70 30t-71 68.5t-55 116t-22 171.5t22 172t55 116.5t71 69t70 30.5q-54 -1 -107.5 -22.5t-96.5 -67.5t-69.5 -119.5t-26.5 -178.5z" />
<glyph unicode="&#xe8;" horiz-adv-x="1311" d="M53 512q0 102 25 182.5t68.5 141.5t102.5 103.5t127.5 69t143.5 38.5t150 12q125 0 232.5 -28t186.5 -92t124 -168t45 -255v-56q0 -18 -9 -28t-30 -10h-414q8 -74 28.5 -123.5t47 -79t57.5 -41.5t60 -12q27 0 49 7.5t39.5 16.5t29 16.5t17.5 7.5q9 0 12.5 -3t8.5 -11 l35 -54q5 -8 5 -14q0 -7 -4 -11t-8 -7q-33 -23 -81 -49.5t-111.5 -48.5t-143.5 -36.5t-176 -14.5q-75 0 -150 12t-143.5 38t-127.5 68t-102.5 103t-68.5 141.5t-25 184.5zM359 1416q0 7 7 15l92 130q7 9 15 9q6 0 14 -6l354 -268q9 -8 9 -15t-6 -14l-67 -98q-6 -10 -17 -10 q-3 0 -6 2t-7 4l-379 236q-9 6 -9 15zM632 506q0 -108 28 -183.5t71.5 -123t96.5 -68.5t104 -21q-32 7 -70 28.5t-71 66.5t-55 118t-22 183q0 101 19.5 171t50.5 115t70 67.5t78 28.5q-60 -2 -114.5 -23.5t-96 -67.5t-65.5 -118t-24 -173zM801 545h315q0 80 -12.5 132.5 t-33.5 84t-49.5 44.5t-59.5 13q-23 0 -50 -9t-50.5 -38t-40 -83t-19.5 -144z" />
<glyph unicode="&#xe9;" horiz-adv-x="1311" d="M53 512q0 102 25 182.5t68.5 141.5t102.5 103.5t127.5 69t143.5 38.5t150 12q125 0 232.5 -28t186.5 -92t124 -168t45 -255v-56q0 -18 -9 -28t-30 -10h-414q8 -74 28.5 -123.5t47 -79t57.5 -41.5t60 -12q27 0 49 7.5t39.5 16.5t29 16.5t17.5 7.5q9 0 12.5 -3t8.5 -11 l35 -54q5 -8 5 -14q0 -7 -4 -11t-8 -7q-33 -23 -81 -49.5t-111.5 -48.5t-143.5 -36.5t-176 -14.5q-75 0 -150 12t-143.5 38t-127.5 68t-102.5 103t-68.5 141.5t-25 184.5zM458 1281q0 7 9 15l354 268q7 6 14 6t15 -9l92 -130q7 -8 7 -15q0 -9 -9 -15l-379 -236q-4 -2 -7 -4 t-6 -2q-11 0 -17 10l-67 98q-6 7 -6 14zM632 506q0 -108 28 -183.5t71.5 -123t96.5 -68.5t104 -21q-32 7 -70 28.5t-71 66.5t-55 118t-22 183q0 101 19.5 171t50.5 115t70 67.5t78 28.5q-60 -2 -114.5 -23.5t-96 -67.5t-65.5 -118t-24 -173zM801 545h315q0 80 -12.5 132.5 t-33.5 84t-49.5 44.5t-59.5 13q-23 0 -50 -9t-50.5 -38t-40 -83t-19.5 -144z" />
<glyph unicode="&#xea;" horiz-adv-x="1311" d="M53 512q0 102 25 182.5t68.5 141.5t102.5 103.5t127.5 69t143.5 38.5t150 12q125 0 232.5 -28t186.5 -92t124 -168t45 -255v-56q0 -18 -9 -28t-30 -10h-414q8 -74 28.5 -123.5t47 -79t57.5 -41.5t60 -12q27 0 49 7.5t39.5 16.5t29 16.5t17.5 7.5q9 0 12.5 -3t8.5 -11 l35 -54q5 -8 5 -14q0 -7 -4 -11t-8 -7q-33 -23 -81 -49.5t-111.5 -48.5t-143.5 -36.5t-176 -14.5q-75 0 -150 12t-143.5 38t-127.5 68t-102.5 103t-68.5 141.5t-25 184.5zM327 1271q0 7 9 15l304 258l6 4t8 2t8 -2l6 -4l304 -258q9 -8 9 -15t-6 -14l-67 -88q-8 -10 -17 -10 q-3 0 -6 2t-7 4l-224 158l-224 -158q-4 -2 -7 -4t-6 -2q-10 0 -17 10l-67 88q-6 7 -6 14zM632 506q0 -108 28 -183.5t71.5 -123t96.5 -68.5t104 -21q-32 7 -70 28.5t-71 66.5t-55 118t-22 183q0 101 19.5 171t50.5 115t70 67.5t78 28.5q-60 -2 -114.5 -23.5t-96 -67.5 t-65.5 -118t-24 -173zM801 545h315q0 80 -12.5 132.5t-33.5 84t-49.5 44.5t-59.5 13q-23 0 -50 -9t-50.5 -38t-40 -83t-19.5 -144z" />
<glyph unicode="&#xeb;" horiz-adv-x="1311" d="M53 512q0 102 25 182.5t68.5 141.5t102.5 103.5t127.5 69t143.5 38.5t150 12q125 0 232.5 -28t186.5 -92t124 -168t45 -255v-56q0 -18 -9 -28t-30 -10h-414q8 -74 28.5 -123.5t47 -79t57.5 -41.5t60 -12q27 0 49 7.5t39.5 16.5t29 16.5t17.5 7.5q9 0 12.5 -3t8.5 -11 l35 -54q5 -8 5 -14q0 -7 -4 -11t-8 -7q-33 -23 -81 -49.5t-111.5 -48.5t-143.5 -36.5t-176 -14.5q-75 0 -150 12t-143.5 38t-127.5 68t-102.5 103t-68.5 141.5t-25 184.5zM327 1330q0 27 10.5 51t28 41.5t41.5 28t51 10.5t51 -10.5t41.5 -28t28 -41.5t10.5 -51t-10.5 -51 t-28 -41.5t-41.5 -28t-51 -10.5t-51 10.5t-41.5 28t-28 41.5t-10.5 51zM632 506q0 -108 28 -183.5t71.5 -123t96.5 -68.5t104 -21q-32 7 -70 28.5t-71 66.5t-55 118t-22 183q0 101 19.5 171t50.5 115t70 67.5t78 28.5q-60 -2 -114.5 -23.5t-96 -67.5t-65.5 -118t-24 -173z M719 1330q0 27 10.5 51t28 41.5t41.5 28t51 10.5t51 -10.5t41.5 -28t28 -41.5t10.5 -51t-10.5 -51t-28 -41.5t-41.5 -28t-51 -10.5t-51 10.5t-41.5 28t-28 41.5t-10.5 51zM801 545h315q0 80 -12.5 132.5t-33.5 84t-49.5 44.5t-59.5 13q-23 0 -50 -9t-50.5 -38t-40 -83 t-19.5 -144z" />
<glyph unicode="&#xec;" horiz-adv-x="921" d="M92 139v746q0 34 6 60.5t23 43.5t47 26t78 9h438q46 0 74.5 -8.5t44.5 -25.5t21 -43t5 -62v-748q0 -34 -5 -59.5t-21 -43t-44.5 -26t-74.5 -8.5h-438q-48 0 -78 9t-47 26t-23 43t-6 61zM173 1416q0 7 7 15l92 130q7 9 15 9q6 0 14 -6l354 -268q9 -8 9 -15t-6 -14l-67 -98 q-6 -10 -17 -10q-3 0 -6 2t-7 4l-379 236q-9 6 -9 15zM666 84q24 0 39 1.5t24 8t12 19t3 35.5v728q0 22 -3 35t-12 19.5t-24 8t-39 1.5v-856z" />
<glyph unicode="&#xed;" horiz-adv-x="921" d="M92 139v746q0 34 6 60.5t23 43.5t47 26t78 9h438q46 0 74.5 -8.5t44.5 -25.5t21 -43t5 -62v-748q0 -34 -5 -59.5t-21 -43t-44.5 -26t-74.5 -8.5h-438q-48 0 -78 9t-47 26t-23 43t-6 61zM272 1281q0 7 9 15l354 268q7 6 14 6t15 -9l92 -130q7 -8 7 -15q0 -9 -9 -15 l-379 -236q-4 -2 -7 -4t-6 -2q-11 0 -17 10l-67 98q-6 7 -6 14zM666 84q24 0 39 1.5t24 8t12 19t3 35.5v728q0 22 -3 35t-12 19.5t-24 8t-39 1.5v-856z" />
<glyph unicode="&#xee;" horiz-adv-x="921" d="M92 139v746q0 34 6 60.5t23 43.5t47 26t78 9h438q46 0 74.5 -8.5t44.5 -25.5t21 -43t5 -62v-748q0 -34 -5 -59.5t-21 -43t-44.5 -26t-74.5 -8.5h-438q-48 0 -78 9t-47 26t-23 43t-6 61zM141 1271q0 7 9 15l304 258l6 4t8 2t8 -2l6 -4l304 -258q9 -8 9 -15t-6 -14l-67 -88 q-8 -10 -17 -10q-3 0 -6 2t-7 4l-224 158l-224 -158q-4 -2 -7 -4t-6 -2q-10 0 -17 10l-67 88q-6 7 -6 14zM666 84q24 0 39 1.5t24 8t12 19t3 35.5v728q0 22 -3 35t-12 19.5t-24 8t-39 1.5v-856z" />
<glyph unicode="&#xef;" horiz-adv-x="921" d="M92 139v746q0 34 6 60.5t23 43.5t47 26t78 9h438q46 0 74.5 -8.5t44.5 -25.5t21 -43t5 -62v-748q0 -34 -5 -59.5t-21 -43t-44.5 -26t-74.5 -8.5h-438q-48 0 -78 9t-47 26t-23 43t-6 61zM141 1330q0 27 10.5 51t28 41.5t41.5 28t51 10.5t51 -10.5t41.5 -28t28 -41.5 t10.5 -51t-10.5 -51t-28 -41.5t-41.5 -28t-51 -10.5t-51 10.5t-41.5 28t-28 41.5t-10.5 51zM533 1330q0 27 10.5 51t28 41.5t41.5 28t51 10.5t51 -10.5t41.5 -28t28 -41.5t10.5 -51t-10.5 -51t-28 -41.5t-41.5 -28t-51 -10.5t-51 10.5t-41.5 28t-28 41.5t-10.5 51zM666 84 q24 0 39 1.5t24 8t12 19t3 35.5v728q0 22 -3 35t-12 19.5t-24 8t-39 1.5v-856z" />
<glyph unicode="&#xf0;" horiz-adv-x="1339" d="M53 494q0 99 25 177t68.5 137t102.5 100t127.5 67t143.5 37.5t150 11.5q65 0 131 -7.5t132 -26.5q-45 68 -95 125t-101 104l-130 -106q-12 -9 -21 -9q-8 0 -14.5 4.5t-11.5 10.5l-51 64q-6 7 -6 16q0 14 14 25l108 87q-42 31 -78 53.5t-64 39.5q-5 2 -10 6t-5 12 q0 7 7 18l65 97q11 16 22 16q5 0 9.5 -1.5t7.5 -3.5q51 -25 99.5 -53.5t96.5 -61.5l130 105q13 10 23 10t18 -10l57 -68q3 -4 5.5 -9t2.5 -10q0 -11 -10 -18l-112 -91q86 -77 159 -169t126 -198t82.5 -225t29.5 -248q0 -112 -26 -195.5t-71.5 -143t-105.5 -98t-128.5 -61 t-141.5 -31t-143 -8.5q-75 0 -150 11.5t-143.5 37t-127.5 66t-102.5 99.5t-68.5 137t-25 178zM642 494q0 -104 24 -169.5t61.5 -103.5t84 -52t90.5 -14q-33 6 -65 22t-57 52.5t-40.5 100t-15.5 164.5t19 164.5t46 100.5t58 53t55 22q-35 0 -80 -14.5t-85 -52t-67.5 -104 t-27.5 -169.5zM809 494q0 -95 14 -152t37 -87.5t53.5 -40t63.5 -9.5q31 0 61.5 12.5t54 46t38 91t14.5 147.5q0 85 -14.5 140t-38.5 86.5t-54 43.5t-61 12q-24 0 -53.5 -9.5t-55 -39.5t-42.5 -87.5t-17 -153.5z" />
<glyph unicode="&#xf1;" horiz-adv-x="1245" d="M92 139v746q0 34 6 60.5t23 43.5t47 26t78 9h409q45 0 77.5 -9t46.5 -31q13 9 31.5 19.5t40.5 19.5t47 15t52 6q96 0 149.5 -66t53.5 -194v-737q0 -17 -4.5 -26.5t-11 -14t-15.5 -5.5t-18 -1h-64q-26 0 -33.5 15t-7.5 32v747q0 57 -20.5 87t-65.5 30q-23 0 -46.5 -12.5 t-37.5 -26.5v-732q0 -35 -6 -61t-23 -43.5t-47 -26.5t-78 -9h-429q-48 0 -78 9t-47 26t-23 43t-6 61zM288.5 1213q-0.5 6 1 11.5t1.5 8.5q6 50 23 95t43 78.5t60 53.5t75 20q36 0 71 -15t66.5 -32.5t57.5 -32.5t43 -15q23 0 37 7.5t22.5 19.5t12 27.5t5.5 32.5q1 6 5 8.5 t20 2.5h107q14 0 15.5 -10t-0.5 -21q-8 -51 -25 -97t-42.5 -80.5t-59 -55t-74.5 -20.5q-36 0 -71 15t-66.5 33t-57.5 33t-43 15q-23 0 -36.5 -7t-22 -19t-12 -27.5t-5.5 -31.5q-1 -6 -6.5 -8.5t-26.5 -2.5h-100q-10 0 -13.5 4t-4 10zM666 84q24 0 39 1.5t24 8t12 19t3 35.5 v728q0 35 -18.5 49.5t-59.5 14.5v-856z" />
<glyph unicode="&#xf2;" horiz-adv-x="1339" d="M53 512q0 102 25 182.5t68.5 141.5t102.5 103.5t127.5 69t143.5 38.5t150 12q69 0 141.5 -8.5t141 -31t129 -61t106 -98.5t72 -143.5t26.5 -196.5q0 -116 -26 -202.5t-71.5 -148t-105.5 -101.5t-128.5 -62.5t-141.5 -31.5t-143 -9q-75 0 -150 12t-143.5 38t-127.5 68 t-102.5 103t-68.5 141.5t-25 184.5zM443 1416q0 7 7 15l92 130q7 9 15 9q6 0 14 -6l354 -268q9 -8 9 -15t-6 -14l-67 -98q-6 -10 -17 -10q-3 0 -6 2t-7 4l-379 236q-9 6 -9 15zM642 512q0 -104 24 -171t61.5 -106t84 -54.5t90.5 -15.5q-33 6 -65 23t-57 55.5t-40.5 103 t-15.5 165.5q0 67 8.5 118t23 88t33.5 62t38.5 41.5t39 25t35.5 12.5q-35 0 -80 -15.5t-85 -54.5t-67.5 -106.5t-27.5 -170.5zM809 512q0 -101 14 -162t37 -93t53.5 -42t63.5 -10q31 0 61.5 13.5t54 48.5t38 96.5t14.5 156.5q0 90 -14.5 148t-38.5 91.5t-54 46.5t-61 13 q-24 0 -53.5 -10t-55 -42.5t-42.5 -93t-17 -161.5z" />
<glyph unicode="&#xf3;" horiz-adv-x="1339" d="M53 512q0 102 25 182.5t68.5 141.5t102.5 103.5t127.5 69t143.5 38.5t150 12q69 0 141.5 -8.5t141 -31t129 -61t106 -98.5t72 -143.5t26.5 -196.5q0 -116 -26 -202.5t-71.5 -148t-105.5 -101.5t-128.5 -62.5t-141.5 -31.5t-143 -9q-75 0 -150 12t-143.5 38t-127.5 68 t-102.5 103t-68.5 141.5t-25 184.5zM446 1281q0 7 9 15l354 268q7 6 14 6t15 -9l92 -130q7 -8 7 -15q0 -9 -9 -15l-379 -236q-4 -2 -7 -4t-6 -2q-11 0 -17 10l-67 98q-6 7 -6 14zM642 512q0 -104 24 -171t61.5 -106t84 -54.5t90.5 -15.5q-33 6 -65 23t-57 55.5t-40.5 103 t-15.5 165.5q0 67 8.5 118t23 88t33.5 62t38.5 41.5t39 25t35.5 12.5q-35 0 -80 -15.5t-85 -54.5t-67.5 -106.5t-27.5 -170.5zM809 512q0 -101 14 -162t37 -93t53.5 -42t63.5 -10q31 0 61.5 13.5t54 48.5t38 96.5t14.5 156.5q0 90 -14.5 148t-38.5 91.5t-54 46.5t-61 13 q-24 0 -53.5 -10t-55 -42.5t-42.5 -93t-17 -161.5z" />
<glyph unicode="&#xf4;" horiz-adv-x="1339" d="M53 512q0 102 25 182.5t68.5 141.5t102.5 103.5t127.5 69t143.5 38.5t150 12q69 0 141.5 -8.5t141 -31t129 -61t106 -98.5t72 -143.5t26.5 -196.5q0 -116 -26 -202.5t-71.5 -148t-105.5 -101.5t-128.5 -62.5t-141.5 -31.5t-143 -9q-75 0 -150 12t-143.5 38t-127.5 68 t-102.5 103t-68.5 141.5t-25 184.5zM342 1271q0 7 9 15l304 258l6 4t8 2t8 -2l6 -4l304 -258q9 -8 9 -15t-6 -14l-67 -88q-8 -10 -17 -10q-3 0 -6 2t-7 4l-224 158l-224 -158q-4 -2 -7 -4t-6 -2q-10 0 -17 10l-67 88q-6 7 -6 14zM642 512q0 -104 24 -171t61.5 -106t84 -54.5 t90.5 -15.5q-33 6 -65 23t-57 55.5t-40.5 103t-15.5 165.5q0 67 8.5 118t23 88t33.5 62t38.5 41.5t39 25t35.5 12.5q-35 0 -80 -15.5t-85 -54.5t-67.5 -106.5t-27.5 -170.5zM809 512q0 -101 14 -162t37 -93t53.5 -42t63.5 -10q31 0 61.5 13.5t54 48.5t38 96.5t14.5 156.5 q0 90 -14.5 148t-38.5 91.5t-54 46.5t-61 13q-24 0 -53.5 -10t-55 -42.5t-42.5 -93t-17 -161.5z" />
<glyph unicode="&#xf5;" horiz-adv-x="1339" d="M53 512q0 102 25 182.5t68.5 141.5t102.5 103.5t127.5 69t143.5 38.5t150 12q69 0 141.5 -8.5t141 -31t129 -61t106 -98.5t72 -143.5t26.5 -196.5q0 -116 -26 -202.5t-71.5 -148t-105.5 -101.5t-128.5 -62.5t-141.5 -31.5t-143 -9q-75 0 -150 12t-143.5 38t-127.5 68 t-102.5 103t-68.5 141.5t-25 184.5zM338.5 1213q-0.5 6 1 11.5t1.5 8.5q6 50 23 95t43 78.5t60 53.5t75 20q36 0 71 -15t66.5 -32.5t57.5 -32.5t43 -15q23 0 37 7.5t22.5 19.5t12 27.5t5.5 32.5q1 6 5 8.5t20 2.5h107q14 0 15.5 -10t-0.5 -21q-8 -51 -25 -97t-42.5 -80.5 t-59 -55t-74.5 -20.5q-36 0 -71 15t-66.5 33t-57.5 33t-43 15q-23 0 -36.5 -7t-22 -19t-12 -27.5t-5.5 -31.5q-1 -6 -6.5 -8.5t-26.5 -2.5h-100q-10 0 -13.5 4t-4 10zM642 512q0 -104 24 -171t61.5 -106t84 -54.5t90.5 -15.5q-33 6 -65 23t-57 55.5t-40.5 103t-15.5 165.5 q0 67 8.5 118t23 88t33.5 62t38.5 41.5t39 25t35.5 12.5q-35 0 -80 -15.5t-85 -54.5t-67.5 -106.5t-27.5 -170.5zM809 512q0 -101 14 -162t37 -93t53.5 -42t63.5 -10q31 0 61.5 13.5t54 48.5t38 96.5t14.5 156.5q0 90 -14.5 148t-38.5 91.5t-54 46.5t-61 13q-24 0 -53.5 -10 t-55 -42.5t-42.5 -93t-17 -161.5z" />
<glyph unicode="&#xf6;" horiz-adv-x="1339" d="M53 512q0 102 25 182.5t68.5 141.5t102.5 103.5t127.5 69t143.5 38.5t150 12q69 0 141.5 -8.5t141 -31t129 -61t106 -98.5t72 -143.5t26.5 -196.5q0 -116 -26 -202.5t-71.5 -148t-105.5 -101.5t-128.5 -62.5t-141.5 -31.5t-143 -9q-75 0 -150 12t-143.5 38t-127.5 68 t-102.5 103t-68.5 141.5t-25 184.5zM342 1330q0 27 10.5 51t28 41.5t41.5 28t51 10.5t51 -10.5t41.5 -28t28 -41.5t10.5 -51t-10.5 -51t-28 -41.5t-41.5 -28t-51 -10.5t-51 10.5t-41.5 28t-28 41.5t-10.5 51zM642 512q0 -104 24 -171t61.5 -106t84 -54.5t90.5 -15.5 q-33 6 -65 23t-57 55.5t-40.5 103t-15.5 165.5q0 67 8.5 118t23 88t33.5 62t38.5 41.5t39 25t35.5 12.5q-35 0 -80 -15.5t-85 -54.5t-67.5 -106.5t-27.5 -170.5zM734 1330q0 27 10.5 51t28 41.5t41.5 28t51 10.5t51 -10.5t41.5 -28t28 -41.5t10.5 -51t-10.5 -51t-28 -41.5 t-41.5 -28t-51 -10.5t-51 10.5t-41.5 28t-28 41.5t-10.5 51zM809 512q0 -101 14 -162t37 -93t53.5 -42t63.5 -10q31 0 61.5 13.5t54 48.5t38 96.5t14.5 156.5q0 90 -14.5 148t-38.5 91.5t-54 46.5t-61 13q-24 0 -53.5 -10t-55 -42.5t-42.5 -93t-17 -161.5z" />
<glyph unicode="&#xf7;" d="M130 438v171q0 21 21 21h722q21 0 21 -21v-171q0 -22 -21 -22h-722q-21 0 -21 22zM387 219q0 26 10 49t27 40.5t39.5 27.5t48.5 10t49 -10t40 -27.5t27 -40.5t10 -49t-10 -48.5t-27 -39.5t-40 -26.5t-49 -9.5t-48.5 9.5t-39.5 26.5t-27 39.5t-10 48.5zM387 824 q0 26 10 49t27 40.5t39.5 27.5t48.5 10t49 -10t40 -27.5t27 -40.5t10 -49t-10 -48.5t-27 -39.5t-40 -26.5t-49 -9.5t-48.5 9.5t-39.5 26.5t-27 39.5t-10 48.5z" />
<glyph unicode="&#xf8;" horiz-adv-x="1339" d="M53 512q0 102 25 182.5t68.5 141.5t102.5 103.5t127.5 69t143.5 38.5t150 12q60 0 122.5 -6.5t123 -22.5t116 -43t102.5 -69l137 230q7 13 20 13q8 0 16 -5l71 -46q12 -8 12 -19q0 -9 -6 -19l-160 -269q29 -55 45.5 -125t16.5 -158q0 -109 -23 -191.5t-63 -143t-94 -101 t-116 -66t-129.5 -37.5t-134.5 -15l-170 -286q-7 -13 -21 -13q-10 0 -16 5l-68 47q-5 4 -8.5 8.5t-3.5 12.5q0 7 6 18l126 212q-67 7 -131.5 24t-122 46.5t-106 72.5t-83.5 101t-55 132t-20 166zM642 512q0 -104 24 -171t61.5 -106t84 -54.5t90.5 -15.5q-33 6 -65 23 t-57 55.5t-40.5 103t-15.5 165.5q0 67 8.5 118t23 88t33.5 62t38.5 41.5t39 25t35.5 12.5q-35 0 -80 -15.5t-85 -54.5t-67.5 -106.5t-27.5 -170.5zM809 512q0 -38 2 -70t6 -58l243 408q-20 15 -41 21t-42 6q-24 0 -53 -10t-54.5 -42.5t-43 -93t-17.5 -161.5zM884 232 q20 -17 43.5 -22t49.5 -5q31 0 61.5 13.5t54 48.5t38 96.5t14.5 156.5q0 39 -3 71.5t-8 59.5z" />
<glyph unicode="&#xf9;" horiz-adv-x="1245" d="M92 322v563q0 34 6 60.5t23 43.5t47 26t78 9h438q58 0 88 -17t43 -42t13.5 -54t0.5 -53v-614q0 -57 18.5 -84t63.5 -27q23 0 48.5 10t39.5 19v815q0 17 7.5 32t33.5 15h64q9 0 18 -1t15.5 -5.5t11 -14t4.5 -26.5v-930q0 -17 -4.5 -26.5t-11 -14t-15.5 -5.5t-18 -1h-64 q-26 0 -33.5 15t-7.5 48q-22 -8 -61.5 -22t-99.5 -27.5t-141.5 -23.5t-186.5 -10q-108 0 -186.5 18t-130 58.5t-76.5 105.5t-25 160zM378 1416q0 7 7 15l92 130q7 9 15 9q6 0 14 -6l354 -268q9 -8 9 -15t-6 -14l-67 -98q-6 -10 -17 -10q-3 0 -6 2t-7 4l-379 236q-9 6 -9 15z M666 237q0 -41 16 -66t37 -38.5t42 -18.5t31 -5q-25 26 -36.5 53t-11.5 71v643q0 22 -3 35t-12 19.5t-24 8t-39 1.5v-703z" />
<glyph unicode="&#xfa;" horiz-adv-x="1245" d="M92 322v563q0 34 6 60.5t23 43.5t47 26t78 9h438q58 0 88 -17t43 -42t13.5 -54t0.5 -53v-614q0 -57 18.5 -84t63.5 -27q23 0 48.5 10t39.5 19v815q0 17 7.5 32t33.5 15h64q9 0 18 -1t15.5 -5.5t11 -14t4.5 -26.5v-930q0 -17 -4.5 -26.5t-11 -14t-15.5 -5.5t-18 -1h-64 q-26 0 -33.5 15t-7.5 48q-22 -8 -61.5 -22t-99.5 -27.5t-141.5 -23.5t-186.5 -10q-108 0 -186.5 18t-130 58.5t-76.5 105.5t-25 160zM477 1281q0 7 9 15l354 268q7 6 14 6t15 -9l92 -130q7 -8 7 -15q0 -9 -9 -15l-379 -236q-4 -2 -7 -4t-6 -2q-11 0 -17 10l-67 98 q-6 7 -6 14zM666 237q0 -41 16 -66t37 -38.5t42 -18.5t31 -5q-25 26 -36.5 53t-11.5 71v643q0 22 -3 35t-12 19.5t-24 8t-39 1.5v-703z" />
<glyph unicode="&#xfb;" horiz-adv-x="1245" d="M92 322v563q0 34 6 60.5t23 43.5t47 26t78 9h438q58 0 88 -17t43 -42t13.5 -54t0.5 -53v-614q0 -57 18.5 -84t63.5 -27q23 0 48.5 10t39.5 19v815q0 17 7.5 32t33.5 15h64q9 0 18 -1t15.5 -5.5t11 -14t4.5 -26.5v-930q0 -17 -4.5 -26.5t-11 -14t-15.5 -5.5t-18 -1h-64 q-26 0 -33.5 15t-7.5 48q-22 -8 -61.5 -22t-99.5 -27.5t-141.5 -23.5t-186.5 -10q-108 0 -186.5 18t-130 58.5t-76.5 105.5t-25 160zM346 1271q0 7 9 15l304 258l6 4t8 2t8 -2l6 -4l304 -258q9 -8 9 -15t-6 -14l-67 -88q-8 -10 -17 -10q-3 0 -6 2t-7 4l-224 158l-224 -158 q-4 -2 -7 -4t-6 -2q-10 0 -17 10l-67 88q-6 7 -6 14zM666 237q0 -41 16 -66t37 -38.5t42 -18.5t31 -5q-25 26 -36.5 53t-11.5 71v643q0 22 -3 35t-12 19.5t-24 8t-39 1.5v-703z" />
<glyph unicode="&#xfc;" horiz-adv-x="1245" d="M92 322v563q0 34 6 60.5t23 43.5t47 26t78 9h438q58 0 88 -17t43 -42t13.5 -54t0.5 -53v-614q0 -57 18.5 -84t63.5 -27q23 0 48.5 10t39.5 19v815q0 17 7.5 32t33.5 15h64q9 0 18 -1t15.5 -5.5t11 -14t4.5 -26.5v-930q0 -17 -4.5 -26.5t-11 -14t-15.5 -5.5t-18 -1h-64 q-26 0 -33.5 15t-7.5 48q-22 -8 -61.5 -22t-99.5 -27.5t-141.5 -23.5t-186.5 -10q-108 0 -186.5 18t-130 58.5t-76.5 105.5t-25 160zM346 1330q0 27 10.5 51t28 41.5t41.5 28t51 10.5t51 -10.5t41.5 -28t28 -41.5t10.5 -51t-10.5 -51t-28 -41.5t-41.5 -28t-51 -10.5 t-51 10.5t-41.5 28t-28 41.5t-10.5 51zM666 237q0 -41 16 -66t37 -38.5t42 -18.5t31 -5q-25 26 -36.5 53t-11.5 71v643q0 22 -3 35t-12 19.5t-24 8t-39 1.5v-703zM738 1330q0 27 10.5 51t28 41.5t41.5 28t51 10.5t51 -10.5t41.5 -28t28 -41.5t10.5 -51t-10.5 -51t-28 -41.5 t-41.5 -28t-51 -10.5t-51 10.5t-41.5 28t-28 41.5t-10.5 51z" />
<glyph unicode="&#xfd;" horiz-adv-x="1148" d="M0 978q0 25 19.5 35.5t39.5 10.5h507q36 0 55.5 -14.5t25.5 -28.5l155 -382l140 366q5 13 9 23.5t10 18.5t16 12.5t26 4.5h117q28 0 28 -16q0 -13 -10 -37l-565 -1333q-6 -13 -10 -22.5t-9.5 -15.5t-13.5 -9t-22 -3h-129q-30 0 -30 18q0 12 12 36l134 288l-495 1010 q-10 22 -10 38zM454 1281q0 7 9 15l354 268q7 6 14 6t15 -9l92 -130q7 -8 7 -15q0 -9 -9 -15l-379 -236q-4 -2 -7 -4t-6 -2q-11 0 -17 10l-67 98q-6 7 -6 14zM495 940l223 -557l39 101l-170 425q-13 31 -44 31h-48z" />
<glyph unicode="&#xfe;" horiz-adv-x="1319" d="M92 -272v1771q0 34 6 60.5t23 43.5t47 26t78 9h441q79 0 110.5 -36t31.5 -109v-460q88 -15 167.5 -51t139.5 -97.5t95 -152t35 -214.5q0 -126 -36 -217.5t-96 -153.5t-139 -97.5t-166 -49.5v-272q0 -36 -6 -62t-21.5 -43.5t-44 -26t-73.5 -8.5h-438q-48 0 -78 9t-47 26.5 t-23 43.5t-6 61zM666 -328q24 0 39 1.5t24 8t12 19t3 35.5v1754q0 22 -3 35t-12 19.5t-24 8t-39 1.5v-1882zM829 128q78 10 133.5 43t91.5 85t53 119t17 144t-17 143t-53 117t-91.5 83.5t-133.5 41.5v-776z" />
<glyph unicode="&#xff;" horiz-adv-x="1148" d="M0 978q0 25 19.5 35.5t39.5 10.5h507q36 0 55.5 -14.5t25.5 -28.5l155 -382l140 366q5 13 9 23.5t10 18.5t16 12.5t26 4.5h117q28 0 28 -16q0 -13 -10 -37l-565 -1333q-6 -13 -10 -22.5t-9.5 -15.5t-13.5 -9t-22 -3h-129q-30 0 -30 18q0 12 12 36l134 288l-495 1010 q-10 22 -10 38zM323 1330q0 27 10.5 51t28 41.5t41.5 28t51 10.5t51 -10.5t41.5 -28t28 -41.5t10.5 -51t-10.5 -51t-28 -41.5t-41.5 -28t-51 -10.5t-51 10.5t-41.5 28t-28 41.5t-10.5 51zM495 940l223 -557l39 101l-170 425q-13 31 -44 31h-48zM715 1330q0 27 10.5 51 t28 41.5t41.5 28t51 10.5t51 -10.5t41.5 -28t28 -41.5t10.5 -51t-10.5 -51t-28 -41.5t-41.5 -28t-51 -10.5t-51 10.5t-41.5 28t-28 41.5t-10.5 51z" />
<glyph unicode="&#x152;" horiz-adv-x="2217" d="M61 723q0 152 27 268t74.5 200.5t111.5 140.5t138 89.5t154.5 47.5t160.5 14q72 0 145 -11t141 -37.5t128.5 -70.5t109.5 -110v58q0 39 7 63t24 37.5t44.5 18.5t68.5 5h694q17 0 27 -4.5t15 -11.5t6.5 -16t1.5 -18v-71q0 -20 -9.5 -26.5t-27.5 -6.5q-8 0 -27.5 2t-46 5.5 t-58 7.5t-62.5 9q-74 11 -162 25v-254h372q21 0 21 -21v-100q0 -22 -21 -22h-372v-811q96 14 175 25q34 5 67.5 9.5t62.5 8.5t50.5 6t30.5 2q20 0 32 -6.5t12 -26.5v-92q0 -18 -11 -33.5t-45 -15.5h-760q-38 0 -59.5 6t-32.5 19.5t-14 36t-3 54.5v75q-49 -66 -109.5 -110 t-128.5 -70.5t-141 -38t-145 -11.5q-80 0 -160.5 14t-154.5 48t-138 90.5t-111.5 141t-74.5 200t-27 268.5zM649 723q0 -134 26 -227.5t69.5 -152.5t99.5 -87t115 -31q-41 7 -81.5 39t-72.5 92t-52.5 151t-20.5 216t20.5 216t52.5 151t72.5 91.5t81.5 39.5q-59 -3 -115 -31 t-99.5 -87t-69.5 -152.5t-26 -227.5zM817 723q0 -125 18.5 -209t49.5 -135t69.5 -72.5t79.5 -21.5t80 21.5t69.5 72.5t49 135t18.5 209q0 127 -19 211.5t-50 134.5t-69.5 71t-78.5 21q-41 0 -79.5 -21.5t-69.5 -72.5t-49.5 -135t-18.5 -209zM1582 101l78 10v1234l-78 11 v-1255z" />
<glyph unicode="&#x153;" horiz-adv-x="1868" d="M53 512q0 102 25 182.5t68.5 141.5t102.5 103.5t127.5 69t143.5 38.5t150 12q59 0 109 -5t93 -14.5t81 -22.5t73 -28q27 13 57 25.5t66 22.5t79 16t97 6q46 0 100 -10t108.5 -34t105 -64.5t90 -102t63 -146t23.5 -196.5v-84h-453q9 -75 29 -124t47 -78.5t57.5 -41.5 t59.5 -12q30 0 53.5 8t41 18t28.5 18t16 8q8 0 16 -12l36 -59q2 -4 4 -7.5t2 -6.5q0 -7 -5 -11.5t-8 -6.5q-32 -27 -77 -54t-99.5 -48t-118.5 -34.5t-133 -13.5q-51 0 -95.5 7t-80.5 17.5t-63.5 22.5t-45.5 23q-63 -32 -153.5 -51t-202.5 -19q-75 0 -150 12t-143.5 38 t-127.5 68t-102.5 103t-68.5 141.5t-25 184.5zM642 512q0 -104 24 -171t61.5 -106t84 -54.5t90.5 -15.5q-33 6 -65 23t-57 55.5t-40.5 103t-15.5 165.5q0 67 8.5 118t23 88t33.5 62t38.5 41.5t39 25t35.5 12.5q-35 0 -80 -15.5t-85 -54.5t-67.5 -106.5t-27.5 -170.5z M809 512q0 -101 14 -162t37 -93t53.5 -42t63.5 -10q31 0 61.5 13.5t54 48.5t38 96.5t14.5 156.5q0 90 -14.5 148t-38.5 91.5t-54 46.5t-61 13q-24 0 -53 -10t-54.5 -42.5t-43 -93t-17.5 -161.5zM1358 545h315q0 80 -12.5 132.5t-33.5 84t-49.5 44.5t-59.5 13q-23 0 -50 -9 t-50.5 -38t-40 -83t-19.5 -144z" />
<glyph unicode="&#x178;" horiz-adv-x="1229" d="M0 1366q0 35 22 52.5t46 17.5h546q25 0 43 -6.5t30 -15.5t18.5 -19.5t9.5 -18.5l176 -483l160 461q6 17 11.5 32t13 26t18.5 17.5t29 6.5h92q14 0 24 -6t10 -20q0 -19 -12 -50l-227 -578v-642q0 -35 -7 -61t-23.5 -43.5t-44 -26.5t-69.5 -9h-472q-39 0 -64 9t-39.5 26 t-20.5 43t-6 61v621l-254 559q-6 14 -8 25t-2 22zM389 1699q0 27 10.5 51t28 41.5t41.5 28t51 10.5t51 -10.5t41.5 -28t28 -41.5t10.5 -51t-10.5 -51t-28 -41.5t-41.5 -28t-51 -10.5t-51 10.5t-41.5 28t-28 41.5t-10.5 51zM554 1352l293 -800v-468q24 0 39 1.5t24 8t12 19 t3 35.5v412l-279 761q-6 17 -16.5 24t-27.5 7h-48zM781 1699q0 27 10.5 51t28 41.5t41.5 28t51 10.5t51 -10.5t41.5 -28t28 -41.5t10.5 -51t-10.5 -51t-28 -41.5t-41.5 -28t-51 -10.5t-51 10.5t-41.5 28t-28 41.5t-10.5 51z" />
<glyph unicode="&#x2c6;" horiz-adv-x="820" d="M83 1271q0 7 9 15l304 258l6 4t8 2t8 -2l6 -4l304 -258q9 -8 9 -15t-6 -14l-67 -88q-8 -10 -17 -10q-3 0 -6 2t-7 4l-224 158l-224 -158q-4 -2 -7 -4t-6 -2q-10 0 -17 10l-67 88q-6 7 -6 14z" />
<glyph unicode="&#x2dc;" horiz-adv-x="820" d="M76.5 1213q-0.5 6 1 11.5t1.5 8.5q6 50 23 95t43 78.5t60 53.5t75 20q36 0 71 -15t66.5 -32.5t57.5 -32.5t43 -15q23 0 37 7.5t22.5 19.5t12 27.5t5.5 32.5q1 6 5 8.5t20 2.5h107q14 0 15.5 -10t-0.5 -21q-8 -51 -25 -97t-42.5 -80.5t-59 -55t-74.5 -20.5q-36 0 -71 15 t-66.5 33t-57.5 33t-43 15q-23 0 -36.5 -7t-22 -19t-12 -27.5t-5.5 -31.5q-1 -6 -6.5 -8.5t-26.5 -2.5h-100q-10 0 -13.5 4t-4 10z" />
<glyph unicode="&#x2000;" horiz-adv-x="991" />
<glyph unicode="&#x2001;" horiz-adv-x="1982" />
<glyph unicode="&#x2002;" horiz-adv-x="991" />
<glyph unicode="&#x2003;" horiz-adv-x="1982" />
<glyph unicode="&#x2004;" horiz-adv-x="660" />
<glyph unicode="&#x2005;" horiz-adv-x="495" />
<glyph unicode="&#x2006;" horiz-adv-x="330" />
<glyph unicode="&#x2007;" horiz-adv-x="330" />
<glyph unicode="&#x2008;" horiz-adv-x="247" />
<glyph unicode="&#x2009;" horiz-adv-x="396" />
<glyph unicode="&#x200a;" horiz-adv-x="110" />
<glyph unicode="&#x2010;" horiz-adv-x="800" d="M100 358v240q0 21 21 21h558q21 0 21 -21v-240q0 -22 -21 -22h-558q-21 0 -21 22z" />
<glyph unicode="&#x2011;" horiz-adv-x="800" d="M100 358v240q0 21 21 21h558q21 0 21 -21v-240q0 -22 -21 -22h-558q-21 0 -21 22z" />
<glyph unicode="&#x2012;" horiz-adv-x="800" d="M100 358v240q0 21 21 21h558q21 0 21 -21v-240q0 -22 -21 -22h-558q-21 0 -21 22z" />
<glyph unicode="&#x2013;" d="M100 388v180q0 21 21 21h782q21 0 21 -21v-180q0 -22 -21 -22h-782q-21 0 -21 22z" />
<glyph unicode="&#x2014;" horiz-adv-x="2048" d="M0 388v180q0 21 21 21h2006q21 0 21 -21v-180q0 -22 -21 -22h-2006q-21 0 -21 22z" />
<glyph unicode="&#x2018;" horiz-adv-x="612" d="M63 1332q0 13 8 21t19 15l143 94q12 8 24 8t22 -7t16 -17l244 -416q5 -7 8 -14.5t3 -15.5q0 -18 -20 -31l-100 -66q-8 -5 -16.5 -9.5t-17.5 -4.5q-16 0 -34 24l-286 387q-8 10 -10.5 18t-2.5 14z" />
<glyph unicode="&#x2019;" horiz-adv-x="612" d="M62 999q0 8 3.5 15.5t8.5 15.5l243 416q6 10 16 17t22 7t24 -8l143 -94q11 -7 19 -15t8 -21t-13 -32l-286 -387q-18 -24 -34 -24q-8 0 -17 4t-17 10l-100 66q-20 13 -20 30z" />
<glyph unicode="&#x201a;" horiz-adv-x="612" d="M63 -68q0 7 2.5 14.5t10.5 18.5l286 387q10 14 17.5 19.5t15.5 5.5q10 0 18 -4.5t17 -10.5l100 -65q11 -8 15 -15.5t4 -15.5t-3 -15.5t-7 -14.5l-244 -416q-6 -11 -16 -18t-21 -7q-13 0 -25 8l-143 95q-10 7 -18.5 14.5t-8.5 19.5z" />
<glyph unicode="&#x201c;" horiz-adv-x="920" d="M63 1303q0 12 8 19t19 15l143 95q12 8 25 8q11 0 21 -7.5t16 -17.5l244 -416q10 -17 10 -30q0 -19 -19 -31l-100 -66q-9 -6 -17 -10t-18 -4q-8 0 -15 5.5t-18 19.5l-286 387q-13 19 -13 33zM371 1501q0 13 7.5 20t18.5 15l144 94q13 8 24 8t21 -7t16 -17l244 -416 q10 -17 10 -31q0 -8 -4 -15.5t-14 -14.5l-101 -66q-9 -6 -17 -10t-18 -4q-14 0 -32 24l-287 387q-8 10 -10 17.5t-2 15.5z" />
<glyph unicode="&#x201d;" horiz-adv-x="920" d="M63 1167q0 8 4 15.5t9 15.5l243 416q6 11 15.5 17.5t21.5 6.5t25 -8l143 -94q11 -7 19 -14.5t8 -20.5q0 -17 -12 -33l-287 -387q-18 -24 -35 -24q-8 0 -16.5 4.5t-16.5 9.5l-100 66q-21 15 -21 30zM369 969q0 8 3.5 15t8.5 15l244 416q6 10 15 17.5t22 7.5t24 -8l143 -95 q11 -7 19 -14.5t8 -19.5q0 -15 -12 -33l-287 -387q-18 -25 -35 -25q-8 0 -16.5 4.5t-16.5 9.5l-100 66q-20 14 -20 31z" />
<glyph unicode="&#x201e;" horiz-adv-x="920" d="M63 131q0 7 2.5 14.5t10.5 18.5l286 387q10 14 17.5 19.5t15.5 5.5q10 0 18 -4.5t17 -10.5l100 -65q11 -8 15 -15.5t4 -15.5t-3 -15.5t-7 -14.5l-244 -416q-6 -11 -16 -18t-21 -7q-13 0 -25 8l-143 95q-10 7 -18.5 14.5t-8.5 19.5zM370 -68q0 7 2.5 14.5t10.5 18.5 l286 387q10 14 17.5 19.5t15.5 5.5q10 0 18 -4.5t17 -10.5l100 -65q11 -8 15 -15.5t4 -15.5t-3 -15.5t-7 -14.5l-244 -416q-6 -11 -16 -18t-21 -7q-13 0 -25 8l-143 95q-10 7 -18.5 14.5t-8.5 19.5z" />
<glyph unicode="&#x2022;" horiz-adv-x="695" d="M75 715q0 56 21.5 105.5t59 86.5t87 58.5t105.5 21.5t105.5 -21.5t86.5 -58.5t58.5 -86.5t21.5 -105.5t-21.5 -105.5t-58.5 -86.5t-86.5 -58.5t-105.5 -21.5t-105.5 21.5t-87 58.5t-59 86.5t-21.5 105.5zM383 900q38 -37 56 -84t18 -101t-17.5 -100.5t-54.5 -82.5 q31 7 58.5 24t48 41t32 54t11.5 64t-11.5 65t-32 55.5t-48 41.5t-60.5 23z" />
<glyph unicode="&#x2026;" horiz-adv-x="2003" d="M102 211q0 48 18.5 90t50 73.5t73.5 49.5t90 18t90 -18t73.5 -49.5t49.5 -73.5t18 -90t-18 -90t-49.5 -73.5t-73.5 -49.5t-90 -18t-90 18t-73.5 49.5t-50 73.5t-18.5 90zM351 65q27 3 51 15.5t41 32t27 45t10 53.5t-10 53.5t-27 45t-41 32t-51 15.5q24 -30 38 -67t14 -79 q0 -41 -14 -78.5t-38 -67.5zM770 211q0 48 18.5 90t50 73.5t73.5 49.5t90 18t90 -18t73.5 -49.5t49.5 -73.5t18 -90t-18 -90t-49.5 -73.5t-73.5 -49.5t-90 -18t-90 18t-73.5 49.5t-50 73.5t-18.5 90zM1019 65q27 3 51 15.5t41 32t27 45t10 53.5t-10 53.5t-27 45t-41 32 t-51 15.5q24 -30 38 -67t14 -79q0 -41 -14 -78.5t-38 -67.5zM1438 211q0 48 18.5 90t50 73.5t73.5 49.5t90 18t90 -18t73.5 -49.5t49.5 -73.5t18 -90t-18 -90t-49.5 -73.5t-73.5 -49.5t-90 -18t-90 18t-73.5 49.5t-50 73.5t-18.5 90zM1687 65q27 3 51 15.5t41 32t27 45 t10 53.5t-10 53.5t-27 45t-41 32t-51 15.5q24 -30 38 -67t14 -79q0 -41 -14 -78.5t-38 -67.5z" />
<glyph unicode="&#x202f;" horiz-adv-x="396" />
<glyph unicode="&#x2039;" horiz-adv-x="600" d="M60 520q0 9 6.5 17t12.5 16l356 426q5 5 16 17.5t24 12.5q24 0 24 -31v-218v-22.5t-2.5 -26t-8.5 -27t-18 -25.5l-133 -139l133 -139q12 -12 18 -25.5t8.5 -27t2.5 -26v-22.5v-218q0 -31 -24 -31q-13 0 -24 12.5t-16 17.5l-356 426q-6 8 -12.5 16t-6.5 17z" />
<glyph unicode="&#x203a;" horiz-adv-x="600" d="M101 62v218v22.5t2.5 26t8.5 27t18 25.5l133 139l-133 139q-12 12 -18 25.5t-8.5 27t-2.5 26v22.5v218q0 31 24 31q13 0 24 -12.5t16 -17.5l356 -426q6 -8 12.5 -16t6.5 -17t-6.5 -17t-12.5 -16l-356 -426q-5 -5 -16 -17.5t-24 -12.5q-24 0 -24 31z" />
<glyph unicode="&#x205f;" horiz-adv-x="495" />
<glyph unicode="&#x20ac;" horiz-adv-x="1300" d="M35 486l20 73q2 7 8 15t19 8h57v31v25.5t1 25.5h-82q-12 0 -19.5 6.5t-3.5 19.5l20 73q2 7 8 15t19 8h73q27 135 91 226.5t149.5 147.5t183.5 80t191 24q79 0 147 -12.5t125 -33t102 -45t77 -48.5q4 -3 8 -7t4 -11t-5 -14l-35 -54q-5 -8 -8.5 -11t-12.5 -3q-6 0 -16 6 t-25 13.5t-35 14t-45 6.5q-27 0 -58 -11.5t-59.5 -42.5t-52 -85.5t-36.5 -139.5h229q12 0 19.5 -6.5t3.5 -19.5l-20 -73q-2 -7 -8 -15t-19 -8h-215q-1 -13 -1 -25.5v-26.5v-30h183q12 0 19.5 -6.5t3.5 -19.5l-20 -73q-2 -7 -8 -15t-19 -8h-151q11 -92 34.5 -150.5t53 -91.5 t61.5 -45.5t60 -12.5q25 0 45 6t35 13.5t25 14t16 6.5q9 0 12.5 -3t8.5 -11l35 -54q5 -8 5 -14q0 -7 -4 -11t-8 -7q-32 -24 -77 -48.5t-102 -45t-125 -33t-147 -12.5q-95 0 -194.5 25t-186 83t-150.5 154t-88 237h-93q-12 0 -19.5 6.5t-3.5 19.5zM665 612q0 -145 29 -240 t73.5 -151t97.5 -78.5t101 -22.5q-29 7 -66.5 32t-71 79.5t-56.5 146.5t-23 234q0 94 10.5 166t28.5 125t40.5 89.5t46.5 59.5t47.5 35.5t43.5 17.5q-48 0 -101 -23t-97.5 -79.5t-73.5 -151.5t-29 -239z" />
<glyph unicode="&#x2122;" horiz-adv-x="1566" d="M20 1309v103q0 9 7.5 16.5t23.5 7.5h588q16 0 23.5 -7.5t7.5 -16.5v-103q0 -10 -5.5 -12.5t-13.5 -2.5t-28.5 3t-43.5 8q-26 5 -57 12v-496q0 -32 -13.5 -48.5t-57.5 -16.5h-211q-44 0 -57.5 16.5t-13.5 49.5v495q-31 -7 -57 -12q-23 -5 -44 -8t-29 -3t-13.5 2.5 t-5.5 12.5zM423 804q23 0 35 4.5t12 25.5v499l-47 8v-537zM723 783v602q0 18 12 34.5t42 16.5h193q37 0 54 -27l122 -194l81 155q7 15 14.5 27t17 20.5t24 13.5t37.5 5h136q36 0 52 -17.5t16 -42.5v-554q0 -30 -12.5 -48t-55.5 -18h-219q-39 0 -52.5 16.5t-13.5 49.5v254 l-112 -225q-7 -14 -17 -22.5t-27 -8.5t-27 9t-18 21l-117 222q2 -70 5 -128l2 -50t2 -46.5t1.5 -37.5t1.5 -23q1 -14 -4 -22.5t-22 -8.5h-93q-8 0 -15.5 5.5t-7.5 21.5zM926 1388l173 -261l23 42l-137 206q-6 9 -13 11t-15 2h-31zM1424 804q32 0 40.5 6.5t8.5 23.5v524 q0 18 -10 24t-39 6v-584z" />
<glyph unicode="&#xe000;" horiz-adv-x="1025" d="M0 0v1025h1025v-1025h-1025z" />
</font>
</defs>
</svg>
